<svg width="1021" height="1220" viewBox="0 0 1021 1220" fill="none" xmlns="http://www.w3.org/2000/svg">
<path fill-rule="evenodd" clip-rule="evenodd" d="M996.082 696.472C981.802 697.874 967.523 699.274 953.244 700.676C884.856 705.901 816.495 716.813 748.63 723.362C746.94 720.612 743.633 721.065 741.625 722.976C734.853 722.383 727.264 717.207 721.129 722.591C720.93 722.563 720.731 722.53 720.53 722.511C709.608 701.548 702.058 679.189 694.731 656.8C690.054 643.035 683.762 629.71 672.134 620.468C652.29 606.693 606.822 578.76 583.521 579.934C583.134 575.762 581.189 571.462 577.996 568.684C585.034 556.685 556.893 548.856 554.908 550.247C556.18 510.159 537.323 475.345 495.743 467.362C458.492 459.6 405.51 458.296 385.476 497.225C383.273 496.977 360.762 496.86 358.584 497.104C355.198 492.815 318.008 533.457 333.251 547.606C196.978 607.888 119.493 600.695 81.7752 770.164C76.6761 786.084 76.3047 803.505 70.9203 819.07C51.764 863.801 36.2263 911.432 32.3594 960.104C23.0199 962.497 21.9459 978.964 32.7638 981.346C36.8959 982.257 40.3514 983.501 43.3645 985.86C41.0091 1025.75 50.6558 1116.86 56.734 1116.58C69.1275 1156.02 124.409 1167.15 163.547 1153.29C156.8 1165.99 163.547 1173.97 163.547 1180.75C304.374 1186.08 458.353 1183.01 599.141 1190.32C617.15 1190.06 636.093 1194.74 653.856 1192.05C664.688 1189.45 664.706 1172.42 653.718 1170.31L701.731 1159.88C700.658 1159.48 721.522 1145.6 737.291 1119.67C751.969 1090.66 741.979 1055.64 748.63 1024.08C800.575 1019.83 853.378 1018.02 904.754 1009.22C911.759 1030.18 942.082 1005.11 951.721 995.03C951.709 995.014 951.697 994.999 951.685 994.983C956.35 993.707 960.091 989.335 960.216 984.159C963.487 979.485 964.174 972.897 961.036 968.38C975.415 885.412 997.335 800.7 1005.26 716.952C1008.06 716.332 1010.7 715.104 1012.93 713.212L1012.75 713.031C1016.54 708.807 1017.28 701.516 1010.96 697.927C1005.87 695.029 1001.61 695.928 996.082 696.472Z" fill="white"/>
<path fill-rule="evenodd" clip-rule="evenodd" d="M453 1007L464 1014L554 1043L609 1050L654 1043V1120L663 1192C659 1199.33 621 1199.33 549 1192C503.102 1187.32 335.356 1185.06 297.164 1184.06L295 1184C250.12 1182.71 205.787 1182.71 162 1184V1157L287 1095L399 1032L453 1007ZM389.229 490.932L397.495 497.104L379.448 526.754L467.361 597.864V654.664L495.193 680.988L511.102 654.664L533.519 624.852L549.45 576.528L544.026 544.692L554.934 543.664C554.987 545.84 554.978 548.035 554.908 550.247C556.893 548.856 585.034 556.685 577.996 568.684C581.189 571.462 583.134 575.762 583.521 579.934C606.822 578.76 652.29 606.693 672.134 620.468C683.762 629.71 690.054 643.035 694.731 656.8L695.832 660.158L696.969 663.605L698.114 667.05C704.443 685.985 711.276 704.749 720.53 722.511C720.731 722.53 720.93 722.563 721.129 722.591C727.264 717.207 734.853 722.383 741.625 722.976C743.587 721.109 746.787 720.634 748.51 723.175L748.63 723.362L664.259 739.983L608.598 935.227L560.126 895.881L534.108 899.75L465.399 924.531L385.486 945.289L203.055 995.584H179.824L44.639 962.939L32.4561 958.917C36.4792 910.658 51.9197 863.437 70.9204 819.07C76.3048 803.505 76.6762 786.084 81.7753 770.164C119.493 600.695 196.978 607.888 333.251 547.606C318.008 533.457 355.198 492.815 358.584 497.104L358.798 497.085L359.259 497.06L359.854 497.04C365.17 496.885 383.5 497.002 385.476 497.225C386.622 494.998 387.876 492.902 389.229 490.932Z" fill="black"/>
<path fill-rule="evenodd" clip-rule="evenodd" d="M1009.57 702.4L1007.05 716.405C1006.46 716.601 1005.85 716.766 1005.23 716.903C1004.44 725.251 1003.51 733.61 1002.47 741.975L986.887 828.814C984.2 844.178 981.649 859.574 979.116 874.975L975.76 891.518L973.682 901.8C969.195 924.066 964.837 946.26 961.012 968.331C961.589 969.162 962.037 970.063 962.363 971.01L962.069 972.254L961.864 973.083L961.655 973.903C958.637 985.503 953.386 996.753 941.011 1000.17C931.677 1002.74 921.435 1002.97 911.797 1003.99L910.728 1004.11L742.069 1023.07C721.69 1025.36 701.32 1027.72 680.953 1030.11L663.296 1032.18C638.686 1035.03 613.934 1037.27 589.686 1042.43C588.795 1042.62 588.057 1042.98 587.455 1043.45C592.338 1024.96 597.012 1006.5 601.248 987.833C606.016 966.82 610.541 945.766 615.641 924.829C625.915 882.649 637.432 840.746 650.04 799.203C652.686 790.484 655.393 781.782 658.159 773.101L660.1 767.032L661.594 762.196C663.906 754.823 666.767 747.245 673.546 743.177C681.48 738.417 692.298 737.628 701.296 735.982L707.39 734.837C716.506 733.136 725.634 731.5 734.773 729.928C778.529 722.402 822.533 716.365 866.699 711.83C912.657 707.111 958.775 704.044 1004.95 702.545L1009.57 702.4ZM590.95 991.943L591.38 991.979L585.08 1042.34C584.073 1041.64 582.794 1041.2 581.233 1041.21C560.568 1041.27 540.759 1034.66 521.599 1027.4L518.682 1026.29L510.547 1023.16C502.278 1020 493.965 1016.9 485.497 1014.33L482.074 1013.3L480.334 1012.78C473.923 1010.91 467.178 1009.21 460.509 1008.79L459.6 1008.74L461.542 1007.72C461.826 1007.57 462.075 1007.4 462.296 1007.22C465.967 1007.49 469.645 1007.42 473.517 1006.72C480.799 1005.41 487.88 1002.88 494.382 999.349L497.286 997.775L498.475 997.145L499.26 996.738L500.041 996.343C505.625 993.559 510.965 991.816 518.016 993.298C526.02 994.983 533.035 999.297 540.25 1002.94L541.53 1003.58L542.391 1004L543.269 1004.41L544.157 1004.81C553.914 1009.2 569.443 1013.94 573.184 1000.68C574.687 995.347 573.51 990.356 570.902 985.98C575.762 985.56 584.444 991.29 590.95 991.943ZM833.827 826.016L833.945 826.62C835.325 834.047 831.865 841.153 826.629 846.332C822.334 850.58 814.733 852.941 812.58 859.052C811.354 862.529 812.658 865.826 815.176 868.125L814.596 868.412L814.029 868.702L813.475 868.994L812.936 869.289L812.41 869.586C803.856 874.501 796.89 882.492 804.605 892.145C813.357 903.096 831.644 903.451 844.528 902.594L845.396 902.533C857.889 901.597 872.688 897.4 879.463 885.864C882.57 880.572 882.228 874.172 877.897 869.643C875.284 866.911 870.623 864.105 866.349 863.773C866.536 861.365 866.249 859.039 865.402 857.076C863.57 852.833 858.695 849.976 853.993 849.873C854.374 840.864 847.157 831.97 841.844 824.768L841.301 824.029L840.775 823.302C838.337 819.91 833.12 821.811 833.827 826.016ZM840.957 835.605L845.798 853.739L845.715 853.889C844.009 857.127 848.48 860.802 851.131 858.082L851.398 857.794C854.545 854.544 859.375 858.913 859.435 862.371C859.521 867.241 856.351 871.005 852.574 873.493L852.31 873.664L851.613 874.097C848.514 876.145 850.861 880.428 854.268 879.906C858.484 879.261 861.939 875.917 864.069 871.742C866.345 872.394 868.935 872.315 871.332 873.656C877.372 877.034 873.898 882.944 869.965 886.516L869.805 886.659L869.485 886.938C862.269 893.092 852.444 895.23 843.182 895.688L842.649 895.712C833.294 896.112 821.106 896.246 813.088 890.744C808.098 887.32 806.653 882.464 810.876 877.865C813.264 875.266 815.675 872.644 818.157 870.11C821.872 871.883 825.19 871.164 828.989 869.486C829.476 869.27 829.206 868.525 828.729 868.525C826.633 868.523 818.942 864.632 818.568 862.146C818.222 859.845 822.477 857.906 824.546 856.794L824.846 856.629L825.106 856.478C827.27 855.167 829.307 853.641 831.169 851.927C835.895 847.577 839.327 842.121 840.826 836.15L840.957 835.605Z" fill="white"/>
<path fill-rule="evenodd" clip-rule="evenodd" d="M388.072 488.184C392.315 477.521 406.658 481.666 405.059 492.868C404.102 499.578 400.427 506.665 397.126 512.546C394.438 517.333 391.372 522.005 387.215 525.593C394.615 532.497 402.296 539.149 410.172 545.465C418.766 552.356 427.803 558.708 437.144 564.546C445.335 569.666 453.896 574.202 461.617 580.044C468.796 585.475 475.336 592.007 478.664 600.534C482.209 609.614 480.668 618.992 478.058 628.066L477.758 629.092C475.091 638.082 470.474 648.919 476.876 657.389C480.135 661.701 484.873 664.755 488.964 668.202C492.6 671.266 496.013 674.598 499.143 678.177C505.968 685.979 511.519 694.758 515.022 704.54L515.335 705.429C518.338 714.088 520.532 724.696 516.475 733.198C515.311 735.635 511.557 734.843 510.905 732.47C509.431 727.094 509.508 721.464 508.272 716.012C506.986 710.342 504.846 704.96 502.051 699.868C496.643 690.017 489.319 681.603 480.666 674.489L478.076 672.383C471.326 666.843 465.124 660.966 463.754 651.798C462.288 641.989 466.218 632.645 468.745 623.361C470.506 616.891 471.081 610.689 469.178 604.842C466.853 608.637 463.681 612.239 461.172 615.452C456.175 621.853 451.131 628.215 446.1 634.589C440.942 641.125 435.911 647.764 431.12 654.575C428.977 657.622 426.857 660.687 424.744 663.755C423.155 666.061 420.939 668.365 419.207 670.717C419.628 671.975 419.596 673.425 418.833 674.455C409.648 686.865 396.581 660.971 393.173 654.429C386.233 641.106 381.068 626.952 374.105 613.632C366.89 599.824 358.674 586.384 349.517 573.778C343.978 566.153 337.77 558.991 332.703 551.124C320.766 561.948 305.058 569.204 290.63 575.784C274.777 583.013 258.308 588.918 242.055 595.188L237.254 597.053C209.249 607.983 180.56 619.99 157.283 639.403C129.93 662.216 113.748 694.012 101.701 726.938C87.8328 764.843 76.3598 803.771 65.6648 842.674C60.1918 862.579 54.9988 882.574 50.1168 902.633C45.8148 920.305 42.2488 938.153 37.2688 955.643C47.3688 955.286 58.8878 959.196 67.5108 960.325C106.81 965.469 145.58 973.669 182.683 987.866C187.266 989.62 188.592 994.197 187.594 997.907C190.237 997.161 192.878 996.405 195.521 995.663C192.625 991.226 194.007 983.294 194.235 978.376L194.249 978.038C194.483 971.485 195.194 964.925 195.655 958.384C196.533 945.915 197.675 933.537 199.195 921.14L199.583 918.04C201.305 904.552 202.578 890.985 204.457 877.52L204.679 875.979C203.778 872.534 202.729 869.131 201.628 865.743C198.694 856.718 194.553 848.223 190.924 839.482C190.496 838.453 191.962 837.862 192.647 838.479C198.793 844.008 203.675 851.022 207.597 858.358C207.665 858.012 207.725 857.665 207.796 857.319L208.243 855.116C209.347 849.744 210.689 844.092 213.985 839.735C214.336 839.272 215.03 839.175 215.362 839.735C218.516 845.072 218.869 851.831 219.354 857.904C219.903 864.774 219.972 871.731 219.875 878.62C219.686 892.083 218.737 905.584 217.981 919.025C217.239 932.233 215.783 945.274 213.906 958.352L213.549 960.805C212.631 967.03 211.88 973.333 210.67 979.515L210.328 981.198C209.681 984.264 209.283 988.587 207.995 992.178C241.133 982.935 274.322 973.903 307.574 965.03C331.607 958.616 355.665 952.298 379.713 945.94C380.982 943.653 382.562 941.517 384.534 939.608C391.031 933.316 399.641 930.509 407.538 935.352C408.18 935.747 408.234 936.753 407.538 937.134C406.025 937.961 404.509 938.809 403.02 939.693L417.46 935.782C428.253 932.857 439.175 929.202 450.222 927.163C470.569 917.122 492.453 909.854 513.887 902.671L516.413 901.817C527.387 898.075 538.739 893.886 550.078 891.812C558.379 890.294 568.123 892.126 571.461 900.63C575.687 903.415 579.663 906.688 583.5 909.907C586.274 912.233 588.933 914.706 591.637 917.114L592.135 917.552C594.346 919.47 596.097 920.754 596.64 923.807C596.92 925.384 595.918 927.516 593.973 927.307C588.022 926.67 583.183 919.772 579.147 915.653C576.029 912.469 572.886 909.177 570.04 905.678C568.381 906.581 566.107 906.419 565.051 904.419C559.575 894.05 544.574 901.235 536.274 903.694L524.384 907.213C518.439 908.975 512.497 910.746 506.565 912.548C490.261 917.499 474.037 923.04 457.585 927.587C459.057 929.205 458.854 932.083 456.058 933.178C443.18 938.231 429.052 940.844 415.673 944.311C407.226 946.502 398.784 948.706 390.345 950.923C388.898 953.267 387.857 955.919 387.419 959.006C385.808 970.357 388.914 983.453 391.94 994.431L392.396 996.069C394.883 1004.89 398.542 1015.71 406.157 1021.29C408.016 1022.65 410.383 1023.59 412.769 1023.81C427.676 1016.13 442.582 1008.46 457.497 1000.8C460.26 999.385 462.813 1001.31 463.433 1003.59C468.692 1002.73 473.939 1001.37 478.718 999.745C486.748 997.018 493.018 991.817 500.546 988.22C515.112 981.262 529.987 989.809 543.028 996.307L546.034 997.784C551.882 1000.62 564.049 1006.07 566.856 998.312C569.57 990.804 560.989 982.78 555.447 979.401C548.841 975.372 541.149 973.216 533.683 971.42C529.42 970.394 525.105 969.557 520.764 968.946C515.84 968.253 510.754 968.357 506.013 966.76C503.657 965.968 503.295 962.226 506.013 961.608C513.311 959.947 522.021 961.759 529.637 963.61L533.618 964.591C541.291 966.474 549.038 968.837 556.027 972.593C561.109 975.325 566.473 979.475 569.977 984.555C573.02 981.728 576.807 981.824 580.752 982.872L582.893 983.468C586.429 984.447 589.295 985.122 592.736 984.443C593.196 981.94 593.662 979.436 594.161 976.932C599.064 952.318 604.441 927.798 610.374 903.409C620.608 861.341 632.45 819.735 645.8 778.556L647.14 774.439C650.219 765.02 652.697 754.758 657.661 746.105C662.356 737.923 669.878 733.21 678.815 730.714C688.957 727.882 699.614 726.4 709.96 724.487C712.268 724.061 714.582 723.656 716.892 723.237C714.94 719.712 713.483 715.711 712.17 712.641L711.94 712.109C709.12 705.68 706.587 699.136 704.141 692.556L702.312 687.61C697.895 675.699 693.336 663.984 687.127 652.844C680.591 641.12 671.92 631.535 661.111 623.602C639.073 607.426 612.51 599.175 591.135 581.888C590.259 581.18 591.382 579.969 592.271 580.417C606.704 587.669 622.285 592.6 637.297 598.504L640.258 599.672C652.124 604.376 664.174 609.497 674.444 617.112C685.894 625.604 694.912 636.15 701.69 648.691C708.37 661.053 712.643 674.89 717.356 688.094L718.616 691.612C720.517 696.888 722.481 702.148 724.731 707.282C726.517 711.358 729.85 716.011 731.365 720.667C735.51 719.948 739.654 719.227 743.803 718.534C833.67 703.53 924.541 694.714 1015.61 692.135C1019.18 692.034 1021.02 695.434 1020.49 698.542C1011.75 750.223 1003.99 802.081 995.466 853.801C991.746 876.374 987.952 898.93 984.069 921.475C982.102 932.897 979.828 944.275 977.965 955.714C976.461 964.952 975.369 974.262 972.787 983.286C970.471 991.377 966.917 999.179 961.08 1005.35C954.788 1012.01 946.006 1015.23 937.166 1016.75C914.725 1020.61 891.707 1022.19 869.084 1024.76L748.637 1038.46C750.397 1054.46 750.528 1070.21 749.721 1086.4L749.261 1095.23C748.884 1102.34 748.435 1109.46 747.414 1116.49C746.134 1125.31 742.098 1132.78 736.153 1139.37C730.694 1145.43 724.062 1150.59 717.611 1155.54C710.915 1160.68 703.996 1165.64 696.123 1168.81L695.101 1169.22C688.194 1171.91 675.238 1176.09 665.797 1174.56C667.031 1180.75 669.419 1187.4 667.302 1193.51C666.32 1196.35 662.605 1197.77 660.329 1195.35C655.82 1190.56 655.468 1184.24 654.4 1177.99C653.289 1171.48 652.331 1164.95 651.48 1158.41C649.834 1145.76 648.553 1132.99 648.162 1120.24C647.76 1107.13 647.915 1094.01 648.621 1080.93C648.984 1074.2 649.434 1067.49 650.287 1060.81C650.651 1057.96 651.023 1055.11 651.448 1052.27C651.603 1051.23 651.775 1050.2 651.96 1049.17L641.149 1050.39C624.572 1052.24 607.988 1053.92 591.294 1054.18C589.317 1054.21 587.796 1053.31 586.802 1051.99C585.743 1053.72 583.899 1054.95 581.258 1054.94C557.945 1054.86 536.235 1047.23 515.031 1038.25C504.343 1033.72 493.821 1028.82 483.117 1024.32C473.126 1020.13 462.445 1017.14 452.695 1012.42L427.075 1025.86C426.887 1026.52 426.646 1027.14 426.39 1027.67C424.722 1031.07 421.433 1032.92 418.074 1034.31C414.85 1035.65 411.511 1036.06 408.258 1035.73C388.828 1045.91 369.393 1056.08 349.945 1066.23L330.493 1076.37C291.737 1096.55 253.134 1117.06 214.134 1136.76L211.263 1138.21C197.792 1144.96 183.327 1151.81 168.378 1156.92C168.112 1160.7 168.28 1164.38 168.597 1168.39L168.673 1169.26C169.119 1173.99 170.075 1179.92 166.278 1183.29C164.303 1185.04 160.775 1185.05 159.432 1182.41C156.995 1177.62 159.183 1170.07 159.955 1164.86C160.229 1163.01 160.563 1161.11 161.057 1159.26C143.919 1164.36 126.262 1166.84 108.822 1163.97C91.8418 1161.18 78.6908 1150.49 68.0888 1137.4C56.8998 1123.6 48.9488 1107.51 44.6828 1090.26C39.8278 1070.63 39.5108 1050.36 39.6248 1030.25C39.7458 1008.84 40.5378 987.329 43.1418 966.064C40.2888 965.393 37.1248 964.813 34.2418 965.013C32.8138 967.298 30.0438 968.26 27.5408 967.963C22.0978 973.966 35.9038 980.101 40.3158 981.637C41.8478 982.171 41.6838 984.659 39.9168 984.584L38.8038 984.531C31.9864 984.168 24.9432 983.004 20.9348 976.669C17.7228 971.591 18.6878 965.575 22.5168 961.434C25.0458 937.522 31.0918 914.237 36.7188 890.911C42.2408 868.016 48.3818 845.268 54.8908 822.635L57.8088 812.505C68.0571 777.016 78.7692 741.241 92.9058 707.163C99.9648 690.147 108.097 673.444 119.12 658.607C129.395 644.776 141.526 632.941 155.47 622.833C181.465 603.987 211.967 592.6 241.937 581.751L243.279 581.266C258.81 575.648 274.303 569.963 289.657 563.876C303.236 558.493 316.245 551.668 329.76 546.204C329.321 545.407 328.897 544.601 328.489 543.786L328.239 543.996C328.196 544.03 328.152 544.063 328.107 544.094C326.748 545.036 324.747 544.573 323.627 543.516C320.464 540.532 321.535 537.22 323.646 534.125L323.921 533.731C326.503 530.114 328.806 526.29 331.189 522.542L332.681 520.198C336.681 513.937 340.884 507.633 346.218 502.458C348.688 500.06 351.392 498.266 354.257 496.929C354.012 496.411 356.16 495.352 356.769 495.885C365.846 492.563 376.289 493.259 386.185 494.175M742.809 1039.13L730.189 1040.56C716.305 1042.14 702.415 1043.67 688.524 1045.18L658.352 1048.46C658.275 1050.18 658.066 1051.86 658.028 1053.16C657.831 1059.86 657.684 1066.56 657.545 1073.26C657.266 1086.69 657.572 1100.13 658.456 1113.53C659.313 1126.51 660.441 1139.5 662.195 1152.4L662.554 1154.98L662.762 1156.34C664.193 1156.47 665.599 1157.15 666.768 1158.55C669.32 1161.6 678.561 1158.64 682.17 1157.35C688.105 1155.24 693.694 1151.67 698.851 1148.09C703.887 1144.6 708.422 1140.53 712.78 1136.23L716.345 1132.71C719.892 1129.18 723.443 1125.43 725.616 1121C728.563 1114.98 728.944 1107.6 729.808 1101.06C730.872 1093 732.139 1084.95 733.478 1076.93M376.454 954.584L375.145 954.928C327.594 967.563 280.114 980.571 232.417 992.648C208.813 998.626 185.097 1004.17 161.464 1010.03L157.638 1010.99C138.994 1015.7 120.126 1021.37 105.849 1034.9C105.322 1035.39 104.557 1034.63 105.053 1034.1C120.44 1017.72 142.324 1010.79 163.336 1004.77C167.22 1003.66 171.109 1002.58 174.994 1001.47C146.418 991.286 117.391 982.423 87.6938 976.102C80.0468 974.474 72.3108 973.279 64.6698 971.645C59.3409 970.505 54.1367 968.857 48.8641 967.489L44.7168 966.446L44.6617 979.554C44.5927 998.119 44.6257 1016.67 45.5728 1035.23L45.7521 1038.67C46.8572 1059.33 48.5821 1080.41 55.9128 1099.89C61.8698 1115.72 71.3648 1130.63 83.7818 1142.16C90.0648 1147.99 96.8198 1152.53 105.17 1154.78C112.923 1156.86 121.046 1157.1 129.016 1156.55C167.245 1153.88 201.275 1133.11 234.483 1115.92C288.8 1087.79 343.123 1059.69 397.495 1031.67C396.025 1030.67 394.641 1029.51 393.382 1028.21C386.091 1020.68 382.245 1010.37 379.719 1000.39C377.03 989.759 375.422 978.37 375.235 967.4M445.637 1042.53C446.117 1042.27 446.673 1042.59 446.695 1043.13C446.863 1047.29 444.568 1051.38 442.853 1055.12L442.672 1055.52C440.589 1060.16 438.308 1064.73 435.949 1069.23C431.234 1078.22 426.334 1087.11 421.22 1095.88C410.936 1113.52 399.508 1130.42 386 1145.78C382.949 1149.25 377.931 1144.8 379.889 1141.07C389.329 1123.06 400.334 1106.05 411.662 1089.2C417.333 1080.76 423 1072.31 428.727 1063.91C431.116 1060.4 433.536 1056.91 436.021 1053.47L437.52 1051.41M1009.59 702.45C961.875 703.891 914.214 707.003 866.724 711.88C822.558 716.415 778.554 722.452 734.798 729.978C725.659 731.55 716.531 733.186 707.414 734.887L701.946 735.915C692.828 737.643 681.689 738.356 673.571 743.227C665.012 748.362 662.699 759.094 659.851 767.944C656.503 778.352 653.24 788.79 650.065 799.253C637.457 840.796 625.94 882.699 615.666 924.879C610.566 945.816 606.041 966.87 601.273 987.883C597.037 1006.55 592.363 1025.01 587.48 1043.5C588.082 1043.03 588.82 1042.67 589.711 1042.48C613.959 1037.32 638.71 1035.08 663.321 1032.23L665.702 1031.95C691.161 1028.96 716.62 1025.99 742.094 1023.12L910.753 1004.16C920.7 1003.04 931.356 1002.89 941.036 1000.22C957.494 995.676 961.351 977.276 964.112 962.623L964.196 962.18C972.521 917.907 979.148 873.249 986.912 828.864M591.405 992.029C584.857 991.597 575.895 985.6 570.927 986.03C573.535 990.406 574.712 995.397 573.209 1000.73C569.026 1015.56 550.109 1007.89 540.997 1003.35C533.526 999.637 526.312 995.089 518.041 993.348C508.671 991.378 502.323 995.104 494.407 999.399C487.905 1002.93 480.824 1005.46 473.542 1006.77C469.67 1007.47 465.992 1007.54 462.321 1007.27C462.1 1007.45 461.851 1007.62 461.567 1007.77L459.625 1008.79C468.406 1009.19 477.35 1011.9 485.522 1014.38C493.99 1016.95 502.303 1020.05 510.572 1023.21L518.706 1026.34C538.772 1034.02 559.542 1041.32 581.258 1041.26C582.819 1041.25 584.098 1041.69 585.105 1042.39M554.769 945.555C561.238 944.764 567.209 945.612 572.378 949.823C578.612 954.901 582.8 963.323 591.762 963.876C594.375 964.037 594.982 967.711 592.385 968.479C585.714 970.454 580.313 966.845 575.768 962.159L572.712 958.966C568.221 954.316 564.078 950.72 556.457 950.998C548.295 951.296 540.119 953.182 532.01 954.141C522.824 955.227 513.64 956.153 504.425 956.952C503.997 956.989 503.924 956.315 504.325 956.216L514.646 953.647M548.525 919.109L549.592 919.002C558.985 918.09 567.576 918.055 575.966 923.108L577.575 924.081C585.139 928.678 593.372 934.094 598.102 941.538C598.876 942.757 597.597 944.19 596.302 943.88C587.211 941.698 580.565 935.028 572.92 930.036C564.34 924.434 555.477 925.358 545.694 926.228C536.222 927.071 526.755 928.229 517.376 929.808C508.563 931.29 499.722 933.63 490.82 934.376L490.822 934.358C489.805 934.356 489.225 932.829 490.262 932.311C499.296 927.8 509.759 925.665 519.586 923.604M226.862 663.676C226.851 662.933 227.896 662.655 228.261 663.298C234.373 674.051 237.568 687.232 240.824 699.079C244.234 711.489 246.986 724.025 249.459 736.653C254.468 762.224 257.137 787.648 257.319 813.71C257.343 817.431 251.281 818.421 250.688 814.608C246.751 789.257 242.979 763.88 239.012 738.536C237.016 725.789 234.694 713.091 232.47 700.382M287.371 682.405C286.921 680.922 289.079 680.426 289.631 681.782C301.897 711.891 306.051 746.013 298.176 777.778C296.971 782.637 289.854 780.532 290.763 775.734M445.588 655.651C445.526 654.541 446.967 654.366 447.51 655.13C453.322 663.319 455.733 674.286 465.93 678.518C471.021 680.631 476.75 680.263 481.248 683.832C484.255 686.219 486.561 689.987 484.304 693.602C483.576 694.77 481.538 695.355 480.55 694.086C479.108 692.237 478.345 690.023 476.386 688.637C473.623 686.682 469.897 686.561 466.729 685.642C462.631 684.454 459.019 682.375 456.061 679.286M542.686 519.067C543.285 518.762 543.86 518.957 544.243 519.475C544.79 520.213 544.723 520.931 544.053 521.437C544.948 523.266 546.005 527.848 546.156 528.515C546.768 531.219 547.419 533.907 548.1 536.593C549.474 542.01 550.678 547.469 552.053 552.888C553.511 558.632 555.248 564.315 557.181 569.916C557.306 570.279 557.443 570.649 557.587 571.025L557.807 571.592L557.861 571.506C558.254 570.885 559.072 571.319 558.975 571.975C558.885 572.573 558.764 573.168 558.662 573.766L558.865 574.302C560.129 577.705 560.995 581.289 558.675 584.292C557.807 585.415 556.852 586.08 555.662 586.278C553.754 592.568 551.36 598.741 548.797 604.669L548.046 606.401C544.276 615.051 540.255 623.587 534.252 630.951C527.698 638.991 518.683 644.481 512.974 653.291C510.318 657.389 508.47 661.698 506.97 666.326L506.406 668.083C505.341 671.357 504.113 674.529 501.042 676.449C500.062 677.061 498.594 676.866 497.804 676.031C491.507 669.37 498.099 656.932 501.896 650.483C507.174 641.515 514.813 635.778 522.462 629.012C530.707 621.719 535.966 611.963 541.053 602.352C544.169 596.464 547.177 590.449 550.344 584.535C547.035 581.611 545.976 575.802 544.855 571.764L544.753 571.402C542.9 564.936 541.428 558.302 540.498 551.639C539.603 545.233 539.23 538.918 539.467 532.476L539.535 530.835M554.988 549.559C554.257 548.557 555.467 547.422 556.47 547.631C562.569 548.892 568.531 552.583 574.004 555.568L574.588 555.885C578.957 558.241 583.353 561.127 585.647 565.704C588.142 570.679 587.937 576.408 587.597 581.814L587.564 582.32C587.147 588.803 587.08 595.539 585.708 601.905C585.006 605.163 582.055 606.081 579.532 605.311C576.53 614.79 568.097 621.774 561.937 629.254C554.083 638.79 555.561 651.665 556.382 663.15C556.714 667.8 550.93 669.122 547.951 666.641L541.086 660.939C539.943 659.987 538.801 659.034 537.662 658.076C536.687 657.256 535.721 656.429 534.762 655.591L533.33 654.327C532.695 653.759 529.894 650.63 529.075 650.5C527.092 650.185 522.379 655.413 520.766 657.053L520.561 657.257C517.525 660.234 514.782 663.437 512.227 666.834C511.757 667.458 510.838 666.94 511.174 666.219C513.464 661.315 516.126 656.626 519.287 652.238L519.925 651.364C522.028 648.53 524.851 643.526 528.563 642.689C533.096 641.668 537.622 646.213 540.92 648.736L541.128 648.894C542.697 650.071 544.248 651.269 545.796 652.475C545.634 643.924 546.714 635.284 551.129 627.915C554.242 622.718 558.906 618.869 562.897 614.403C567.34 609.43 569.66 603.318 573.682 598.139C574.2 597.473 574.914 597.114 575.687 597C575.842 592.837 576.455 588.632 576.929 584.513L577.066 583.28C577.545 578.805 578.677 573.339 576.486 569.148C574.417 565.19 569.668 562.396 566.152 559.71L563.28 557.483M357.074 502.241C355.238 503.303 353.522 504.624 351.965 506.275C347.064 511.474 343.56 517.944 340.15 524.168C338.314 527.52 336.544 530.909 334.693 534.253C333.888 535.708 333.06 537.147 332.223 538.584C331.836 539.246 330.686 540.562 330.116 541.373C330.749 542.26 331.404 543.134 332.072 543.999C332.327 544.328 349.908 563.48 356.036 570.975C365.42 582.456 373.808 594.583 380.979 607.563C388.001 620.274 393.347 633.732 399.852 646.689C403.108 653.176 406.744 659.617 411.379 665.231C411.558 665.45 411.747 665.657 411.93 665.873C413.699 661.094 418.232 655.977 420.458 653.039L420.666 652.762C425.715 645.956 431.047 639.355 436.495 632.866C441.471 626.941 446.573 621.143 451.799 615.442L453.765 613.308C457.406 609.375 462.031 603.49 467.361 600.68C466.79 599.662 466.129 598.655 465.369 597.661C460.375 591.135 453.315 586.399 446.35 582.126L441.832 579.378C424.804 569.001 408.042 558.144 393.259 544.661C385.438 537.527 377.725 530.054 371.151 521.733L368.826 518.791M385.486 497.104C377.512 497.773 368.901 497.614 361.532 500.212C368.083 506.405 374.31 513.092 380.707 519.389C381.276 515.13 382.44 510.923 383.426 506.77" fill="black"/>
<path fill-rule="evenodd" clip-rule="evenodd" d="M579.419 82.0239C525.95 66.3309 342.066 82.4169 337.519 85.8159C330.078 91.9989 293.883 111.617 288.251 116.096C237.326 170.07 285.874 250.223 282.138 315.335C282.376 338.431 272.534 359.519 268.01 381.738C266.1 393.382 266.521 405.426 272.59 415.88C283.26 434.56 305.793 438.347 324.119 445.879C333.238 449.805 341.758 455.372 349.568 461.463C402.152 507.98 431.422 539.834 508.149 529.34C508.541 533.003 511.786 536.602 515.809 534.965C525.229 531.129 534.582 527.06 544.084 523.424C546.115 528.318 551.949 529.715 555.901 525.393L555.924 525.424C573.513 511.156 584.699 491.647 593.007 470.762C598.821 458.713 603.582 446.141 607.22 433.195C607.631 431.73 607.577 430.421 607.205 429.294C623.991 371.451 630.203 310.487 625.784 250.43C624.889 238.039 622.549 225.484 623.124 213.041C623.644 201.799 628.487 191.165 632.179 180.695C651.217 136.186 622.115 96.0379 579.419 82.0239Z" fill="white"/>
<path fill-rule="evenodd" clip-rule="evenodd" d="M586.145 9.75628L586.715 9.3144C592.88 4.47796 598.692 -1.86059 607.385 0.516278C614.515 2.46628 618.115 8.36628 619.645 15.4963C621.815 13.2263 623.925 10.8763 625.985 8.44628C631.585 1.84628 644.095 5.26628 645.765 13.6763C649.145 30.6163 649.315 47.8563 646.025 64.8263C645.525 67.3963 644.935 69.9563 644.245 72.4863C647.995 67.8163 651.485 62.9463 654.615 57.8163C658.005 52.2463 665.665 55.0063 666.195 60.9563C666.335 62.4963 666.415 64.0563 666.435 65.6263C668.825 66.4663 670.475 68.9263 669.845 71.9463C666.365 88.5663 661.955 104.956 656.655 121.066C665.175 116.546 674.725 113.866 683.715 117.056C697.995 122.136 701.395 137.716 698.605 151.126C695.095 167.986 684.055 182.096 669.815 191.346C668.125 193.886 666.455 196.446 664.865 199.056C664.835 206.426 663.495 213.776 660.795 220.606C657.755 228.276 652.395 234.906 645.795 239.946C643.475 244.998 637.331 248.687 631.938 247.664L631.655 247.606L631.645 247.616C633.025 252.556 634.215 257.546 635.245 262.546C643.22 301.284 639.182 341.608 631.908 380.128L631.675 381.356C625.145 415.636 617.545 451.136 602.775 482.966C589.415 511.746 566.765 537.056 534.395 543.336C496.315 550.726 454.165 539.016 421.415 519.486C409.545 512.406 420.425 493.746 432.245 500.946C449.305 511.326 467.835 518.576 487.435 522.396C505.755 525.956 526.245 527.166 543.815 519.786C568.285 509.506 582.825 484.396 592.025 460.756C597.445 446.806 601.505 432.406 605.285 417.946C610.155 399.356 614.695 380.646 618.105 361.726C624.455 326.436 626.515 289.786 619.795 254.396C617.655 243.106 614.625 231.746 610.675 220.826C610.055 220.056 609.465 219.196 608.935 218.256C604.805 211.016 601.955 202.786 598.885 194.956C596.195 190.286 593.255 185.796 590.135 181.406C585.47 177.821 581.027 173.988 576.957 169.806C588.778 162.152 599.209 152.57 606.714 140.364C607.952 138.351 607.166 136.427 605.699 135.342C599.706 142.839 591.948 149.188 583.788 154.813C579.608 158.393 575.106 161.609 570.388 164.515C567.017 165.182 563.609 165.64 560.305 166.016C550.895 167.086 541.435 166.686 532.075 165.436C511.835 162.736 426.237 139.162 390.155 148.326C382.639 150.235 379.095 156.976 375.115 163.306C371.662 168.812 367.271 173.37 362.004 177.123L361.415 177.536C351.115 184.666 330.406 207.222 321.701 227.354C310.461 253.346 299.665 331.236 304.635 331.906C317.635 333.666 324.835 340.506 335.425 347.846C336.125 348.326 335.715 349.626 334.815 349.296C327.825 346.776 320.265 345.286 312.935 344.066C306.305 342.956 299.325 342.756 292.925 345.126C283.105 348.766 278.315 356.996 276.345 366.276C275.575 369.906 275.235 373.696 275.195 377.446L275.189 378.534C275.194 390.357 277.399 403.465 285.985 412.186C289.635 415.896 294.585 418.396 299.765 419.086C305.435 419.846 308.935 417.286 314.145 415.956C320.145 414.426 324.825 418.376 324.265 423.526C325.535 424.636 326.765 425.806 327.985 426.996L327.986 427.001L327.995 427.006C328.795 427.366 329.555 427.846 330.245 428.426C331.375 429.386 332.325 430.436 333.085 431.566C334.775 431.896 336.395 432.836 337.725 434.556C340.465 438.086 342.995 441.656 345.345 445.296C349.555 449.766 353.745 454.246 357.875 458.796C362.846 464.265 367.685 469.858 372.556 475.419L374.995 478.196C377.625 481.186 380.245 484.176 382.865 487.176L383.646 488.057C386.282 491.009 388.302 493.187 388.585 497.436C388.785 500.586 385.395 502.726 382.585 502.006C378.252 500.889 376.241 497.488 373.645 494.114L369.725 489.085V489.085L366.035 484.346C364.205 481.986 362.355 479.636 360.515 477.286C359.965 481.616 355.385 485.106 351.205 485.296L350.23 485.334C340.414 485.66 328.486 484.276 321.015 477.356C317.655 480.746 313.475 483.416 308.325 485.016C296.625 488.656 284.665 482.206 279.935 472.396C270.765 476.326 260.405 477.116 250.495 474.226C244.779 472.551 242.802 465.427 246.785 461.067L246.965 460.876L247.011 460.824C246.189 459.755 245.737 458.447 245.664 457.022C245.575 455.292 246.836 453.458 246.576 451.843C245.584 445.684 235.54 450.247 232.348 451.581C231.738 451.835 231.166 451.956 230.632 451.975C225.697 453.412 220.33 446.928 222.915 441.576C228.705 429.616 234.355 417.566 240.215 405.626C239.475 405.876 238.715 406.106 237.965 406.296C227.435 408.996 214.665 403.816 217.095 391.126C217.655 388.146 220.355 386.106 223.035 385.186C228.255 383.386 232.175 384.686 236.195 383.006C240.725 381.126 245.455 377.676 249.435 374.426C253.685 370.966 257.355 367.076 260.605 362.856C261.905 356.726 264.155 350.866 267.755 345.826C267.975 345.526 268.195 345.226 268.425 344.936C245.338 339.432 248.361 316.727 238.177 296.605L237.317 294.937C230.4 281.478 224.366 266.303 227.855 250.976C228.475 248.266 229.375 245.676 230.535 243.256C228.685 243.486 226.825 243.696 224.975 243.906C220.725 244.386 216.405 238.906 218.095 234.876C218.985 232.766 219.965 230.726 221.025 228.746C223.965 223.286 227.575 218.326 231.825 213.846C224.685 213.656 217.535 213.656 210.475 212.836C203.805 212.066 196.795 208.416 197 200.726C197.207 193.394 203.64 187.844 209.605 184.267C215.476 176.458 222.923 169.968 231.346 165.145C229.679 164.771 227.991 164.493 226.275 164.323L225.415 164.246C220.605 163.866 216.285 162.546 211.925 160.536C208.025 158.736 208.085 153.276 210.635 150.526C218.879 141.614 231.231 144.516 240.842 149.623C240.172 148.774 239.439 147.956 238.641 147.174L238.154 146.708C233.432 142.311 240.519 135.255 245.225 139.637C246.712 141.022 248.044 142.527 249.232 144.122L249.345 143.886V143.886C255.562 131.275 264.656 119.986 275.416 110.941L277.944 108.838C297.346 92.6315 303.333 84.9501 329.135 87.3363C328.035 82.6493 328.142 77.3768 328.39 73.0415L328.425 72.4563C329.415 56.1563 335.425 36.6463 351.325 29.3263C355.455 27.4363 360.135 30.5263 359.035 35.2563C358.265 38.6063 357.325 41.8663 356.155 45.0363C359.625 41.3863 363.345 37.9763 367.285 34.8363C383.345 22.0363 404.805 11.0263 425.915 14.6263C437.515 16.6163 446.615 23.8963 456.325 29.9763C466.085 36.0963 476.985 39.7263 488.415 41.0363C504.385 42.8763 520.415 41.0263 536.205 38.1063C547.055 33.3763 557.585 27.8363 567.865 21.8663C574.185 18.1963 580.335 14.1863 586.145 9.75628ZM302.605 363.786C305.985 362.916 309.775 362.926 313.165 363.776C321.915 365.976 330.055 373.296 330.565 382.526C330.795 386.696 327.435 390.686 323.535 391.756C319.115 392.976 315.315 390.816 312.735 387.356C309.965 383.656 309.275 379.646 305.885 376.286L305.104 375.525C302.222 372.769 297.864 369.207 293.865 369.846C293.275 369.936 292.835 369.136 293.435 368.816C296.695 367.036 298.835 364.746 302.605 363.786ZM348.055 320.316C349.598 319.056 351.637 320.534 350.911 322.346L350.855 322.476C349.025 326.336 351.175 330.866 353.395 334.096C355.305 336.886 351.695 339.536 349.155 338.336C342.015 334.946 342.385 324.916 348.055 320.316ZM374.155 204.346C374.025 203.406 375.275 203.016 375.595 203.946C380.925 219.416 382.455 233.116 381.585 249.476L381.503 250.928C380.561 266.686 377.801 283.364 368.265 296.306C366.055 299.296 361.535 297.536 362.265 293.776C365.195 278.726 370.825 264.436 373.015 249.206C375.305 233.286 376.335 220.276 374.155 204.346ZM324.375 260.576C325.155 256.446 331.505 252.196 334.715 256.346C335.795 257.756 334.525 259.486 333.225 260.006C332.005 260.486 330.915 259.826 329.715 260.066C328.744 260.262 328.035 260.868 327.563 261.695L327.465 261.876C326.525 263.676 324.045 262.336 324.375 260.576ZM321.775 227.676C324.055 223.456 329.305 220.766 333.795 223.396C335.275 224.266 334.695 226.796 332.895 226.716L331.829 226.673C328.627 226.556 325.426 226.621 322.735 228.646C322.135 229.096 321.475 228.246 321.775 227.676ZM329.792 112.428C317.003 106.678 304.284 111.869 293.841 119.965C292.977 120.635 292.558 121.417 292.466 122.203C299.438 119.488 306.861 117.708 313.957 116.239C319.759 115.037 325.616 114.226 331.48 113.906C331.152 113.317 330.613 112.797 329.792 112.428Z" fill="black"/>
<path d="M329.597 116.427C329.597 113.871 328.437 114.014 326.06 114.363C324.913 114.532 317.592 115.837 319.577 115.837C320.659 115.837 323.685 114.034 320.985 115.28C319.937 115.764 314.14 118.85 318.267 117.016C319.652 116.4 325.884 113.995 324.292 112.006C322.986 110.373 320.256 111.486 318.594 111.842C315.778 112.446 312.392 114.286 310.768 116.721C309.355 118.841 309.997 121.221 312.896 120.782C315.981 120.314 324.882 117.834 324.882 113.479C324.882 111.285 307.185 115.44 305.627 116.099C302.636 117.364 310.146 115.446 310.146 112.89C310.146 112.014 307.866 114.581 307.657 114.789C305.255 117.191 302.628 119.651 300.486 122.288C298.371 124.891 302.607 117.494 302.942 116.558C304.372 112.551 295.219 120.108 294.231 120.88C292.677 122.094 291.3 123.484 289.909 124.875C288.433 126.351 293.215 122.281 294.558 120.684C295.591 119.456 296.877 117.43 295.279 120.094C293.706 122.716 292.153 125.447 291.153 128.346C290.708 129.635 297.702 121.109 297.702 121.469C297.702 123.315 295.956 126.243 295.41 128.084C294.648 130.651 293.505 133.053 292.921 135.681C292.337 138.31 292.376 136.309 292.528 134.83C293.14 128.868 294.996 123.035 295.672 117.049C295.958 114.514 296.493 110.603 295.279 108.174C294.603 106.823 290.829 114.688 290.629 115.051C286.299 122.906 281.908 130.757 277.923 138.792C276.422 141.82 274.546 145.026 273.994 148.42C273.881 149.11 273.496 151.079 274.616 149.893C279.263 144.973 285.71 141.147 291.087 137.057C299.256 130.844 307.56 124.419 316.433 119.243C317.402 118.678 320.894 115.951 322.164 116.459C322.609 116.638 319.562 126.106 319.347 126.938C317.829 132.835 316.13 139.939 316.662 146.062C316.934 149.193 323.264 142.707 323.801 142.198C330.883 135.484 338.02 128.685 344.595 121.469C348.681 116.986 352.715 111.188 357.3 107.258C359.71 105.192 354.437 112.927 352.847 115.673C349.687 121.132 346.322 127.139 344.497 133.225C343.803 135.537 345.596 133.233 346.101 132.669C349.825 128.509 353.429 124.232 357.104 120.029C364.156 111.964 371.126 103.941 377.079 95.0104C378.895 92.2865 378.747 92.3259 377.865 95.6653C377.265 97.9386 373.647 106.317 375.016 108.371C375.181 108.619 375.364 107.873 375.442 107.585C376.362 104.186 377.258 100.744 377.996 97.3027C379.44 90.5733 381.646 81.7118 380.747 74.7732C379.88 68.0857 373.87 100.542 373.87 93.7988C373.87 88.2986 374.827 82.9147 375.769 77.5239C375.994 76.2382 377.524 69.0252 375.9 74.3147C373.725 81.4009 371.379 88.501 369.482 95.6653C368.674 98.7166 369.906 95.1694 370.857 94.028" stroke="black" stroke-width="10" stroke-linecap="round"/>
<path d="M560.489 160.243C560.668 161.677 564.571 163.897 565.798 164.247C569.609 165.336 569.404 163.864 566.158 163.482C564.762 163.318 560.567 162.176 559.274 161.458C557.622 160.54 556.578 161.834 558.465 162.673C560.136 163.415 561.642 163.357 563.369 163.932C568.49 165.639 578.643 164.106 582.355 168.747C583.73 170.464 586.331 170.55 587.844 171.761C588.647 172.403 595.634 174.374 594.323 172.571C592.088 169.498 591.135 167.085 587.664 165.102C585.901 164.095 583.195 162.859 581.725 161.683C579.454 159.866 588.99 154.788 590.859 153.359C594.307 150.722 599.619 146.679 601.792 142.876C603.402 140.058 609.193 131.974 602.242 136.397C594.855 141.098 583.453 139.187 575.067 139.187" stroke="black" stroke-width="10" stroke-linecap="round"/>
<path d="M301.289 330.09C302.384 327.17 319.068 332.961 321.878 333.117C325.9 333.341 331.243 336.367 333.249 339.779C333.745 340.621 334.376 341.646 335.066 342.335C335.441 342.71 335.192 340.896 335.201 340.519C335.256 337.976 336.017 335.507 336.277 332.983C337.025 325.73 340.006 319.201 341.122 312.057C344.282 291.834 348.73 271.741 352.459 251.602C354.755 239.202 358.469 227.137 360.937 214.797C362.16 208.681 363.552 201.755 365.782 195.957C366.185 194.909 372.027 174.655 368.507 174.46C362.519 174.127 355.809 178.337 352.627 183.543C346.176 194.1 336.933 202.889 330.356 213.485C318.178 233.106 311.625 253.846 306.403 276.228C304.074 286.209 304.317 296.214 304.317 306.439C304.317 309.983 304.317 313.526 304.317 317.07C304.317 320.601 305.675 321.475 308.556 322.688C310.966 323.703 315.163 322.726 317.774 322.823C319.633 322.892 324.78 323.328 326.252 324.505C333.624 330.403 335.054 303.221 336.109 299.845C337.44 295.585 338.276 291.123 339.44 286.758C341.799 277.91 342.621 268.935 344.62 260.08C347.199 248.66 347.438 236.705 350.811 225.462C352.98 218.232 353.452 210.821 355.655 203.661C356.745 200.119 357.717 196.544 358.683 192.896C359.086 191.374 359.937 189.99 360.029 188.388C360.125 186.71 362.389 183.253 361.711 181.727C358.502 174.507 347.03 195.015 346.033 196.664C342.798 202.017 342.062 206.83 340.18 212.476C337.186 221.457 335.86 231.004 332.913 240.063C328.565 253.429 323.65 266.735 319.826 280.265C317.044 290.11 314.457 300.199 312.492 310.241C311.921 313.159 311.852 316.384 310.978 319.223C310.372 321.194 310.373 315.129 310.373 313.067C310.373 303.743 310.437 294.189 311.315 284.908C312.736 269.879 317.198 255.65 320.936 241.139C323.534 231.055 324.806 220.716 328.068 210.928C329.696 206.045 329.487 215.839 329.481 216.715C329.383 233.335 324.061 249.698 320.331 265.765C319.392 269.809 318.386 273.823 317.505 277.877C317.199 279.283 317.246 278.776 317.505 277.742C319.65 269.162 321.992 260.819 324.906 252.443C327.268 245.652 328.289 238.333 330.962 231.652C333.082 226.351 329.43 243.022 327.732 248.473C323.936 260.658 320.008 272.898 317.505 285.413C316.542 290.228 315.217 295.205 315.217 300.148C315.217 307.08 311.603 316.767 321.575 316.767C323.339 316.767 322.436 317.421 323.998 315.859C325.048 314.808 325.777 314.487 326.454 313.134C328.461 309.118 329.145 305.214 329.145 300.72C329.145 299.509 329.145 298.298 329.145 297.086C329.145 294.212 328.234 298.384 327.9 299.273C326.475 303.073 325.256 306.991 323.661 310.712C323.595 310.867 321.53 315.775 321.306 314.547C319.731 305.885 320.615 298.316 324.94 290.964C327.093 287.302 328.724 283.746 330.356 279.828C330.654 279.113 330.962 276.847 330.962 278.785C330.962 283.01 330.401 287.165 329.751 291.334C329.311 294.154 328.698 302.662 328.539 299.811C328.329 296.016 329.192 292.578 329.616 288.844C330.406 281.894 331.435 274.565 333.518 267.851C334.716 263.994 334.548 259.946 335.672 256.076C336.919 251.779 337.712 246.651 338.262 242.249C338.879 237.31 340.714 232.324 341.862 227.447C342.897 223.049 343.083 218.032 344.587 213.821C346.733 207.813 346.803 200.959 350.34 195.655" stroke="black" stroke-width="10" stroke-linecap="round"/>
<path d="M305.528 330.695C306.437 330.808 309.246 332.777 310.372 333.252C312.125 333.99 314.499 335.438 316.428 335.539C319.41 335.696 323.85 338.991 325.982 341.124C327.308 342.449 327.84 342.563 328.674 341.729C329.607 340.797 332.398 343.522 332.644 343.277C333.745 342.175 332.324 335.951 332.038 334.665C331.578 332.594 331.24 330.041 330.356 328.272" stroke="black" stroke-width="10" stroke-linecap="round"/>
<path d="M375.341 205.242C375.519 210.039 377.439 214.617 377.439 219.504C377.439 221.823 377.439 224.141 377.439 226.46C377.439 231.484 376.108 236.498 375.419 241.461C374.799 245.92 373.893 250.424 372.543 254.712C371.642 257.573 371.244 260.592 370.289 263.456C369.329 266.337 368.256 269.166 367.297 272.045C366.174 275.412 364.894 278.695 363.993 282.149C363.353 284.605 362.651 287.189 361.778 289.571C361.26 290.986 361.082 292.716 360.301 294.001C359.587 295.178 359.841 296.685 359.33 297.926C358.924 298.911 361.475 297.507 362.361 296.916C364.45 295.524 366.88 294.331 368.423 292.33C371.473 288.377 372.949 283.974 374.214 279.195C375.088 275.892 376.333 272.629 377.284 269.324C378.794 264.079 379.228 259.003 379.81 253.624C380.502 247.223 380.937 240.763 380.937 234.33C380.937 232.532 381.287 237.914 381.287 239.712C381.287 243.491 380.639 247.448 380.063 251.176C377.651 266.772 371.861 281.769 365.392 296.1C363.506 300.279 361.006 304.539 359.621 308.924C359.43 309.53 358.902 310.454 358.902 311.042C358.902 313.145 357.775 315.103 357.154 317.124C357.036 317.506 354.466 321.62 354.006 320.816C353.345 319.659 353.533 318.297 352.413 319.417C351.68 320.149 351.212 320.385 350.878 321.554C350.513 322.829 350.159 323.659 350.159 325.032C350.159 327.933 350.259 330.642 350.878 333.426C351.125 334.539 352.108 335.036 351.888 336.244C351.355 339.175 349.611 336.743 348.934 335.525C347.99 333.825 346.159 330.016 348.235 328.355C349.571 327.286 350.934 326.293 352.374 325.246C353.827 324.189 355.172 323.012 356.707 322.021C360.541 319.543 364.616 317.451 368.657 315.336C382.013 308.346 395.297 301.232 408.567 294.079" stroke="white" stroke-width="10" stroke-linecap="round"/>
<path d="M343.637 303.555C344.877 303.4 347.464 299.294 347.996 298.17C349.012 296.026 350.321 293.892 351.444 291.759C355.287 284.457 356.537 275.852 359.764 268.225C363.85 258.565 365.179 247.339 367.855 237.169C369.109 232.406 370.552 226.742 372.585 222.296C374.725 217.615 376.327 211.887 380.05 208.164C383.804 204.41 386.523 200.29 391.076 197.138C397.284 192.84 403.867 190.637 410.593 187.365C413.694 185.856 417.66 184.886 421.078 184.601C428.129 184.014 435.09 182.228 442.219 182.008C447.591 181.843 452.879 180.983 458.289 180.983C461.888 180.983 466.133 180.514 469.571 181.78C478.538 185.084 488.788 185.139 497.522 188.96C502.741 191.244 508.394 194.626 514.304 194.83C518.701 194.981 523.031 195.855 527.495 195.855C532.307 195.855 537.131 195.958 541.941 195.855C547.673 195.734 554.014 193.682 559.321 191.753C563.932 190.076 569.178 188.809 573.168 185.883C578.131 182.244 583.691 178.735 588.781 175.341" stroke="black" stroke-width="10" stroke-linecap="round"/>
<path d="M578.468 171.845C577.984 174.264 574.243 175.724 572.408 176.808C569.116 178.754 565.65 179.381 562.176 180.828C557.731 182.68 571.353 177.9 575.971 176.534C580.952 175.062 585.986 173.769 590.923 172.149C591.924 171.821 594.777 170.438 593.816 170.87C589.349 172.88 584.603 173.994 579.899 175.377C574.185 177.058 568.263 179.128 562.359 180.036C561.384 180.186 559.871 180.271 559.009 179.793C556.76 178.543 552.187 179.519 549.722 179.519C546.519 179.519 543.331 179.715 540.221 180.493C536.648 181.386 531.441 179.802 527.979 179.092C522.056 177.879 515.868 176.902 510.195 174.859C505.766 173.265 500.982 172.786 496.37 171.967C485.988 170.122 475.289 168.857 465.127 166.059C461.45 165.046 458.057 163.476 454.286 162.527C448.363 161.035 442.34 160.025 436.441 158.446C430.53 156.863 424.589 154.002 418.688 152.691C414.179 151.689 409.422 151.56 404.832 150.894C398.46 149.969 379.152 150.623 385.526 151.534C397.016 153.175 408.736 154.167 420.302 155.279C429.233 156.138 438.418 156.898 447.404 157.045C460.207 157.255 472.902 160.035 485.469 162.252C496.76 164.245 507.375 168.541 518.448 171.266C529.574 174.005 540.217 175.946 551.67 176.656C560.314 177.192 568.986 177.326 577.646 177.326C578.473 177.326 579.564 177.366 579.564 176.23C579.564 174.061 575.655 173.365 574.205 172.941C567.807 171.071 561.197 170.574 554.655 170.2C545.015 169.65 535.283 166.548 525.665 165.237C513.852 163.626 502.581 160.443 490.95 158.02C465.948 152.811 440.413 147.727 414.851 147.727C408.052 147.727 401.635 149.546 395.819 153.208C392.27 155.443 387.951 156.956 384.704 159.481C382.836 160.934 380.623 161.177 379.131 163.166C377.782 164.965 375.527 166.877 374.685 168.982C373.731 171.369 375.283 166.635 375.416 166.181C376.33 163.062 378.031 160.385 380.045 157.867C380.298 157.551 381.426 156.528 381.019 156.071C380.086 155.021 374.927 161.049 374.381 161.613C370.852 165.254 366.342 171.095 366.342 176.473C366.342 179.008 366.483 181.183 366.859 183.63C367.645 188.738 364.264 195.017 363.053 199.799C361.454 206.109 359.439 212.364 357.267 218.497C354.359 226.706 350.994 236.477 350.994 245.294C350.994 250.698 350.446 256.157 350.446 261.464C350.446 263.22 350.446 264.976 350.446 266.732C350.446 269.012 350.602 268.898 352.212 267.524C355.261 264.921 357.571 261.542 357.571 257.475C357.571 254.845 357.821 251.793 358.15 249.162C358.731 244.515 360.309 238.084 362.231 233.814C367.724 221.606 370.434 207.801 373.589 194.866C374.909 189.455 375.875 183.883 377 178.422C377.585 175.581 377.672 171.706 380.593 170.322C383.102 169.134 385.592 168.858 388.297 169.378C397.967 171.238 407.653 173.042 417.348 174.859C429.923 177.217 442.602 178.496 455.2 180.615C467.989 182.766 481.155 181.819 493.995 184.025C502.866 185.55 511.357 187.173 520.092 188.837C532.485 191.197 544.364 192.674 557.03 192.674C559.725 192.674 565.041 192.054 566.835 189.811C568.331 187.941 558.99 186.589 558.37 186.522C546.656 185.273 534.728 187.147 523.107 184.726C519.546 183.984 515.975 183.281 512.449 182.381C509.944 181.742 507.347 181.886 504.897 181.041C498.693 178.902 491.824 177.391 485.347 176.23C474.127 174.219 463.29 169.904 452.154 167.46C441.753 165.177 431.763 161.664 421.124 160.334C413.787 159.417 406.784 158.142 399.351 158.142C393.652 158.142 389.612 165.233 386.896 169.378C384.169 173.54 383.648 177.783 382.116 182.381C380.502 187.222 378.433 191.936 376.208 196.511C375.453 198.063 373.528 201.57 373.528 203.271C373.528 203.848 374.259 202.378 374.624 201.931C375.833 200.454 376.942 198.895 378.157 197.424C379.406 195.912 381.368 194.474 382.907 193.222C387.383 189.579 391.834 187.339 397.463 186.401C402.296 185.595 407.296 185.251 412.171 184.756C415.485 184.42 419.223 183.356 422.494 183.356C427.046 183.356 432.541 181.662 437.05 180.737C442.312 179.657 448.677 180.615 454.042 180.615C455.713 180.615 465.9 179.962 462.173 177.539C460.577 176.502 459.876 175.378 458.092 175.103C453.118 174.338 448.173 173.449 443.141 173.002C434.776 172.258 426.795 168.139 418.414 166.942C414.107 166.327 409.356 165.897 405.015 165.815C402.206 165.762 398.86 165.253 397.037 167.886C394.591 171.419 394.779 176.299 392.895 180.067C392.456 180.947 391.845 181.77 391.251 182.533C390.988 182.871 388.992 184.568 389.15 184.726C390.812 186.388 400.229 182.868 402.396 182.381C405.192 181.753 407.72 180.02 410.192 178.849C411.464 178.246 412.394 177.958 413.755 177.6C415.049 177.26 418.024 177.26 418.932 176.504C419.527 176.008 420.595 176.23 421.337 176.23C424.142 176.23 415.749 176.801 412.994 177.326C410.362 177.827 407.635 178.422 404.954 178.422C403.344 178.422 401.688 178.537 400.082 178.422C396.372 178.157 407.51 178 411.227 177.874C435.665 177.046 459.976 176.23 484.433 176.23C489.826 176.23 493.756 177.215 498.745 178.97C503.311 180.577 506.786 183.803 511.048 185.974C521.558 191.328 532.506 191.029 543.966 191.029C548.393 191.029 552.781 192.126 557.091 192.126C557.84 192.126 561.346 192.915 560.501 193.252C556.879 194.701 553.292 195.828 549.539 195.962C547.744 196.027 544.179 196.511 544.179 196.511C544.179 196.511 549.309 195.962 551.884 195.962C553.732 195.962 556.796 196.088 558.309 194.988C558.935 194.532 561.538 194.026 562.329 193.8C564.489 193.183 566.337 191.585 568.419 191.029C573.675 189.628 578.182 186.96 583.097 184.726C584.673 184.009 586.914 183.176 588.212 182.137C589.888 180.797 592.439 179.209 588.639 181.163C587.46 181.769 583.626 183.211 582.853 184.178C582.176 185.024 579.315 186.913 578.194 187.162C575.449 187.772 572.906 190.697 570.246 191.029C567.101 191.422 563.913 193.222 560.38 193.222C558.691 193.222 556.895 194.318 555.172 194.318C554.221 194.318 553.489 194.866 552.493 194.866C551.059 194.866 555.356 194.599 556.756 194.288C559.628 193.649 562.992 191.746 565.861 191.577C567.203 191.499 568.75 190.869 570.002 190.512C570.536 190.359 566.429 192.316 565.069 192.704C563.805 193.065 562.908 194.318 561.476 194.318C560.756 194.318 563.018 194.358 563.333 194.288C564.363 194.059 565.269 193.354 566.409 193.191C569.582 192.738 572.926 190.908 575.727 189.507C580.479 187.131 586.113 186.782 590.801 184.178C595.48 181.578 600.778 180.358 605.326 177.326" stroke="black" stroke-width="10" stroke-linecap="round"/>
<path fill-rule="evenodd" clip-rule="evenodd" d="M516.587 463.927C509.864 461.184 503.866 456.61 499.481 450.766C497.957 448.735 497.561 446.59 497.881 444.628C498.241 442.422 499.546 440.422 501.326 439.081C503.112 437.736 505.345 437.072 507.504 437.41C509.381 437.704 511.248 438.732 512.727 440.862L513.035 441.288C515.642 444.815 519.04 447.709 522.91 449.574C526.641 451.372 530.814 452.211 535.132 451.723C543.356 450.794 549.024 446.347 555.049 440.307C555.796 439.544 556.543 438.758 557.294 437.959C557.768 437.235 558.426 436.769 559.157 436.525C559.968 436.253 560.886 436.269 561.726 436.562C562.537 436.845 563.262 437.381 563.747 438.095C564.209 438.773 564.471 439.611 564.386 440.574C563.835 446.834 560.562 452.42 555.914 456.806C550.752 461.677 543.909 465.047 537.466 466.229C530.368 467.531 523.136 466.598 516.587 463.927V463.927ZM540.814 367.367C548.366 371.957 559.872 382.661 551.748 394.04C542.186 404.073 528.418 392.569 521.634 387.366C515.343 383.334 508.275 393.705 514.112 398.413C563.136 434.708 583.031 368.568 544.634 361.971C540.406 361.244 538.836 365.947 540.814 367.367ZM452.963 325.147C453.798 314.79 469.57 312.439 471.139 322.687C472.544 331.867 470.89 340.3 466.755 348.565C462.804 356.461 452.874 352.777 452.123 345.587C451.116 335.949 452.444 331.589 452.963 325.147ZM573.027 320.562C575.226 317.682 578.401 315.716 582.205 316.827C594.09 320.3 590.587 337.173 586.413 345.386C584.145 349.846 576.814 350.977 573.501 347.05C568.101 340.646 565.515 327.857 572.38 321.549C572.566 321.223 572.773 320.894 573.027 320.562ZM466.588 279.831L468.465 279.502C474.273 278.498 481.494 277.533 485.603 282.202C487.782 284.678 488.532 289.28 485.603 291.65C480.451 295.82 474.755 294.204 468.581 294.557C463.493 294.849 458.603 295.691 453.702 297.092C442.95 300.165 434.189 305.775 425.006 311.935C423.801 312.743 422.571 311.202 423.146 310.075C428.447 299.692 438.72 291.163 449.01 285.964C454.502 283.189 460.512 280.887 466.588 279.831ZM562.193 275.18L563.63 275.474C579.267 278.742 599.583 285.272 606.988 300.631C607.271 302.803 606.972 303.268 606.73 303.573L606.649 303.674C606.45 303.933 606.29 304.291 605.349 304.587C605.087 304.525 604.824 304.459 604.557 304.389C601.163 303.499 598.477 302.274 595.877 301.002L593.058 299.614C589.788 298.01 586.488 296.465 582.992 295.324C575.53 292.89 567.854 291.176 560.06 290.26C558.37 290.062 556.744 289.492 555.46 288.514C554.242 287.587 553.311 286.303 552.887 284.596C552.337 282.387 552.495 280.714 553.68 278.721C554.572 277.225 555.847 276.187 557.311 275.592C558.804 274.984 560.503 274.841 562.193 275.18Z" fill="black"/>
</svg>
