<svg width="503" height="598" viewBox="0 0 503 598" fill="none" xmlns="http://www.w3.org/2000/svg">
<path fill-rule="evenodd" clip-rule="evenodd" d="M382.419 82.0239C328.95 66.3309 145.066 82.4169 140.519 85.8159C133.078 91.9989 96.8834 111.617 91.2514 116.096C40.3264 170.07 88.8741 250.223 85.1381 315.335C85.3761 338.431 75.5341 359.519 71.0101 381.738C69.1001 393.382 69.5211 405.426 75.5901 415.88C86.2601 434.56 108.793 438.347 127.119 445.879C136.238 449.805 144.758 455.372 152.568 461.463C205.152 507.98 234.422 539.834 311.149 529.34C311.541 533.003 314.786 536.602 318.809 534.965C328.229 531.129 337.582 527.06 347.084 523.424C349.115 528.318 354.949 529.715 358.901 525.393L358.924 525.424C376.513 511.156 387.699 491.647 396.007 470.762C401.821 458.713 406.582 446.141 410.22 433.195C410.631 431.73 410.577 430.421 410.205 429.294C426.991 371.451 433.203 310.487 428.784 250.43C427.889 238.039 425.549 225.484 426.124 213.041C426.644 201.799 431.487 191.165 435.179 180.695C454.217 136.186 425.115 96.0379 382.419 82.0239Z" fill="white"/>
<path fill-rule="evenodd" clip-rule="evenodd" d="M389.145 9.75628L389.715 9.3144C395.88 4.47796 401.692 -1.86059 410.385 0.516278C417.515 2.46628 421.115 8.36628 422.645 15.4963C424.815 13.2263 426.925 10.8763 428.985 8.44628C434.585 1.84628 447.095 5.26628 448.765 13.6763C452.145 30.6163 452.315 47.8563 449.025 64.8263C448.525 67.3963 447.935 69.9563 447.245 72.4863C450.995 67.8163 454.485 62.9463 457.615 57.8163C461.005 52.2463 468.665 55.0063 469.195 60.9563C469.335 62.4963 469.415 64.0563 469.435 65.6263C471.825 66.4663 473.475 68.9263 472.845 71.9463C469.365 88.5663 464.955 104.956 459.655 121.066C468.175 116.546 477.725 113.866 486.715 117.056C500.995 122.136 504.395 137.716 501.605 151.126C498.095 167.986 487.055 182.096 472.815 191.346C471.125 193.886 469.455 196.446 467.865 199.056C467.835 206.426 466.495 213.776 463.795 220.606C460.755 228.276 455.395 234.906 448.795 239.946C446.475 244.998 440.331 248.687 434.938 247.664L434.655 247.606L434.645 247.616C436.025 252.556 437.215 257.546 438.245 262.546C446.22 301.284 442.182 341.608 434.908 380.128L434.675 381.356C428.145 415.636 420.545 451.136 405.775 482.966C392.415 511.746 369.765 537.056 337.395 543.336C299.315 550.726 257.165 539.016 224.415 519.486C212.545 512.406 223.425 493.746 235.245 500.946C252.305 511.326 270.835 518.576 290.435 522.396C308.755 525.956 329.245 527.166 346.815 519.786C371.285 509.506 385.825 484.396 395.025 460.756C400.445 446.806 404.505 432.406 408.285 417.946C413.155 399.356 417.695 380.646 421.105 361.726C427.455 326.436 429.515 289.786 422.795 254.396C420.655 243.106 417.625 231.746 413.675 220.826C413.055 220.056 412.465 219.196 411.935 218.256C407.805 211.016 404.955 202.786 401.885 194.956C399.195 190.286 396.255 185.796 393.135 181.406C388.47 177.821 384.027 173.988 379.957 169.806C391.778 162.152 402.209 152.57 409.714 140.364C410.952 138.351 410.166 136.427 408.699 135.342C402.706 142.839 394.948 149.188 386.788 154.813C382.608 158.393 378.106 161.609 373.388 164.515C370.017 165.182 366.609 165.64 363.305 166.016C353.895 167.086 344.435 166.686 335.075 165.436C314.835 162.736 229.237 139.162 193.155 148.326C185.639 150.235 182.095 156.976 178.115 163.306C174.662 168.812 170.271 173.37 165.004 177.123L164.415 177.536C154.115 184.666 133.406 207.222 124.701 227.354C113.461 253.346 102.665 331.236 107.635 331.906C120.635 333.666 127.835 340.506 138.425 347.846C139.125 348.326 138.715 349.626 137.815 349.296C130.825 346.776 123.265 345.286 115.935 344.066C109.305 342.956 102.325 342.756 95.9246 345.126C86.1046 348.766 81.3146 356.996 79.3446 366.276C78.5746 369.906 78.2346 373.696 78.1946 377.446L78.189 378.534C78.1942 390.357 80.3988 403.465 88.9846 412.186C92.6346 415.896 97.5846 418.396 102.765 419.086C108.435 419.846 111.935 417.286 117.145 415.956C123.145 414.426 127.825 418.376 127.265 423.526C128.535 424.636 129.765 425.806 130.985 426.996L130.986 427.001L130.995 427.006C131.795 427.366 132.555 427.846 133.245 428.426C134.375 429.386 135.325 430.436 136.085 431.566C137.775 431.896 139.395 432.836 140.725 434.556C143.465 438.086 145.995 441.656 148.345 445.296C152.555 449.766 156.745 454.246 160.875 458.796C165.846 464.265 170.685 469.858 175.556 475.419L177.995 478.196C180.625 481.186 183.245 484.176 185.865 487.176L186.646 488.057C189.282 491.009 191.302 493.187 191.585 497.436C191.785 500.586 188.395 502.726 185.585 502.006C181.252 500.889 179.241 497.488 176.645 494.114L172.725 489.085V489.085L169.035 484.346C167.205 481.986 165.355 479.636 163.515 477.286C162.965 481.616 158.385 485.106 154.205 485.296L153.23 485.334C143.414 485.66 131.486 484.276 124.015 477.356C120.655 480.746 116.475 483.416 111.325 485.016C99.6246 488.656 87.6646 482.206 82.9346 472.396C73.7646 476.326 63.4046 477.116 53.4946 474.226C47.7787 472.551 45.8019 465.427 49.785 461.067L49.9646 460.876L50.0106 460.824C49.1886 459.755 48.7366 458.447 48.6636 457.022C48.5746 455.292 49.8356 453.458 49.5756 451.843C48.5836 445.684 38.5396 450.247 35.3476 451.581C34.7376 451.835 34.1656 451.956 33.6316 451.975C28.6966 453.412 23.3296 446.928 25.9146 441.576C31.7046 429.616 37.3546 417.566 43.2146 405.626C42.4746 405.876 41.7146 406.106 40.9646 406.296C30.4346 408.996 17.6646 403.816 20.0946 391.126C20.6546 388.146 23.3546 386.106 26.0346 385.186C31.2546 383.386 35.1746 384.686 39.1946 383.006C43.7246 381.126 48.4546 377.676 52.4346 374.426C56.6846 370.966 60.3546 367.076 63.6046 362.856C64.9046 356.726 67.1546 350.866 70.7546 345.826C70.9746 345.526 71.1946 345.226 71.4246 344.936C48.3378 339.432 51.3609 316.727 41.1773 296.605L40.3169 294.937C33.4004 281.478 27.3664 266.303 30.8546 250.976C31.4746 248.266 32.3746 245.676 33.5346 243.256C31.6846 243.486 29.8246 243.696 27.9746 243.906C23.7246 244.386 19.4046 238.906 21.0946 234.876C21.9846 232.766 22.9646 230.726 24.0246 228.746C26.9646 223.286 30.5746 218.326 34.8246 213.846C27.6846 213.656 20.5346 213.656 13.4746 212.836C6.80462 212.066 -0.205383 208.416 1.26339e-05 200.726C0.206617 193.394 6.63962 187.844 12.6046 184.267C18.4756 176.458 25.9226 169.968 34.3456 165.145C32.6793 164.771 30.991 164.493 29.275 164.323L28.4146 164.246C23.6046 163.866 19.2846 162.546 14.9246 160.536C11.0246 158.736 11.0846 153.276 13.6346 150.526C21.8786 141.614 34.2306 144.516 43.8416 149.623C43.1725 148.774 42.4394 147.956 41.6407 147.174L41.1536 146.708C36.4316 142.311 43.5186 135.255 48.2246 139.637C49.7116 141.022 51.0436 142.527 52.2316 144.122L52.3446 143.886V143.886C58.5623 131.275 67.6563 119.986 78.4156 110.941L80.9443 108.838C100.346 92.6315 106.333 84.9501 132.135 87.3363C131.035 82.6493 131.142 77.3768 131.39 73.0415L131.425 72.4563C132.415 56.1563 138.425 36.6463 154.325 29.3263C158.455 27.4363 163.135 30.5263 162.035 35.2563C161.265 38.6063 160.325 41.8663 159.155 45.0363C162.625 41.3863 166.345 37.9763 170.285 34.8363C186.345 22.0363 207.805 11.0263 228.915 14.6263C240.515 16.6163 249.615 23.8963 259.325 29.9763C269.085 36.0963 279.985 39.7263 291.415 41.0363C307.385 42.8763 323.415 41.0263 339.205 38.1063C350.055 33.3763 360.585 27.8363 370.865 21.8663C377.185 18.1963 383.335 14.1863 389.145 9.75628ZM105.605 363.786C108.985 362.916 112.775 362.926 116.165 363.776C124.915 365.976 133.055 373.296 133.565 382.526C133.795 386.696 130.435 390.686 126.535 391.756C122.115 392.976 118.315 390.816 115.735 387.356C112.965 383.656 112.275 379.646 108.885 376.286L108.104 375.525C105.222 372.769 100.864 369.207 96.8651 369.846C96.2751 369.936 95.8351 369.136 96.4351 368.816C99.6951 367.036 101.835 364.746 105.605 363.786ZM151.055 320.316C152.598 319.056 154.637 320.534 153.911 322.346L153.855 322.476C152.025 326.336 154.175 330.866 156.395 334.096C158.305 336.886 154.695 339.536 152.155 338.336C145.015 334.946 145.385 324.916 151.055 320.316ZM177.155 204.346C177.025 203.406 178.275 203.016 178.595 203.946C183.925 219.416 185.455 233.116 184.585 249.476L184.503 250.928C183.561 266.686 180.801 283.364 171.265 296.306C169.055 299.296 164.535 297.536 165.265 293.776C168.195 278.726 173.825 264.436 176.015 249.206C178.305 233.286 179.335 220.276 177.155 204.346ZM127.375 260.576C128.155 256.446 134.505 252.196 137.715 256.346C138.795 257.756 137.525 259.486 136.225 260.006C135.005 260.486 133.915 259.826 132.715 260.066C131.744 260.262 131.035 260.868 130.563 261.695L130.465 261.876C129.525 263.676 127.045 262.336 127.375 260.576ZM124.775 227.676C127.055 223.456 132.305 220.766 136.795 223.396C138.275 224.266 137.695 226.796 135.895 226.716L134.829 226.673C131.627 226.556 128.426 226.621 125.735 228.646C125.135 229.096 124.475 228.246 124.775 227.676ZM132.792 112.428C120.003 106.678 107.284 111.869 96.8406 119.965C95.9766 120.635 95.5576 121.417 95.4656 122.203C102.438 119.488 109.861 117.708 116.957 116.239C122.759 115.037 128.616 114.226 134.48 113.906C134.152 113.317 133.613 112.797 132.792 112.428Z" fill="black"/>
<path d="M132.597 116.427C132.597 113.871 131.437 114.014 129.06 114.363C127.913 114.532 120.592 115.837 122.577 115.837C123.659 115.837 126.685 114.034 123.985 115.28C122.937 115.764 117.14 118.85 121.267 117.016C122.652 116.4 128.884 113.995 127.292 112.006C125.986 110.373 123.256 111.486 121.594 111.842C118.778 112.446 115.392 114.286 113.768 116.721C112.355 118.841 112.997 121.221 115.896 120.782C118.981 120.314 127.882 117.834 127.882 113.479C127.882 111.285 110.185 115.44 108.627 116.099C105.636 117.364 113.146 115.446 113.146 112.89C113.146 112.014 110.866 114.581 110.657 114.789C108.255 117.191 105.628 119.651 103.486 122.288C101.371 124.891 105.607 117.494 105.942 116.558C107.372 112.551 98.2189 120.108 97.231 120.88C95.6766 122.094 94.2997 123.484 92.9085 124.875C91.4329 126.351 96.2154 122.281 97.5585 120.684C98.5908 119.456 99.8772 117.43 98.2789 120.094C96.706 122.716 95.1527 125.447 94.1529 128.346C93.7084 129.635 100.702 121.109 100.702 121.469C100.702 123.315 98.9565 126.243 98.4099 128.084C97.6478 130.651 96.5051 133.053 95.9212 135.681C95.3371 138.31 95.3765 136.309 95.5282 134.83C96.1397 128.868 97.996 123.035 98.6719 117.049C98.958 114.514 99.4932 110.603 98.2789 108.174C97.6033 106.823 93.8294 114.688 93.6289 115.051C89.2989 122.906 84.9078 130.757 80.9233 138.792C79.422 141.82 77.5462 145.026 76.9938 148.42C76.8814 149.11 76.4964 151.079 77.616 149.893C82.2626 144.973 88.7104 141.147 94.0874 137.057C102.256 130.844 110.56 124.419 119.433 119.243C120.402 118.678 123.894 115.951 125.164 116.459C125.609 116.638 122.562 126.106 122.347 126.938C120.829 132.835 119.13 139.939 119.662 146.062C119.934 149.193 126.264 142.707 126.801 142.198C133.883 135.484 141.02 128.685 147.595 121.469C151.681 116.986 155.715 111.188 160.3 107.258C162.71 105.192 157.437 112.927 155.847 115.673C152.687 121.132 149.322 127.139 147.497 133.225C146.803 135.537 148.596 133.233 149.101 132.669C152.825 128.509 156.429 124.232 160.104 120.029C167.156 111.964 174.126 103.941 180.079 95.0104C181.895 92.2865 181.747 92.3259 180.865 95.6653C180.265 97.9386 176.647 106.317 178.016 108.371C178.181 108.619 178.364 107.873 178.442 107.585C179.362 104.186 180.258 100.744 180.996 97.3027C182.44 90.5733 184.646 81.7118 183.747 74.7732C182.88 68.0857 176.87 100.542 176.87 93.7988C176.87 88.2986 177.827 82.9147 178.769 77.5239C178.994 76.2382 180.524 69.0252 178.9 74.3147C176.725 81.4009 174.379 88.501 172.482 95.6653C171.674 98.7166 172.906 95.1694 173.857 94.028" stroke="black" stroke-width="10" stroke-linecap="round"/>
<path d="M363.489 160.243C363.668 161.677 367.571 163.897 368.798 164.247C372.609 165.336 372.404 163.864 369.158 163.482C367.762 163.318 363.567 162.176 362.274 161.458C360.622 160.54 359.578 161.834 361.465 162.673C363.136 163.415 364.642 163.357 366.369 163.932C371.49 165.639 381.643 164.106 385.355 168.747C386.73 170.464 389.331 170.55 390.844 171.761C391.647 172.403 398.634 174.374 397.323 172.571C395.088 169.498 394.135 167.085 390.664 165.102C388.901 164.095 386.195 162.859 384.725 161.683C382.454 159.866 391.99 154.788 393.859 153.359C397.307 150.722 402.619 146.679 404.792 142.876C406.402 140.058 412.193 131.974 405.242 136.397C397.855 141.098 386.453 139.187 378.067 139.187" stroke="black" stroke-width="10" stroke-linecap="round"/>
<path d="M104.289 330.09C105.384 327.17 122.068 332.961 124.878 333.117C128.9 333.341 134.243 336.367 136.249 339.779C136.745 340.621 137.376 341.646 138.066 342.335C138.441 342.71 138.192 340.896 138.201 340.519C138.256 337.976 139.017 335.507 139.277 332.983C140.025 325.73 143.006 319.201 144.122 312.057C147.282 291.834 151.73 271.741 155.459 251.602C157.755 239.202 161.469 227.137 163.937 214.797C165.16 208.681 166.552 201.755 168.782 195.957C169.185 194.909 175.027 174.655 171.507 174.46C165.519 174.127 158.809 178.337 155.627 183.543C149.176 194.1 139.933 202.889 133.356 213.485C121.178 233.106 114.625 253.846 109.403 276.228C107.074 286.209 107.317 296.214 107.317 306.439C107.317 309.983 107.317 313.526 107.317 317.07C107.317 320.601 108.675 321.475 111.556 322.688C113.966 323.703 118.163 322.726 120.774 322.823C122.633 322.892 127.78 323.328 129.252 324.505C136.624 330.403 138.054 303.221 139.109 299.845C140.44 295.585 141.276 291.123 142.44 286.758C144.799 277.91 145.621 268.935 147.62 260.08C150.199 248.66 150.438 236.705 153.811 225.462C155.98 218.232 156.452 210.821 158.655 203.661C159.745 200.119 160.717 196.544 161.683 192.896C162.086 191.374 162.937 189.99 163.029 188.388C163.125 186.71 165.389 183.253 164.711 181.727C161.502 174.507 150.03 195.015 149.033 196.664C145.798 202.017 145.062 206.83 143.18 212.476C140.186 221.457 138.86 231.004 135.913 240.063C131.565 253.429 126.65 266.735 122.826 280.265C120.044 290.11 117.457 300.199 115.492 310.241C114.921 313.159 114.852 316.384 113.978 319.223C113.372 321.194 113.373 315.129 113.373 313.067C113.373 303.743 113.437 294.189 114.315 284.908C115.736 269.879 120.198 255.65 123.936 241.139C126.534 231.055 127.806 220.716 131.068 210.928C132.696 206.045 132.487 215.839 132.481 216.715C132.383 233.335 127.061 249.698 123.331 265.765C122.392 269.809 121.386 273.823 120.505 277.877C120.199 279.283 120.246 278.776 120.505 277.742C122.65 269.162 124.992 260.819 127.906 252.443C130.268 245.652 131.289 238.333 133.962 231.652C136.082 226.351 132.43 243.022 130.732 248.473C126.936 260.658 123.008 272.898 120.505 285.413C119.542 290.228 118.217 295.205 118.217 300.148C118.217 307.08 114.603 316.767 124.575 316.767C126.339 316.767 125.436 317.421 126.998 315.859C128.048 314.808 128.777 314.487 129.454 313.134C131.461 309.118 132.145 305.214 132.145 300.72C132.145 299.509 132.145 298.298 132.145 297.086C132.145 294.212 131.234 298.384 130.9 299.273C129.475 303.073 128.256 306.991 126.661 310.712C126.595 310.867 124.53 315.775 124.306 314.547C122.731 305.885 123.615 298.316 127.94 290.964C130.093 287.302 131.724 283.746 133.356 279.828C133.654 279.113 133.962 276.847 133.962 278.785C133.962 283.01 133.401 287.165 132.751 291.334C132.311 294.154 131.698 302.662 131.539 299.811C131.329 296.016 132.192 292.578 132.616 288.844C133.406 281.894 134.435 274.565 136.518 267.851C137.716 263.994 137.548 259.946 138.672 256.076C139.919 251.779 140.712 246.651 141.262 242.249C141.879 237.31 143.714 232.324 144.862 227.447C145.897 223.049 146.083 218.032 147.587 213.821C149.733 207.813 149.803 200.959 153.34 195.655" stroke="black" stroke-width="10" stroke-linecap="round"/>
<path d="M108.528 330.695C109.437 330.808 112.246 332.777 113.372 333.252C115.125 333.99 117.499 335.438 119.428 335.539C122.41 335.696 126.85 338.991 128.982 341.124C130.308 342.449 130.84 342.563 131.674 341.729C132.607 340.797 135.398 343.522 135.644 343.277C136.745 342.175 135.324 335.951 135.038 334.665C134.578 332.594 134.24 330.041 133.356 328.272" stroke="black" stroke-width="10" stroke-linecap="round"/>
<path d="M178.341 205.242C178.519 210.039 180.439 214.617 180.439 219.504C180.439 221.823 180.439 224.141 180.439 226.46C180.439 231.484 179.108 236.498 178.419 241.461C177.799 245.92 176.893 250.424 175.543 254.712C174.642 257.573 174.244 260.592 173.289 263.456C172.329 266.337 171.256 269.166 170.297 272.045C169.174 275.412 167.894 278.695 166.993 282.149C166.353 284.605 165.651 287.189 164.778 289.571C164.26 290.986 164.082 292.716 163.301 294.001C162.587 295.178 162.841 296.685 162.33 297.926C161.924 298.911 164.475 297.507 165.361 296.916C167.45 295.524 169.88 294.331 171.423 292.33C174.473 288.377 175.949 283.974 177.214 279.195C178.088 275.892 179.333 272.629 180.284 269.324C181.794 264.079 182.228 259.003 182.81 253.624C183.502 247.223 183.937 240.763 183.937 234.33C183.937 232.532 184.287 237.914 184.287 239.712C184.287 243.491 183.639 247.448 183.063 251.176C180.651 266.772 174.861 281.769 168.392 296.1C166.506 300.279 164.006 304.539 162.621 308.924C162.43 309.53 161.902 310.454 161.902 311.042C161.902 313.145 160.775 315.103 160.154 317.124C160.036 317.506 157.466 321.62 157.006 320.816C156.345 319.659 156.533 318.297 155.413 319.417C154.68 320.149 154.212 320.385 153.878 321.554C153.513 322.829 153.159 323.659 153.159 325.032C153.159 327.933 153.259 330.642 153.878 333.426C154.125 334.539 155.108 335.036 154.888 336.244C154.355 339.175 152.611 336.743 151.934 335.525C150.99 333.825 149.159 330.016 151.235 328.355C152.571 327.286 153.934 326.293 155.374 325.246C156.827 324.189 158.172 323.012 159.707 322.021C163.541 319.543 167.616 317.451 171.657 315.336C185.013 308.346 198.297 301.232 211.567 294.079" stroke="white" stroke-width="10" stroke-linecap="round"/>
<path d="M146.637 303.555C147.877 303.4 150.464 299.294 150.996 298.17C152.012 296.026 153.321 293.892 154.444 291.759C158.287 284.457 159.537 275.852 162.764 268.225C166.85 258.565 168.179 247.339 170.855 237.169C172.109 232.406 173.552 226.742 175.585 222.296C177.725 217.615 179.327 211.887 183.05 208.164C186.804 204.41 189.523 200.29 194.076 197.138C200.284 192.84 206.867 190.637 213.593 187.365C216.694 185.856 220.66 184.886 224.078 184.601C231.129 184.014 238.09 182.228 245.219 182.008C250.591 181.843 255.879 180.983 261.289 180.983C264.888 180.983 269.133 180.514 272.571 181.78C281.538 185.084 291.788 185.139 300.522 188.96C305.741 191.244 311.394 194.626 317.304 194.83C321.701 194.981 326.031 195.855 330.495 195.855C335.307 195.855 340.131 195.958 344.941 195.855C350.673 195.734 357.014 193.682 362.321 191.753C366.932 190.076 372.178 188.809 376.168 185.883C381.131 182.244 386.691 178.735 391.781 175.341" stroke="black" stroke-width="10" stroke-linecap="round"/>
<path d="M381.468 171.845C380.984 174.264 377.243 175.724 375.408 176.808C372.116 178.754 368.65 179.381 365.176 180.828C360.731 182.68 374.353 177.9 378.971 176.534C383.952 175.062 388.986 173.769 393.923 172.149C394.924 171.821 397.777 170.438 396.816 170.87C392.349 172.88 387.603 173.994 382.899 175.377C377.185 177.058 371.263 179.128 365.359 180.036C364.384 180.186 362.871 180.271 362.009 179.793C359.76 178.543 355.187 179.519 352.722 179.519C349.519 179.519 346.331 179.715 343.221 180.493C339.648 181.386 334.441 179.802 330.979 179.092C325.056 177.879 318.868 176.902 313.195 174.859C308.766 173.265 303.982 172.786 299.37 171.967C288.988 170.122 278.289 168.857 268.127 166.059C264.45 165.046 261.057 163.476 257.286 162.527C251.363 161.035 245.34 160.025 239.441 158.446C233.53 156.863 227.589 154.002 221.688 152.691C217.179 151.689 212.422 151.56 207.832 150.894C201.46 149.969 182.152 150.623 188.526 151.534C200.016 153.175 211.736 154.167 223.302 155.279C232.233 156.138 241.418 156.898 250.404 157.045C263.207 157.255 275.902 160.035 288.469 162.252C299.76 164.245 310.375 168.541 321.448 171.266C332.574 174.005 343.217 175.946 354.67 176.656C363.314 177.192 371.986 177.326 380.646 177.326C381.473 177.326 382.564 177.366 382.564 176.23C382.564 174.061 378.655 173.365 377.205 172.941C370.807 171.071 364.197 170.574 357.655 170.2C348.015 169.65 338.283 166.548 328.665 165.237C316.852 163.626 305.581 160.443 293.95 158.02C268.948 152.811 243.413 147.727 217.851 147.727C211.052 147.727 204.635 149.546 198.819 153.208C195.27 155.443 190.951 156.956 187.704 159.481C185.836 160.934 183.623 161.177 182.131 163.166C180.782 164.965 178.527 166.877 177.685 168.982C176.731 171.369 178.283 166.635 178.416 166.181C179.33 163.062 181.031 160.385 183.045 157.867C183.298 157.551 184.426 156.528 184.019 156.071C183.086 155.021 177.927 161.049 177.381 161.613C173.852 165.254 169.342 171.095 169.342 176.473C169.342 179.008 169.483 181.183 169.859 183.63C170.645 188.738 167.264 195.017 166.053 199.799C164.454 206.109 162.439 212.364 160.267 218.497C157.359 226.706 153.994 236.477 153.994 245.294C153.994 250.698 153.446 256.157 153.446 261.464C153.446 263.22 153.446 264.976 153.446 266.732C153.446 269.012 153.602 268.898 155.212 267.524C158.261 264.921 160.571 261.542 160.571 257.475C160.571 254.845 160.821 251.793 161.15 249.162C161.731 244.515 163.309 238.084 165.231 233.814C170.724 221.606 173.434 207.801 176.589 194.866C177.909 189.455 178.875 183.883 180 178.422C180.585 175.581 180.672 171.706 183.593 170.322C186.102 169.134 188.592 168.858 191.297 169.378C200.967 171.238 210.653 173.042 220.348 174.859C232.923 177.217 245.602 178.496 258.2 180.615C270.989 182.766 284.155 181.819 296.995 184.025C305.866 185.55 314.357 187.173 323.092 188.837C335.485 191.197 347.364 192.674 360.03 192.674C362.725 192.674 368.041 192.054 369.835 189.811C371.331 187.941 361.99 186.589 361.37 186.522C349.656 185.273 337.728 187.147 326.107 184.726C322.546 183.984 318.975 183.281 315.449 182.381C312.944 181.742 310.347 181.886 307.897 181.041C301.693 178.902 294.824 177.391 288.347 176.23C277.127 174.219 266.29 169.904 255.154 167.46C244.753 165.177 234.763 161.664 224.124 160.334C216.787 159.417 209.784 158.142 202.351 158.142C196.652 158.142 192.612 165.233 189.896 169.378C187.169 173.54 186.648 177.783 185.116 182.381C183.502 187.222 181.433 191.936 179.208 196.511C178.453 198.063 176.528 201.57 176.528 203.271C176.528 203.848 177.259 202.378 177.624 201.931C178.833 200.454 179.942 198.895 181.157 197.424C182.406 195.912 184.368 194.474 185.907 193.222C190.383 189.579 194.834 187.339 200.463 186.401C205.296 185.595 210.296 185.251 215.171 184.756C218.485 184.42 222.223 183.356 225.494 183.356C230.046 183.356 235.541 181.662 240.05 180.737C245.312 179.657 251.677 180.615 257.042 180.615C258.713 180.615 268.9 179.962 265.173 177.539C263.577 176.502 262.876 175.378 261.092 175.103C256.118 174.338 251.173 173.449 246.141 173.002C237.776 172.258 229.795 168.139 221.414 166.942C217.107 166.327 212.356 165.897 208.015 165.815C205.206 165.762 201.86 165.253 200.037 167.886C197.591 171.419 197.779 176.299 195.895 180.067C195.456 180.947 194.845 181.77 194.251 182.533C193.988 182.871 191.992 184.568 192.15 184.726C193.812 186.388 203.229 182.868 205.396 182.381C208.192 181.753 210.72 180.02 213.192 178.849C214.464 178.246 215.394 177.958 216.755 177.6C218.049 177.26 221.024 177.26 221.932 176.504C222.527 176.008 223.595 176.23 224.337 176.23C227.142 176.23 218.749 176.801 215.994 177.326C213.362 177.827 210.635 178.422 207.954 178.422C206.344 178.422 204.688 178.537 203.082 178.422C199.372 178.157 210.51 178 214.227 177.874C238.665 177.046 262.976 176.23 287.433 176.23C292.826 176.23 296.756 177.215 301.745 178.97C306.311 180.577 309.786 183.803 314.048 185.974C324.558 191.328 335.506 191.029 346.966 191.029C351.393 191.029 355.781 192.126 360.091 192.126C360.84 192.126 364.346 192.915 363.501 193.252C359.879 194.701 356.292 195.828 352.539 195.962C350.744 196.027 347.179 196.511 347.179 196.511C347.179 196.511 352.309 195.962 354.884 195.962C356.732 195.962 359.796 196.088 361.309 194.988C361.935 194.532 364.538 194.026 365.329 193.8C367.489 193.183 369.337 191.585 371.419 191.029C376.675 189.628 381.182 186.96 386.097 184.726C387.673 184.009 389.914 183.176 391.212 182.137C392.888 180.797 395.439 179.209 391.639 181.163C390.46 181.769 386.626 183.211 385.853 184.178C385.176 185.024 382.315 186.913 381.194 187.162C378.449 187.772 375.906 190.697 373.246 191.029C370.101 191.422 366.913 193.222 363.38 193.222C361.691 193.222 359.895 194.318 358.172 194.318C357.221 194.318 356.489 194.866 355.493 194.866C354.059 194.866 358.356 194.599 359.756 194.288C362.628 193.649 365.992 191.746 368.861 191.577C370.203 191.499 371.75 190.869 373.002 190.512C373.536 190.359 369.429 192.316 368.069 192.704C366.805 193.065 365.908 194.318 364.476 194.318C363.756 194.318 366.018 194.358 366.333 194.288C367.363 194.059 368.269 193.354 369.409 193.191C372.582 192.738 375.926 190.908 378.727 189.507C383.479 187.131 389.113 186.782 393.801 184.178C398.48 181.578 403.778 180.358 408.326 177.326" stroke="black" stroke-width="10" stroke-linecap="round"/>
<path fill-rule="evenodd" clip-rule="evenodd" d="M336.06 434.111C342.38 432.638 347.344 437.99 346.102 444.153C344.787 450.677 337.772 452.913 331.89 452.708C325.221 452.477 318.557 451.1 311.855 450.823C304.97 450.539 298.059 450.487 291.17 450.673C284.798 450.845 278.258 451.968 271.936 450.96C269.474 450.567 269.707 447.317 271.309 446.162C276.065 442.732 282.229 441.334 287.835 439.895C293.551 438.427 299.394 437.303 305.256 436.617C311.199 435.922 317.191 435.575 323.173 435.507C325.896 435.476 329.235 436.081 331.89 435.591C333.243 435.34 334.621 434.447 336.06 434.111ZM317.814 349.367C325.366 353.957 336.872 364.66 328.748 376.04C319.186 386.073 305.419 374.569 298.634 369.366C292.344 365.334 285.276 375.705 291.112 380.413C340.136 416.708 360.031 350.567 321.634 343.97C317.406 343.243 315.836 347.947 317.814 349.367ZM263.059 315.092C273.16 313.412 274.927 327.812 264.916 328.818C262.815 329.029 260.726 329.213 258.641 329.396C258.844 330.048 258.979 330.719 259.053 331.409C259.148 331.995 259.219 332.617 259.282 333.328C259.599 336.871 257.087 340.555 254.152 342.273C251.102 344.058 246.724 344.296 243.695 342.273C242.133 341.229 240.573 340.052 239.712 338.326C238.557 336.553 237.927 334.501 237.863 332.395C233.258 333.591 228.569 335.208 223.918 336.065C224.089 336.233 224.257 336.412 224.42 336.609C224.544 336.76 224.374 337.043 224.193 336.904L221.86 336.387V336.387C221.142 336.481 220.424 336.558 219.708 336.603L219.725 336.54V336.54C218.528 336.519 217.548 335.104 218.619 333.972C222.729 329.628 229.14 326.742 234.986 324.328L240.618 322.019C247.82 319.092 255.423 316.362 263.059 315.092ZM344.32 319.546C350.936 318.791 357.487 319.091 364.114 319.495C375.267 320.174 370.589 336.438 361.637 332.683C361.729 333.278 361.753 333.874 361.684 334.429C361.334 337.288 360.402 339.704 357.778 341.24C355.341 342.666 352.252 342.662 349.815 341.24C347.205 339.718 346.028 337.573 345.362 334.786C344.846 332.625 345.053 330.817 345.351 328.677C345.45 327.968 345.759 327.307 346.187 326.713C345.563 326.557 344.938 326.406 344.312 326.265C338.746 324.999 333.255 325.253 327.705 324.451C327.113 324.365 327.019 323.409 327.537 323.166C332.524 320.823 338.864 320.168 344.32 319.546ZM262.04 269.315C265.858 267.858 270.654 270.281 272.603 273.614C274.815 277.396 273.87 281.762 271.14 284.949C266.952 289.838 258.976 292.85 253.099 295.64L252.627 295.865C246.591 298.777 240.39 301.451 234.105 303.781C227.924 306.074 221.494 307.87 215.086 309.412C211.707 310.225 208.256 310.897 204.803 311.321C202.077 311.655 199.975 310.907 197.367 310.907C196.986 310.908 196.867 310.403 197.178 310.209C199.615 308.677 201.424 306.66 204.082 305.241C206.85 303.764 209.628 302.312 212.416 300.874C218.053 297.968 223.481 294.734 228.919 291.479C234.651 288.048 240.253 284.435 245.701 280.567C251.032 276.782 255.945 271.64 262.04 269.315ZM330.076 266.204C334.844 265.279 339.566 267.535 340.977 272.394C342.33 277.049 340.915 278.047 344.524 281.378C347.401 284.032 350.503 286.402 353.634 288.735L358.241 292.16C366.586 298.337 375.001 304.178 384.596 308.347C385.407 308.699 384.938 309.904 384.169 309.92C368.915 310.214 354.288 308.149 340.519 301.32C334.087 298.13 327.625 294.095 323.898 287.727C319.581 280.353 319.707 268.214 330.076 266.204Z" fill="black"/>
</svg>
