<svg width="1166" height="1216" viewBox="0 0 1166 1216" fill="none" xmlns="http://www.w3.org/2000/svg">
<path fill-rule="evenodd" clip-rule="evenodd" d="M1105.74 766.357C1115.98 761.01 1125.99 755.201 1135.83 749.155C1142.76 745.008 1136.62 734.562 1129.51 738.336C1125.88 740.267 1122.26 742.217 1118.62 744.135C1121.48 741.672 1124.14 738.99 1126.51 736.067L1126.35 735.904C1135.51 727.693 1123.74 712.201 1113.32 718.946C1104.13 725.608 1094.85 732.406 1084.3 736.793C1062.45 746.059 1038.35 747.592 1014.89 747.86C1006.31 747.215 998.114 748.702 989.786 750.359C993.051 737.261 1001.22 727.37 1005.56 714.684C1008.75 701.876 990.266 693.151 983.714 705.463C982.106 708.486 980.573 711.544 979.074 714.618C964.912 727.499 941.264 726.364 926.981 740.195C918.845 747.416 914.864 757.213 913.291 767.047C912.223 773.724 913.883 780.418 909.846 786.332C890.327 813.94 859.485 857.578 843.822 887.961C832.732 815.763 803.121 726.463 772.53 660.446C762.414 639.333 750.841 618.703 735.649 600.807C737.371 594.839 731.293 584.245 727.428 587.506C715.531 572.973 694.501 569.21 677.591 561.985C654.764 552.224 635.825 531.936 626.515 508.876C614.553 464.964 585.106 459.386 544.267 461.327C505.183 461.278 476.266 477.995 467.738 517.781C450.413 547.978 409.507 542.984 380.078 550.979C358.51 555.906 337.579 563.523 317.687 573.194C295.558 552.203 216.303 640.298 209.099 662.97C213.34 663.792 217.555 664.781 221.732 665.987C225.452 667.063 223.89 672.682 220.138 671.782C215.469 670.661 210.77 669.889 206.049 669.353C205.905 669.804 205.779 670.253 205.685 670.697C205.155 670.661 204.626 670.616 204.096 670.58C205.271 671.191 206.402 671.901 207.504 672.817C210.168 675.029 206.7 679.298 203.869 677.535C201.202 675.54 197.709 675.855 194.51 675.185C194.32 681.763 170.847 674.404 167.201 672.224C150.996 670.197 134.325 672.372 119.197 664.557C99.0679 660.318 78.7879 655.63 58.8849 650.232C53.6159 652.286 48.6639 659.636 52.8489 665.03C55.2029 667.484 52.1769 671.492 49.2129 669.747C39.2719 663.896 31.5839 654.762 25.0659 644.922C21.9979 641.827 16.5519 642.493 12.4299 641.208C11.8789 642.198 11.5539 643.302 11.5589 644.434C-5.92612 647.312 6.54688 666.409 15.3369 672.359C10.6739 675.395 10.4969 681.341 10.9049 686.306C9.91688 688.074 9.58688 690.266 10.4469 692.248C13.7349 699.825 20.8459 706.206 26.2529 712.345C32.2229 719.124 37.5459 725.941 44.8099 731.437C72.4979 752.542 105.911 764.342 140.189 768.957C152.36 770.826 169.867 773.687 177.403 783.979C175.554 796.193 172.159 807.907 169.079 819.817C164.772 835.627 165.065 852.178 165.008 868.296C164.406 867.812 163.25 867.912 163.078 868.834C162.076 875.515 161.331 882.347 157.27 887.961C153.71 898.4 151.341 909.535 150.01 920.503C144.678 972.498 143.405 1026.03 155.427 1077.21C160.066 1096.2 167.611 1114.25 177.891 1130.86C180.956 1135.82 185.884 1137.27 190.309 1136.3C205.119 1143.99 223.776 1146.46 239.739 1144.5C294.16 1129.1 275.198 1166.2 351.501 1154.84C483.208 1138.06 616.312 1171.03 747.739 1151.67C750.976 1176.67 793.35 1169.5 808.069 1158.93C852.203 1126.12 874.117 1022.25 896.266 969.552C911.491 928.018 936.985 854.454 970.372 826.584C980.383 818.754 992.484 814.632 1004.59 811.304C1049.78 799.66 1095.14 788.648 1140.42 777.327C1148.09 775.437 1146.71 762.342 1138.5 763.182C1127.61 764.297 1116.67 765.306 1105.74 766.357Z" fill="white"/>
<path fill-rule="evenodd" clip-rule="evenodd" d="M99.7948 758.568C96.7348 758.189 93.7348 757.099 90.7548 756.239C86.2048 754.909 81.7448 753.359 77.3548 751.589C68.2948 747.96 59.5048 743.669 51.2648 738.419C37.9548 729.929 26.1948 719.049 17.3248 705.949L16.7159 705.035C11.652 697.322 2.31124 680.195 12.7848 674.339C6.03455 668.699 -0.345455 658.569 0.014545 650.749C0.524545 639.689 14.0845 639.84 21.0945 644.529C25.6845 647.599 29.1245 651.899 32.5745 656.13C36.3945 660.829 40.4745 665.309 44.7145 669.619C45.8395 670.759 46.9758 671.876 48.1317 672.975L49.2944 674.069C49.1145 673.639 48.9545 673.199 48.8145 672.748C46.4745 665.459 49.2645 655.969 56.5545 652.629C61.0158 650.584 65.6489 651.832 69.972 653.568L70.6345 653.839C76.4545 656.248 82.3445 658.379 88.4045 660.089C113.105 667.059 138.885 668.219 164.195 671.699C173.945 673.049 183.875 674.748 193.575 677.248C197.274 661.538 206.344 646.479 216.184 634.089C263.304 574.818 341.014 555.229 412.104 542.549C418.584 541.399 423.955 549.979 427.725 547.949C434.875 544.109 441.165 538.669 446.685 532.759C458.455 520.149 466.805 505.319 476.615 491.269C481.465 484.329 492.625 490.539 488.125 497.989L485.92 501.63C476.843 516.544 466.792 531.913 453.775 543.479C446.855 549.619 439.175 554.469 430.395 557.498C423.745 559.789 414.415 561.719 407.135 559.498L406.261 558.225C406.55 558.651 406.841 559.075 407.135 559.499C426.134 587.029 449.974 610.329 475.094 632.319C500.45 654.502 527.803 674.368 555.321 693.791L557.614 695.409C602.444 662.71 640.314 620.059 666.884 571.33C661.315 570.659 655.805 567.09 651.045 564.429C645.315 561.21 639.925 557.369 635.725 552.249C626.575 541.099 627.765 526.729 626.115 513.199C626.015 512.359 627.125 512.149 627.635 512.569C632.595 516.689 634.335 523.439 636.405 529.269C638.685 535.679 641.265 540.96 646.495 545.469C651.365 549.67 657.305 552.759 663.075 555.509C666.05 556.92 680.822 560.546 682.504 563.549C708.025 557.559 732.885 567.909 751.795 585.369C770.065 602.239 783.475 624.169 795.315 645.819C807.945 668.919 818.295 692.998 827.215 717.748C836.255 742.869 843.185 768.539 846.995 794.979C850.211 817.27 852.183 839.912 853.459 862.452L853.615 865.269C872.494 835.639 891.844 806.319 911.594 777.259C907.104 765.269 912.074 753.029 920.484 743.769C929.804 733.519 942.694 728.759 955.024 723.219L956.645 722.486C962.588 719.775 968.511 716.79 973.644 712.729C978.584 708.809 982.214 703.409 987.414 699.799C994.974 694.539 1008.69 695.659 1009.04 707.149C1009.22 713.46 1006.51 720.379 1004.03 726.049C1001.22 732.46 997.434 738.269 992.934 743.609C992.726 743.858 992.499 744.054 992.268 744.21L992.095 744.319C998.315 745.349 1004.58 746.179 1010.97 746.469C1023.86 747.059 1036.89 746.109 1049.51 743.389C1062.43 740.609 1074.95 736.09 1086.57 729.789C1096.5 724.409 1105.7 717.449 1116.98 715.809C1118.02 715.649 1119.07 715.549 1120.15 715.489C1121.95 715.389 1123.75 717.509 1123.04 719.288C1122.65 720.269 1122.24 721.239 1121.79 722.219C1117.89 730.809 1111.91 739.142 1104.45 745.466L1103.87 745.949C1106.5 745.039 1109.09 744.019 1111.64 742.869C1126.63 736.119 1140.23 725.919 1156.3 721.819C1157.06 721.619 1157.83 721.439 1158.6 721.269C1163.57 720.199 1166.19 725.599 1163.27 729.299C1162.8 729.899 1162.33 730.489 1161.84 731.079C1154.67 739.979 1146.76 748.239 1138.04 755.659C1135.05 758.199 1131.97 760.659 1128.83 763.01C1127.51 764.006 1126.18 764.98 1124.84 765.939L1124.17 766.409C1125.74 765.3 1127.29 764.17 1128.83 763.01C1138.67 760.029 1148.37 756.499 1157.86 752.59C1161.63 751.039 1164.56 754.859 1164.96 757.999C1166.3 768.52 1154.62 776.13 1147.02 781.189C1139.4 786.27 1131.01 790.13 1122.42 793.229C1105.91 799.197 1088.56 801.908 1071.24 804.337L1062.83 805.509C1029.53 810.164 994.756 815.731 970.864 841.64C957.474 856.159 948.414 874.199 940.124 891.949C931.844 909.68 924.574 927.88 917.674 946.18C910.524 965.119 904.294 984.409 897.674 1003.54C891.594 1021.1 884.332 1038.44 877.139 1055.61L876.004 1058.32C860.734 1094.8 842.494 1129.16 817.074 1159.62C812.884 1164.65 806.114 1157.51 809.984 1152.53C836.574 1118.25 855.074 1077.8 870.344 1037.45C877.294 1019.09 883.114 1000.29 889.794 981.829L893.769 970.862C899.077 956.244 904.43 941.644 910.014 927.14C917.084 908.789 924.854 890.659 933.744 873.119L934.688 871.272C943.391 854.351 953.732 837.674 967.964 824.869C993.582 801.81 1027.67 796.278 1060.63 791.897L1071 790.53C1084.93 788.679 1098.9 786.634 1112.45 782.909C1120.27 780.77 1127.91 778.029 1135.09 774.249C1137.95 772.749 1140.74 771.1 1143.44 769.3C1135.74 771.56 1127.93 773.409 1119.98 774.859C1116.09 775.569 1112.24 776.1 1108.4 776.47C1098.51 777.448 1088.7 777.408 1078.57 776.879C1077.71 776.828 1077.43 775.479 1078.35 775.309C1085.41 774.055 1092.47 772.486 1099.51 770.784L1101.61 770.269C1101.65 769.1 1102.11 767.859 1103.07 766.68C1106.57 762.42 1113.22 760.239 1117.83 757.229C1122.66 754.079 1127.34 750.68 1131.8 747.039C1135.88 743.71 1139.8 740.189 1143.57 736.51L1144.7 735.399C1144.33 735.77 1143.95 736.141 1143.57 736.509C1133.39 741.21 1123.74 747.239 1113.11 750.96C1104.66 753.929 1095.8 755.929 1086.86 756.639L1086.31 756.683L1085.75 756.719C1076.42 757.389 1067.03 757.119 1057.84 759.139C1056.81 759.369 1056.49 757.989 1057.41 757.599C1065.44 754.259 1073.79 752.969 1082.23 751.409C1082.41 750.749 1082.87 750.159 1083.67 749.779L1085.83 748.748C1092.26 745.659 1098.26 742.542 1103.6 737.529C1108.32 733.099 1112.25 727.92 1115.2 722.179C1103.39 724.769 1093.02 733.719 1082.28 738.749C1070.58 744.239 1058.2 748.179 1045.48 750.42L1044.04 750.668C1020.26 754.633 991.68 754.128 970.385 741.769C969.705 741.369 970.195 740.46 970.895 740.569C976.935 741.559 982.915 742.729 988.895 743.769C987.724 742.699 987.204 740.779 988.554 739.239C993.925 733.084 998.173 726.049 1000.89 718.351L1001.41 716.846C1002.66 713.275 1004.77 707.73 1002.61 704.509C1000.55 701.439 995.704 701.859 992.804 703.159C986.774 705.879 982.764 712.67 977.684 716.769C972.144 721.249 965.844 724.569 959.394 727.539L958.032 728.158C946.876 733.176 934.956 737.4 926.184 746.259C921.464 751.019 917.404 756.969 916.044 763.639C915.424 766.699 915.424 769.849 916.244 772.879C916.894 775.249 918.254 776.71 917.474 779.119C916.454 782.229 912.844 785.949 910.984 788.719C908.824 791.92 906.674 795.129 904.524 798.339C900.234 804.759 895.964 811.199 891.694 817.629C883.154 830.509 874.704 843.449 866.324 856.429C863.598 860.656 860.88 864.887 858.171 869.122L854.115 875.479L851.971 878.83L848.315 884.578C848.445 885.109 848.435 885.669 848.265 886.158C847.641 887.934 846.474 889.147 845.023 890.027L844.764 890.179C823.424 923.909 802.424 957.859 781.214 991.67C780.084 1001.99 779.024 1012.32 778.104 1022.65C776.014 1046.03 774.584 1069.47 774.124 1092.94C773.904 1104.3 774.814 1115.73 775.304 1127.08C775.544 1132.5 775.873 1137.91 776.302 1143.32L776.617 1147.15C777.04 1152.42 777.279 1157.65 775.384 1162.67C773.704 1167.08 768.584 1168.07 765.554 1164.71C726.025 1163.12 686.465 1161.91 646.905 1161.16C576.095 1159.8 505.255 1160.01 434.435 1161.38C398.865 1162.07 363.285 1163.04 327.725 1164.24C310.205 1164.82 292.675 1165.64 275.145 1165.88C265.7 1166.01 250.835 1162.57 250.073 1151.94L250.055 1151.62C248.875 1151.94 247.655 1152.2 246.405 1152.39C245.848 1152.47 245.314 1152.45 244.82 1152.33L244.575 1152.27C230.496 1156.56 212.687 1150.44 199.309 1146.87L198.205 1146.58C185.435 1143.25 175.175 1138.49 166.805 1127.91C152.155 1109.38 147.155 1084.5 144.555 1061.57C142.115 1039.99 141.975 1018.01 144.945 996.469C143.195 978.92 144.905 960.81 146.895 943.359C147.875 934.729 149.025 926.109 150.405 917.529C151.175 912.739 152.185 907.999 153.215 903.269C153.626 901.379 153.968 899.344 154.49 897.377L154.725 896.539C153.125 896.749 151.375 896.399 149.685 895.47C145.665 893.26 144.495 888.789 144.425 884.51C144.205 871.609 145.745 858.34 147.105 845.52C148.475 832.72 150.355 819.869 152.815 807.229L153.451 803.97C155.315 794.514 157.448 784.753 161.205 775.869C147.095 773.469 133.025 770.919 119.335 766.578C112.655 764.448 106.075 761.799 99.7948 758.568ZM836.254 892.819C836.035 892.869 835.825 892.929 835.615 892.989C829.975 894.569 824.275 895.909 818.595 897.349C808.775 899.819 799.175 902.579 790.045 906.869C788.132 931.009 785.297 955.071 782.601 979.145L782.064 983.96C786.204 976.279 790.444 968.659 794.874 961.13C808.364 938.179 822.164 915.409 836.254 892.819ZM158.165 895.21C158.195 898.079 157.595 901.06 157.275 903.819C156.755 908.3 156.335 912.8 155.805 917.279C154.725 926.279 153.805 935.289 153.135 944.329C152.705 950.1 152.425 955.89 152.175 961.68C157.845 940.488 165.355 919.759 172.495 898.998C171.301 898.873 170.081 898.581 168.823 898.247L166.704 897.676C165.455 897.355 161.402 896.358 158.165 895.21ZM854.115 875.479L854.155 876.429C854.305 879.799 852.285 881.699 849.835 882.189C851.255 879.949 852.685 877.709 854.115 875.479ZM205.315 715.76C211.285 716.289 217.135 717.56 222.715 719.76L223.253 719.97C227.38 721.563 233.415 723.564 234.765 727.97C235.145 729.22 234.125 730.249 232.955 730.35C228.475 730.71 223.195 725.909 219.045 724.289C214.425 722.489 209.585 721.149 204.685 720.439C193.675 718.829 182.195 720.05 171.835 724.06C171.225 724.3 170.845 723.329 171.395 723.039C181.835 717.359 193.445 714.71 205.315 715.76ZM78.8048 744.359C78.1144 743.749 77.4244 743.109 76.7444 742.47C71.383 737.398 66.6353 731.478 63.1199 724.974L62.1948 723.213C59.3316 717.67 55.8158 709.773 62.5444 705.779C66.5644 703.39 71.4044 703.989 75.8844 705.439C76.1744 705.529 76.4644 705.63 76.7544 705.729C78.7544 706.43 80.6844 707.269 82.4044 708.069C89.8744 711.499 96.4644 716.489 103.364 720.89C110.841 725.66 118.223 728.71 126.852 730.495L127.664 730.659C135.764 732.26 144.544 733.289 150.194 739.949C151.614 741.63 150.314 744.779 147.864 743.949C132.244 738.68 115.714 737.519 101.374 728.869C95.4344 725.289 89.8144 721.18 83.7444 717.789C80.5244 715.987 77.1999 714.412 73.657 713.332L71.7215 712.762C70.5878 712.431 69.2344 712.104 68.3244 712.43C66.5922 713.03 67.145 713.957 67.681 715.575L67.7344 715.739C71.9444 728.76 83.9444 739.659 95.0644 746.869C97.6144 748.529 100.224 750.05 102.884 751.46C120.89 761.057 141.037 765.523 160.824 770.826C160.824 770.826 172.265 774.019 176.055 775.219C180.275 774.868 185.085 776.359 188.265 778.139C191.355 779.868 193.845 782.189 195.725 784.919C195.725 784.919 197.535 786.429 197.865 788.769C198.815 790.939 199.455 793.278 199.775 795.719C199.955 797.149 199.595 798.248 198.915 799.028C200.96 830.421 192.481 861.637 182.921 891.472L181.974 894.413L181.365 896.278C171.055 927.908 159.225 959.309 153.945 992.288C150.415 1014.32 150.525 1037.12 153.115 1059.25L153.297 1060.77C155.849 1081.7 160.759 1105.17 174.065 1122.01C180.851 1130.6 188.892 1134.42 199.172 1137.19L199.735 1137.34C209.035 1139.79 218.635 1143.26 228.225 1144.31C237.125 1145.28 244.585 1141.97 252.595 1138.87L252.605 1138.86C269.475 1123.93 277.135 1102.19 282.795 1080.25C297.465 1023.47 295.645 964.529 287.325 906.919C282.985 876.819 277.085 846.979 271.205 817.149C268.265 802.239 265.095 787.359 262.465 772.399L260.903 763.595C260.041 758.703 259.207 753.808 258.495 748.889C257.535 742.279 257.245 735.779 256.915 729.129C248.835 715.739 237.105 704.709 223.515 696.799C213.785 691.129 203.485 687.199 192.855 684.349C162.465 676.159 129.335 676.739 98.7545 670.439C88.4815 668.325 78.73 665.187 68.9836 661.426L67.6545 660.909C63.1845 659.169 58.6245 658.199 56.4045 663.469C54.8245 667.219 55.7645 671.119 58.1345 674.269C63.9445 681.989 75.6245 685.569 84.4145 688.349C89.7045 690.029 95.1045 691.359 100.565 692.349C106.025 693.339 111.505 693.589 116.745 695.519C118.765 696.259 119.165 699.469 116.745 700.038C110.105 701.589 103.425 700.259 96.8245 698.969C89.5745 697.538 82.4345 695.509 75.4945 692.939C74.2145 692.467 72.8897 691.969 71.5406 691.441L70.5245 691.039C71.5745 691.8 72.6245 692.55 73.6845 693.3C73.9645 693.499 73.7945 694.029 73.4245 693.899C57.1065 687.811 42.2591 676.827 30.7569 663.831L30.1845 663.18C26.1345 658.539 16.9045 644.499 9.12455 648.409C1.81894 652.076 14.2724 666.212 19.0052 671.992L19.5547 672.669C24.9347 672.809 30.1447 676.158 34.5047 678.858C42.0747 683.549 49.9847 687.589 58.0447 691.368C74.0647 698.898 91.0747 704.209 106.925 712.118C107.135 712.229 106.975 712.498 106.775 712.469C96.6847 710.858 86.7047 708.288 76.9547 705.099L76.5197 704.963L76.0847 704.818C69.9947 702.818 63.9847 700.559 58.0747 698.148C51.5047 695.469 45.0847 692.459 38.8547 689.049C33.2147 685.969 26.9547 680.419 20.4147 679.599C19.7147 679.509 19.0947 679.498 18.5547 679.549C11.0448 680.179 17.2548 692.619 19.3548 696.339C22.7848 702.449 26.9248 708.089 31.6748 713.239C41.3048 723.699 52.9748 731.989 65.6048 738.439C69.9148 740.639 74.3248 742.579 78.8048 744.359Z" fill="black"/>
<path fill-rule="evenodd" clip-rule="evenodd" d="M668.419 82.0239C614.95 66.3309 431.066 82.4169 426.519 85.8159C419.078 91.9989 382.883 111.617 377.251 116.096C326.326 170.07 374.874 250.223 371.138 315.335C371.376 338.431 361.534 359.519 357.01 381.738C355.1 393.382 355.521 405.426 361.59 415.88C372.26 434.56 394.793 438.347 413.119 445.879C422.238 449.805 430.758 455.372 438.568 461.463C491.152 507.98 520.422 539.834 597.149 529.34C597.541 533.003 600.786 536.602 604.809 534.965C614.229 531.129 623.582 527.06 633.084 523.424C635.115 528.318 640.949 529.715 644.901 525.393L644.924 525.424C662.513 511.156 673.699 491.647 682.007 470.762C687.821 458.713 692.582 446.141 696.22 433.195C696.631 431.73 696.577 430.421 696.205 429.294C712.991 371.451 719.203 310.487 714.784 250.43C713.889 238.039 711.549 225.484 712.124 213.041C712.644 201.799 717.487 191.165 721.179 180.695C740.217 136.186 711.115 96.0379 668.419 82.0239Z" fill="white"/>
<path fill-rule="evenodd" clip-rule="evenodd" d="M675.145 9.75603L675.715 9.31416C681.88 4.47772 687.692 -1.86083 696.385 0.516034C703.515 2.46603 707.115 8.36603 708.645 15.496C710.815 13.226 712.925 10.876 714.985 8.44603C720.585 1.84603 733.095 5.26603 734.765 13.676C738.145 30.616 738.315 47.856 735.025 64.826C734.525 67.396 733.935 69.956 733.245 72.486C736.995 67.816 740.485 62.946 743.615 57.816C747.005 52.246 754.665 55.006 755.195 60.956C755.335 62.496 755.415 64.056 755.435 65.626C757.825 66.466 759.475 68.926 758.845 71.946C755.365 88.566 750.955 104.956 745.655 121.066C754.175 116.546 763.725 113.866 772.715 117.056C786.995 122.136 790.395 137.716 787.605 151.126C784.095 167.986 773.055 182.096 758.815 191.346C757.125 193.886 755.455 196.446 753.865 199.056C753.835 206.426 752.495 213.776 749.795 220.606C746.755 228.276 741.395 234.906 734.795 239.946C732.475 244.997 726.331 248.687 720.938 247.664L720.655 247.606L720.645 247.616C722.025 252.556 723.215 257.546 724.245 262.546C732.22 301.284 728.182 341.608 720.908 380.127L720.675 381.356C714.145 415.636 706.545 451.136 691.775 482.966C678.415 511.746 655.765 537.056 623.395 543.336C585.315 550.726 543.165 539.016 510.415 519.486C498.545 512.406 509.425 493.746 521.245 500.946C538.305 511.326 556.835 518.576 576.435 522.396C594.755 525.956 615.245 527.166 632.815 519.786C657.285 509.506 671.825 484.396 681.025 460.756C686.445 446.806 690.505 432.406 694.285 417.946C699.155 399.356 703.695 380.646 707.105 361.726C713.455 326.436 715.515 289.786 708.795 254.396C706.655 243.106 703.625 231.746 699.675 220.826C699.055 220.056 698.465 219.196 697.935 218.256C693.805 211.016 690.955 202.786 687.885 194.956C685.195 190.286 682.255 185.796 679.135 181.406C674.47 177.821 670.027 173.988 665.957 169.806C677.778 162.152 688.209 152.57 695.714 140.364C696.952 138.351 696.166 136.427 694.699 135.342C688.706 142.839 680.948 149.188 672.788 154.813C668.608 158.393 664.106 161.609 659.388 164.515C656.017 165.182 652.609 165.64 649.305 166.016C639.895 167.086 630.435 166.686 621.075 165.436C600.835 162.736 515.237 139.162 479.155 148.326C471.639 150.235 468.095 156.976 464.115 163.306C460.662 168.812 456.271 173.37 451.004 177.122L450.415 177.536C440.115 184.666 419.406 207.222 410.701 227.354C399.461 253.346 388.665 331.236 393.635 331.906C406.635 333.666 413.835 340.506 424.425 347.846C425.125 348.326 424.715 349.626 423.815 349.296C416.825 346.776 409.265 345.286 401.935 344.066C395.305 342.956 388.325 342.756 381.925 345.126C372.105 348.766 367.315 356.996 365.345 366.276C364.575 369.906 364.235 373.696 364.195 377.446L364.189 378.534C364.194 390.357 366.399 403.464 374.985 412.186C378.635 415.896 383.585 418.396 388.765 419.086C394.435 419.846 397.935 417.286 403.145 415.956C409.145 414.426 413.825 418.376 413.265 423.526C414.535 424.636 415.765 425.806 416.985 426.996L416.986 427.001L416.995 427.006C417.795 427.366 418.555 427.846 419.245 428.426C420.375 429.386 421.325 430.436 422.085 431.566C423.775 431.896 425.395 432.836 426.725 434.556C429.465 438.086 431.995 441.656 434.345 445.296C438.555 449.766 442.745 454.246 446.875 458.796C451.846 464.265 456.685 469.858 461.556 475.419L463.995 478.196C466.625 481.186 469.245 484.176 471.865 487.176L472.646 488.057C475.282 491.008 477.302 493.187 477.585 497.436C477.785 500.586 474.395 502.726 471.585 502.006C467.252 500.889 465.241 497.488 462.645 494.114L458.725 489.085V489.085L455.035 484.346C453.205 481.986 451.355 479.636 449.515 477.286C448.965 481.616 444.385 485.106 440.205 485.296L439.23 485.334C429.414 485.66 417.486 484.275 410.015 477.356C406.655 480.746 402.475 483.416 397.325 485.016C385.625 488.656 373.665 482.206 368.935 472.396C359.765 476.326 349.405 477.116 339.495 474.226C333.779 472.551 331.802 465.427 335.785 461.067L335.965 460.876L336.011 460.824C335.189 459.755 334.737 458.447 334.664 457.022C334.575 455.292 335.836 453.458 335.576 451.843C334.584 445.684 324.54 450.247 321.348 451.581C320.738 451.835 320.166 451.956 319.632 451.975C314.697 453.412 309.33 446.928 311.915 441.576C317.705 429.616 323.355 417.566 329.215 405.626C328.475 405.876 327.715 406.106 326.965 406.296C316.435 408.996 303.665 403.816 306.095 391.126C306.655 388.146 309.355 386.106 312.035 385.186C317.255 383.386 321.175 384.686 325.195 383.006C329.725 381.126 334.455 377.676 338.435 374.426C342.685 370.966 346.355 367.076 349.605 362.856C350.905 356.726 353.155 350.866 356.755 345.826C356.975 345.526 357.195 345.226 357.425 344.936C334.338 339.432 337.361 316.726 327.177 296.605L326.317 294.937C319.4 281.477 313.366 266.303 316.855 250.976C317.475 248.266 318.375 245.676 319.535 243.256C317.685 243.486 315.825 243.696 313.975 243.906C309.725 244.386 305.405 238.906 307.095 234.876C307.985 232.766 308.965 230.726 310.025 228.746C312.965 223.286 316.575 218.326 320.825 213.846C313.685 213.656 306.535 213.656 299.475 212.836C292.805 212.066 285.795 208.416 286 200.726C286.207 193.394 292.64 187.844 298.605 184.267C304.476 176.458 311.923 169.968 320.346 165.145C318.679 164.77 316.991 164.493 315.275 164.322L314.415 164.246C309.605 163.866 305.285 162.546 300.925 160.536C297.025 158.736 297.085 153.276 299.635 150.526C307.879 141.614 320.231 144.516 329.842 149.623C329.172 148.774 328.439 147.956 327.641 147.173L327.154 146.708C322.432 142.311 329.519 135.255 334.225 139.637C335.712 141.022 337.044 142.527 338.232 144.122L338.345 143.886V143.886C344.562 131.274 353.656 119.986 364.416 110.94L366.944 108.838C386.346 92.6313 392.333 84.9498 418.135 87.336C417.035 82.6491 417.142 77.3766 417.39 73.0413L417.425 72.456C418.415 56.156 424.425 36.646 440.325 29.326C444.455 27.436 449.135 30.526 448.035 35.256C447.265 38.606 446.325 41.866 445.155 45.036C448.625 41.386 452.345 37.976 456.285 34.836C472.345 22.036 493.805 11.026 514.915 14.626C526.515 16.616 535.615 23.896 545.325 29.976C555.085 36.096 565.985 39.726 577.415 41.036C593.385 42.876 609.415 41.026 625.205 38.106C636.055 33.376 646.585 27.836 656.865 21.866C663.185 18.196 669.335 14.186 675.145 9.75603ZM391.605 363.786C394.985 362.916 398.775 362.926 402.165 363.776C410.915 365.976 419.055 373.296 419.565 382.526C419.795 386.696 416.435 390.686 412.535 391.756C408.115 392.976 404.315 390.816 401.735 387.356C398.965 383.656 398.275 379.646 394.885 376.286L394.104 375.525C391.222 372.769 386.864 369.207 382.865 369.846C382.275 369.936 381.835 369.136 382.435 368.816C385.695 367.036 387.835 364.746 391.605 363.786ZM437.055 320.316C438.598 319.056 440.637 320.534 439.911 322.346L439.855 322.476C438.025 326.336 440.175 330.866 442.395 334.096C444.305 336.886 440.695 339.536 438.155 338.336C431.015 334.946 431.385 324.916 437.055 320.316ZM463.155 204.346C463.025 203.406 464.275 203.016 464.595 203.946C469.925 219.416 471.455 233.116 470.585 249.476L470.503 250.927C469.561 266.686 466.801 283.364 457.265 296.306C455.055 299.296 450.535 297.536 451.265 293.776C454.195 278.726 459.825 264.436 462.015 249.206C464.305 233.286 465.335 220.276 463.155 204.346ZM413.375 260.576C414.155 256.446 420.505 252.196 423.715 256.346C424.795 257.756 423.525 259.486 422.225 260.006C421.005 260.486 419.915 259.826 418.715 260.066C417.744 260.262 417.035 260.867 416.563 261.695L416.465 261.876C415.525 263.676 413.045 262.336 413.375 260.576ZM410.775 227.676C413.055 223.456 418.305 220.766 422.795 223.396C424.275 224.266 423.695 226.796 421.895 226.716L420.829 226.673C417.627 226.556 414.426 226.621 411.735 228.646C411.135 229.096 410.475 228.246 410.775 227.676ZM418.792 112.428C406.003 106.678 393.284 111.869 382.841 119.965C381.977 120.635 381.558 121.417 381.466 122.203C388.438 119.488 395.861 117.708 402.957 116.239C408.759 115.037 414.616 114.226 420.48 113.906C420.152 113.317 419.613 112.797 418.792 112.428Z" fill="black"/>
<path d="M418.597 116.426C418.597 113.87 417.437 114.014 415.06 114.363C413.913 114.532 406.592 115.837 408.577 115.837C409.659 115.837 412.685 114.034 409.985 115.28C408.937 115.764 403.14 118.85 407.267 117.016C408.652 116.4 414.884 113.995 413.292 112.006C411.986 110.372 409.256 111.486 407.594 111.842C404.778 112.445 401.392 114.286 399.768 116.721C398.355 118.841 398.997 121.221 401.896 120.782C404.981 120.314 413.882 117.834 413.882 113.479C413.882 111.284 396.185 115.439 394.627 116.099C391.636 117.364 399.146 115.446 399.146 112.89C399.146 112.014 396.866 114.58 396.657 114.789C394.255 117.191 391.628 119.651 389.486 122.288C387.371 124.89 391.607 117.494 391.942 116.557C393.372 112.551 384.219 120.108 383.231 120.88C381.677 122.094 380.3 123.484 378.909 124.875C377.433 126.35 382.215 122.28 383.558 120.683C384.591 119.456 385.877 117.43 384.279 120.094C382.706 122.715 381.153 125.446 380.153 128.346C379.708 129.635 386.702 121.109 386.702 121.469C386.702 123.314 384.956 126.243 384.41 128.084C383.648 130.651 382.505 133.053 381.921 135.681C381.337 138.309 381.376 136.309 381.528 134.83C382.14 128.867 383.996 123.035 384.672 117.048C384.958 114.514 385.493 110.603 384.279 108.174C383.603 106.823 379.829 114.687 379.629 115.051C375.299 122.905 370.908 130.757 366.923 138.792C365.422 141.82 363.546 145.026 362.994 148.419C362.881 149.11 362.496 151.078 363.616 149.893C368.263 144.973 374.71 141.146 380.087 137.056C388.256 130.843 396.56 124.419 405.433 119.242C406.402 118.677 409.894 115.951 411.164 116.459C411.609 116.637 408.562 126.106 408.347 126.938C406.829 132.834 405.13 139.939 405.662 146.062C405.934 149.193 412.264 142.706 412.801 142.198C419.883 135.484 427.02 128.685 433.595 121.469C437.681 116.985 441.715 111.188 446.3 107.257C448.71 105.192 443.437 112.926 441.847 115.673C438.687 121.131 435.322 127.139 433.497 133.225C432.803 135.536 434.596 133.233 435.101 132.668C438.825 128.509 442.429 124.232 446.104 120.028C453.156 111.963 460.126 103.94 466.079 95.0102C467.895 92.2863 467.747 92.3257 466.865 95.6651C466.265 97.9384 462.647 106.317 464.016 108.371C464.181 108.619 464.364 107.872 464.442 107.585C465.362 104.186 466.258 100.744 466.996 97.3024C468.44 90.573 470.646 81.7115 469.747 74.773C468.88 68.0855 462.87 100.542 462.87 93.7986C462.87 88.2984 463.827 82.9145 464.769 77.5236C464.994 76.238 466.524 69.025 464.9 74.3145C462.725 81.4007 460.379 88.5008 458.482 95.6651C457.674 98.7163 458.906 95.1691 459.857 94.0278" stroke="black" stroke-width="10" stroke-linecap="round"/>
<path d="M649.489 160.243C649.668 161.677 653.571 163.897 654.798 164.248C658.609 165.336 658.404 163.865 655.158 163.483C653.762 163.319 649.567 162.176 648.274 161.458C646.622 160.54 645.578 161.834 647.465 162.673C649.136 163.416 650.642 163.357 652.369 163.933C657.49 165.64 667.643 164.107 671.355 168.747C672.73 170.465 675.331 170.55 676.844 171.761C677.647 172.403 684.634 174.374 683.323 172.571C681.088 169.498 680.135 167.085 676.664 165.102C674.901 164.095 672.195 162.859 670.725 161.683C668.454 159.866 677.99 154.789 679.859 153.36C683.307 150.723 688.619 146.679 690.792 142.876C692.402 140.058 698.193 131.974 691.242 136.398C683.855 141.098 672.453 139.187 664.067 139.187" stroke="black" stroke-width="10" stroke-linecap="round"/>
<path d="M390.289 330.089C391.384 327.17 408.068 332.961 410.878 333.117C414.9 333.341 420.243 336.367 422.249 339.778C422.745 340.621 423.376 341.646 424.066 342.335C424.441 342.71 424.192 340.896 424.201 340.519C424.256 337.976 425.017 335.507 425.277 332.983C426.025 325.73 429.006 319.2 430.122 312.057C433.282 291.833 437.73 271.74 441.459 251.602C443.755 239.202 447.469 227.137 449.937 214.797C451.16 208.681 452.552 201.755 454.782 195.957C455.185 194.908 461.027 174.655 457.507 174.46C451.519 174.127 444.809 178.337 441.627 183.543C435.176 194.1 425.933 202.888 419.356 213.485C407.178 233.106 400.625 253.845 395.403 276.228C393.074 286.209 393.317 296.213 393.317 306.439C393.317 309.982 393.317 313.526 393.317 317.07C393.317 320.6 394.675 321.475 397.556 322.688C399.966 323.703 404.163 322.726 406.774 322.823C408.633 322.891 413.78 323.327 415.252 324.505C422.624 330.403 424.054 303.22 425.109 299.845C426.44 295.585 427.276 291.123 428.44 286.758C430.799 277.91 431.621 268.935 433.62 260.08C436.199 248.659 436.438 236.705 439.811 225.462C441.98 218.232 442.452 210.82 444.655 203.661C445.745 200.119 446.717 196.543 447.683 192.896C448.086 191.374 448.937 189.99 449.029 188.388C449.125 186.709 451.389 183.252 450.711 181.726C447.502 174.507 436.03 195.015 435.033 196.664C431.798 202.016 431.062 206.83 429.18 212.476C426.186 221.456 424.86 231.004 421.913 240.062C417.565 253.429 412.65 266.735 408.826 280.265C406.044 290.109 403.457 300.199 401.492 310.24C400.921 313.159 400.852 316.384 399.978 319.223C399.372 321.194 399.373 315.128 399.373 313.066C399.373 303.743 399.437 294.189 400.315 284.908C401.736 269.878 406.198 255.65 409.936 241.139C412.534 231.054 413.806 220.715 417.068 210.928C418.696 206.045 418.487 215.838 418.481 216.714C418.383 233.335 413.061 249.698 409.331 265.765C408.392 269.809 407.386 273.823 406.505 277.876C406.199 279.283 406.246 278.776 406.505 277.742C408.65 269.162 410.992 260.819 413.906 252.443C416.268 245.652 417.289 238.333 419.962 231.652C422.082 226.351 418.43 243.022 416.732 248.473C412.936 260.658 409.008 272.897 406.505 285.412C405.542 290.228 404.217 295.205 404.217 300.148C404.217 307.08 400.603 316.767 410.575 316.767C412.339 316.767 411.436 317.421 412.998 315.859C414.048 314.808 414.777 314.487 415.454 313.134C417.461 309.118 418.145 305.214 418.145 300.72C418.145 299.508 418.145 298.297 418.145 297.086C418.145 294.212 417.234 298.384 416.9 299.273C415.475 303.073 414.256 306.991 412.661 310.711C412.595 310.867 410.53 315.775 410.306 314.547C408.731 305.885 409.615 298.316 413.94 290.963C416.093 287.302 417.724 283.746 419.356 279.828C419.654 279.113 419.962 276.846 419.962 278.785C419.962 283.01 419.401 287.165 418.751 291.333C418.311 294.154 417.698 302.661 417.539 299.811C417.329 296.015 418.192 292.578 418.616 288.844C419.406 281.894 420.435 274.565 422.518 267.851C423.716 263.994 423.548 259.945 424.672 256.076C425.919 251.778 426.712 246.651 427.262 242.249C427.879 237.31 429.714 232.324 430.862 227.446C431.897 223.049 432.083 218.032 433.587 213.821C435.733 207.813 435.803 200.959 439.34 195.654" stroke="black" stroke-width="10" stroke-linecap="round"/>
<path d="M394.528 330.695C395.437 330.809 398.246 332.777 399.372 333.252C401.125 333.99 403.499 335.438 405.428 335.539C408.41 335.696 412.85 338.992 414.982 341.124C416.308 342.45 416.84 342.564 417.674 341.73C418.607 340.797 421.398 343.522 421.644 343.277C422.745 342.176 421.324 335.952 421.038 334.665C420.578 332.595 420.24 330.041 419.356 328.273" stroke="black" stroke-width="10" stroke-linecap="round"/>
<path d="M464.341 205.242C464.519 210.039 466.439 214.617 466.439 219.504C466.439 221.823 466.439 224.141 466.439 226.46C466.439 231.484 465.108 236.498 464.419 241.461C463.799 245.92 462.893 250.424 461.543 254.712C460.642 257.573 460.244 260.592 459.289 263.456C458.329 266.337 457.256 269.166 456.297 272.045C455.174 275.412 453.894 278.695 452.993 282.149C452.353 284.605 451.651 287.189 450.778 289.571C450.26 290.986 450.082 292.716 449.301 294.001C448.587 295.178 448.841 296.685 448.33 297.926C447.924 298.911 450.475 297.507 451.361 296.916C453.45 295.524 455.88 294.331 457.423 292.33C460.473 288.377 461.949 283.974 463.214 279.195C464.088 275.892 465.333 272.629 466.284 269.324C467.794 264.079 468.228 259.003 468.81 253.624C469.502 247.223 469.937 240.763 469.937 234.33C469.937 232.532 470.287 237.914 470.287 239.712C470.287 243.491 469.639 247.448 469.063 251.176C466.651 266.772 460.861 281.769 454.392 296.1C452.506 300.279 450.006 304.539 448.621 308.924C448.43 309.53 447.902 310.454 447.902 311.042C447.902 313.145 446.775 315.103 446.154 317.124C446.036 317.506 443.466 321.62 443.006 320.816C442.345 319.659 442.533 318.297 441.413 319.417C440.68 320.149 440.212 320.385 439.878 321.554C439.513 322.829 439.159 323.659 439.159 325.032C439.159 327.933 439.259 330.642 439.878 333.426C440.125 334.539 441.108 335.036 440.888 336.244C440.355 339.175 438.611 336.743 437.934 335.525C436.99 333.825 435.159 330.016 437.235 328.355C438.571 327.286 439.934 326.293 441.374 325.246C442.827 324.189 444.172 323.012 445.707 322.021C449.541 319.543 453.616 317.451 457.657 315.336C471.013 308.346 484.297 301.232 497.567 294.079" stroke="white" stroke-width="10" stroke-linecap="round"/>
<path d="M432.637 303.555C433.877 303.4 436.464 299.294 436.996 298.17C438.012 296.026 439.321 293.892 440.444 291.759C444.287 284.457 445.537 275.852 448.764 268.225C452.85 258.565 454.179 247.339 456.855 237.169C458.109 232.406 459.552 226.742 461.585 222.296C463.725 217.615 465.327 211.887 469.05 208.164C472.804 204.41 475.523 200.29 480.076 197.138C486.284 192.84 492.867 190.637 499.593 187.365C502.694 185.856 506.66 184.886 510.078 184.601C517.129 184.014 524.09 182.228 531.219 182.008C536.591 181.843 541.879 180.983 547.289 180.983C550.888 180.983 555.133 180.514 558.571 181.78C567.538 185.084 577.788 185.139 586.522 188.96C591.741 191.244 597.394 194.626 603.304 194.83C607.701 194.981 612.031 195.855 616.495 195.855C621.307 195.855 626.131 195.958 630.941 195.855C636.673 195.734 643.014 193.682 648.321 191.753C652.932 190.076 658.178 188.809 662.168 185.883C667.131 182.244 672.691 178.735 677.781 175.341" stroke="black" stroke-width="10" stroke-linecap="round"/>
<path d="M667.468 171.845C666.984 174.264 663.243 175.724 661.408 176.808C658.116 178.754 654.65 179.381 651.176 180.828C646.731 182.68 660.353 177.9 664.971 176.534C669.952 175.062 674.986 173.769 679.923 172.149C680.924 171.821 683.777 170.438 682.816 170.87C678.349 172.88 673.603 173.994 668.899 175.377C663.185 177.058 657.263 179.128 651.359 180.036C650.384 180.186 648.871 180.271 648.009 179.793C645.76 178.543 641.187 179.519 638.722 179.519C635.519 179.519 632.331 179.715 629.221 180.493C625.648 181.386 620.441 179.802 616.979 179.092C611.056 177.879 604.868 176.902 599.195 174.859C594.766 173.265 589.982 172.786 585.37 171.967C574.988 170.122 564.289 168.857 554.127 166.059C550.45 165.046 547.057 163.476 543.286 162.527C537.363 161.035 531.34 160.025 525.441 158.446C519.53 156.863 513.589 154.002 507.688 152.691C503.179 151.689 498.422 151.56 493.832 150.894C487.46 149.969 468.152 150.623 474.526 151.534C486.016 153.175 497.736 154.167 509.302 155.279C518.233 156.138 527.418 156.898 536.404 157.045C549.207 157.255 561.902 160.035 574.469 162.252C585.76 164.245 596.375 168.541 607.448 171.266C618.574 174.005 629.217 175.946 640.67 176.656C649.314 177.192 657.986 177.326 666.646 177.326C667.473 177.326 668.564 177.366 668.564 176.23C668.564 174.061 664.655 173.365 663.205 172.941C656.807 171.071 650.197 170.574 643.655 170.2C634.015 169.65 624.283 166.548 614.665 165.237C602.852 163.626 591.581 160.443 579.95 158.02C554.948 152.811 529.413 147.727 503.851 147.727C497.052 147.727 490.635 149.546 484.819 153.208C481.27 155.443 476.951 156.956 473.704 159.481C471.836 160.934 469.623 161.177 468.131 163.166C466.782 164.965 464.527 166.877 463.685 168.982C462.731 171.369 464.283 166.635 464.416 166.181C465.33 163.062 467.031 160.385 469.045 157.867C469.298 157.551 470.426 156.528 470.019 156.071C469.086 155.021 463.927 161.049 463.381 161.613C459.852 165.254 455.342 171.095 455.342 176.473C455.342 179.008 455.483 181.183 455.859 183.63C456.645 188.738 453.264 195.017 452.053 199.799C450.454 206.109 448.439 212.364 446.267 218.497C443.359 226.706 439.994 236.477 439.994 245.294C439.994 250.698 439.446 256.157 439.446 261.464C439.446 263.22 439.446 264.976 439.446 266.732C439.446 269.012 439.602 268.898 441.212 267.524C444.261 264.921 446.571 261.542 446.571 257.475C446.571 254.845 446.821 251.793 447.15 249.162C447.731 244.515 449.309 238.084 451.231 233.814C456.724 221.606 459.434 207.801 462.589 194.866C463.909 189.455 464.875 183.883 466 178.422C466.585 175.581 466.672 171.706 469.593 170.322C472.102 169.134 474.592 168.858 477.297 169.378C486.967 171.238 496.653 173.042 506.348 174.859C518.923 177.217 531.602 178.496 544.2 180.615C556.989 182.766 570.155 181.819 582.995 184.025C591.866 185.55 600.357 187.173 609.092 188.837C621.485 191.197 633.364 192.674 646.03 192.674C648.725 192.674 654.041 192.054 655.835 189.811C657.331 187.941 647.99 186.589 647.37 186.522C635.656 185.273 623.728 187.147 612.107 184.726C608.546 183.984 604.975 183.281 601.449 182.381C598.944 181.742 596.347 181.886 593.897 181.041C587.693 178.902 580.824 177.391 574.347 176.23C563.127 174.219 552.29 169.904 541.154 167.46C530.753 165.177 520.763 161.664 510.124 160.334C502.787 159.417 495.784 158.142 488.351 158.142C482.652 158.142 478.612 165.233 475.896 169.378C473.169 173.54 472.648 177.783 471.116 182.381C469.502 187.222 467.433 191.936 465.208 196.511C464.453 198.063 462.528 201.57 462.528 203.271C462.528 203.848 463.259 202.378 463.624 201.931C464.833 200.454 465.942 198.895 467.157 197.424C468.406 195.912 470.368 194.474 471.907 193.222C476.383 189.579 480.834 187.339 486.463 186.401C491.296 185.595 496.296 185.251 501.171 184.756C504.485 184.42 508.223 183.356 511.494 183.356C516.046 183.356 521.541 181.662 526.05 180.737C531.312 179.657 537.677 180.615 543.042 180.615C544.713 180.615 554.9 179.962 551.173 177.539C549.577 176.502 548.876 175.378 547.092 175.103C542.118 174.338 537.173 173.449 532.141 173.002C523.776 172.258 515.795 168.139 507.414 166.942C503.107 166.327 498.356 165.897 494.015 165.815C491.206 165.762 487.86 165.253 486.037 167.886C483.591 171.419 483.779 176.299 481.895 180.067C481.456 180.947 480.845 181.77 480.251 182.533C479.988 182.871 477.992 184.568 478.15 184.726C479.812 186.388 489.229 182.868 491.396 182.381C494.192 181.753 496.72 180.02 499.192 178.849C500.464 178.246 501.394 177.958 502.755 177.6C504.049 177.26 507.024 177.26 507.932 176.504C508.527 176.008 509.595 176.23 510.337 176.23C513.142 176.23 504.749 176.801 501.994 177.326C499.362 177.827 496.635 178.422 493.954 178.422C492.344 178.422 490.688 178.537 489.082 178.422C485.372 178.157 496.51 178 500.227 177.874C524.665 177.046 548.976 176.23 573.433 176.23C578.826 176.23 582.756 177.215 587.745 178.97C592.311 180.577 595.786 183.803 600.048 185.974C610.558 191.328 621.506 191.029 632.966 191.029C637.393 191.029 641.781 192.126 646.091 192.126C646.84 192.126 650.346 192.915 649.501 193.252C645.879 194.701 642.292 195.828 638.539 195.962C636.744 196.027 633.179 196.511 633.179 196.511C633.179 196.511 638.309 195.962 640.884 195.962C642.732 195.962 645.796 196.088 647.309 194.988C647.935 194.532 650.538 194.026 651.329 193.8C653.489 193.183 655.337 191.585 657.419 191.029C662.675 189.628 667.182 186.96 672.097 184.726C673.673 184.009 675.914 183.176 677.212 182.137C678.888 180.797 681.439 179.209 677.639 181.163C676.46 181.769 672.626 183.211 671.853 184.178C671.176 185.024 668.315 186.913 667.194 187.162C664.449 187.772 661.906 190.697 659.246 191.029C656.101 191.422 652.913 193.222 649.38 193.222C647.691 193.222 645.895 194.318 644.172 194.318C643.221 194.318 642.489 194.866 641.493 194.866C640.059 194.866 644.356 194.599 645.756 194.288C648.628 193.649 651.992 191.746 654.861 191.577C656.203 191.499 657.75 190.869 659.002 190.512C659.536 190.359 655.429 192.316 654.069 192.704C652.805 193.065 651.908 194.318 650.476 194.318C649.756 194.318 652.018 194.358 652.333 194.288C653.363 194.059 654.269 193.354 655.409 193.191C658.582 192.738 661.926 190.908 664.727 189.507C669.479 187.131 675.113 186.782 679.801 184.178C684.48 181.578 689.778 180.358 694.326 177.326" stroke="black" stroke-width="10" stroke-linecap="round"/>
<path fill-rule="evenodd" clip-rule="evenodd" d="M552.832 415.757C560.834 399.757 634.223 406.949 634.223 406.949L640.422 457.807C640.422 457.807 605.012 469.19 583.933 466.805C562.854 464.419 544.83 431.757 552.832 415.757Z" fill="white"/>
<path fill-rule="evenodd" clip-rule="evenodd" d="M558.003 442.471C555.468 437.047 607.934 422.256 624.178 432.364C640.422 442.471 635.343 456.256 635.343 456.256C635.343 456.256 567.02 471.84 558.003 442.471Z" fill="#E6E6E6"/>
<path fill-rule="evenodd" clip-rule="evenodd" d="M548.281 406.29C560.527 392.06 581.152 391.069 598.237 394.627C609.201 396.911 619.876 400.715 631.012 402.125C636.213 402.784 641.47 402.981 646.709 402.884C651.855 402.789 657.009 401.752 662.137 401.945C662.925 401.974 663.223 403.009 662.54 403.43C655.505 407.751 646.028 409.137 637.718 409.982C637.744 410.597 637.781 411.197 637.866 411.706C638.093 413.063 638.3 414.411 638.467 415.777C638.844 418.858 639.266 421.929 639.687 425.004C640.517 431.056 640.778 437.299 642.237 443.245L642.492 444.234C642.83 445.484 642.907 446.611 642.794 447.627L643.132 447.474L644.2 446.957L644.9 446.626C647.454 445.442 649.89 444.58 652.893 444.868C655.179 445.086 657.098 446.645 657.112 449.086C657.169 460.041 642.405 463.564 633.96 465.661L631.483 466.271C620.734 468.893 609.759 471.191 598.703 471.741C580.961 472.622 561.024 467.728 549.418 453.337C538.589 439.91 536.604 419.858 548.281 406.29ZM628.852 452.318C626.99 435.824 606.722 434.917 600.891 445.377C598.304 430.798 560.028 444.117 563.021 447.015C574.365 458.001 591.58 458.99 606.379 456.958C613.916 455.923 621.459 454.238 628.852 452.318ZM606.358 409.088L601.262 408.355L599.255 408.078C586.623 406.387 572.416 405.513 562.03 413.612C558.238 416.568 556.104 420.424 555.307 424.566C565.135 423.109 574.998 421.998 584.891 421.073L587.59 420.825C593.78 420.267 599.967 419.679 606.151 419.062L610.546 418.617L614.939 418.161C616.485 417.999 626.904 417.466 628.863 417.824C629.072 416.064 629.345 412.255 629.787 410.542C622.385 410.793 615.015 410.243 607.656 409.265L606.358 409.088ZM629.814 335.367C637.366 339.957 648.872 350.66 640.748 362.04C631.186 372.073 617.419 360.569 610.634 355.366C604.344 351.334 597.276 361.705 603.112 366.413C652.136 402.708 672.031 336.567 633.634 329.97C629.406 329.244 627.836 333.947 629.814 335.367ZM643.328 354.704L643.691 354.507L643.814 354.432C644.026 354.295 643.891 354.31 643.408 354.477L643.046 354.607V354.863C643.139 354.806 643.238 354.763 643.328 354.704ZM546.617 313.924L546.616 313.699C546.63 307.322 550.344 292.762 559.524 292.762C565.259 292.762 568.741 302.671 569.344 312.886L569.365 313.302C569.631 319.653 567.888 333.534 559.524 333.534C551.072 333.534 546.704 320.387 546.617 313.924V313.924ZM681.773 311.924L681.774 311.699C681.76 305.322 678.046 290.762 668.866 290.762C663.274 290.762 659.825 300.182 659.097 310.12L659.046 310.886C658.684 317.022 660.314 331.534 668.866 331.534C677.318 331.534 681.686 318.387 681.773 311.924V311.924ZM551.855 249.285C559.347 248.146 569.268 250.31 572.761 257.928C574.317 261.322 572.474 265.075 568.551 265.263C559.07 265.717 550.567 263.607 542.245 269.772C538.664 272.426 535.653 276.1 533.126 279.764L532.17 281.159L531.378 282.308C529.662 284.831 528.038 287.571 528.291 290.615C528.366 291.516 527.445 292.371 526.57 292.335C521.116 292.111 520.529 285.273 521.246 281.166C522.58 273.544 526.269 266.389 531.382 260.626C536.752 254.574 543.841 250.504 551.855 249.285ZM655.044 258.535C660.21 255.214 666.818 253.938 672.87 254.427C684.803 255.388 704.822 265.532 702.187 280.107C701.374 284.602 695.122 286.974 691.438 284.48C687.477 281.799 686.513 277.632 683.565 274.128C681.213 271.329 678.232 269.304 675.04 267.579C671.894 265.878 668.254 264.847 664.684 264.471L664.089 264.414C661.94 264.231 651.088 264.28 652.681 268.331C652.993 269.124 651.813 269.752 651.271 269.152C647.944 265.472 651.712 260.677 655.044 258.535Z" fill="black"/>
</svg>
