<svg width="835" height="1223" viewBox="0 0 835 1223" fill="none" xmlns="http://www.w3.org/2000/svg">
<g filter="url(#filter0_d_7_19307)">
<path fill-rule="evenodd" clip-rule="evenodd" d="M266.813 574.704C316.598 563.739 346.126 563.739 362.834 546.751C379.541 529.764 382.573 500.606 389.505 478.092C393.324 465.687 430.74 454.419 467.035 456.183C496.612 457.621 526.421 470.11 528.723 478.092C533.851 495.869 542.097 571.966 569.215 583.657C596.333 595.348 654.226 584.689 670.778 612.609C687.331 640.529 741.689 754.341 741.689 780.861C741.689 807.38 210.243 799.271 210.243 799.271C210.243 799.271 217.028 585.669 266.813 574.704Z" fill="#F2F2F2"/>
<path fill-rule="evenodd" clip-rule="evenodd" d="M37.7854 1192.44C38.5454 1192.98 37.9454 1192.99 37.7854 1192.44ZM34.8354 1190.24C34.8854 1190.28 34.9454 1190.32 35.0054 1190.36C34.4054 1190.31 34.0354 1189.7 34.8354 1190.24M821.335 1119.93C817.995 1105.66 814.665 1091.38 811.325 1077.11C804.355 1047.27 797.375 1017.42 790.405 987.57C776.755 929.19 763.115 870.81 749.465 812.43C742.535 782.76 734.615 753.32 727.465 723.7C721.205 697.74 716.035 671.16 705.285 646.59C694.315 621.51 675.045 600.55 649.525 589.92C628.035 580.98 603.865 576.03 580.465 574.9C583.405 571.3 584.095 565.97 579.805 561.62C574.485 556.23 573.405 548.22 571.985 541.09C570.215 532.18 567.465 522.63 562.165 515.13C559.925 511.96 556.665 510.48 552.825 511.33C550.465 511.85 548.144 512.46 545.855 513.15C545.115 512.41 544.385 511.62 543.745 510.66C542.295 508.44 541.355 505.19 539.275 503.49C537.865 502.33 536.264 502.05 534.615 502.89C530.184 505.14 529.815 511.95 530.764 516.13C530.955 516.94 531.184 517.75 531.465 518.54C531.165 518.68 530.855 518.82 530.545 518.96H530.535C524.755 517.86 517.375 520.18 511.735 520.74C505.184 521.39 498.605 521.82 492.025 522.03C478.555 522.46 465.065 522.06 451.655 520.71C438.585 519.41 425.605 517.32 412.695 514.96C404.655 513.49 394.855 512.27 387.795 507.44C387.684 505.03 387.625 502.61 387.575 500.2C387.474 496.01 387.695 492.72 385.465 489.04C385.434 489 385.385 488.99 385.335 489.01C382.575 490.45 380.595 492.91 379.144 495.83C376.495 495.12 373.644 495.22 371.175 496.25C367.684 497.7 365.085 499.37 362.375 502.05C358.345 506.02 357.165 510.66 355.985 515.99C355.135 519.81 354.605 522.54 353.085 525.1C352.755 525.65 352.405 526.23 352.025 526.76C351.885 526.9 351.625 527.17 351.184 527.63C350.745 528.07 350.305 528.5 349.855 528.93C349.595 529.19 348.315 530.23 348.514 530.09C342.974 534.21 337.965 535.76 331.125 537.73C316.405 541.97 301.325 544.74 286.655 549.24C270.625 554.16 254.945 560.14 239.615 566.93C179.985 593.34 126.615 635.15 90.2254 689.6C47.8454 753.02 32.2454 830.05 24.5154 904.73C16.0554 986.58 16.6454 1069.36 14.7954 1151.55C14.5654 1161.83 14.3354 1172.11 14.1054 1182.39C13.8754 1192.44 13.2554 1203.26 22.1754 1210.03C30.1254 1216.05 39.8054 1214.16 48.6054 1211.45C58.0254 1208.56 67.6154 1206.26 77.3254 1204.61C95.6454 1201.52 114.545 1201.15 133.025 1202.95C142.955 1203.92 155.105 1207.6 163.265 1199.82C166.195 1197.02 167.885 1193.47 169.265 1189.74C170.985 1185.14 172.995 1180.63 174.995 1176.11C176.645 1172.39 178.285 1168.65 179.925 1164.92C182.585 1176.57 185.245 1188.22 187.905 1199.88C188.955 1204.47 193.745 1204.82 196.635 1202.59C201.355 1205.12 207.555 1205.07 212.915 1205.69C221.535 1206.68 230.224 1207.02 238.885 1207.32C255.855 1207.9 272.825 1208.22 289.805 1208.44C324.425 1208.88 359.045 1208.72 393.655 1208.57C462.224 1208.27 530.785 1206.87 599.325 1205.09C618.625 1204.59 637.925 1204.14 657.224 1203.67C666.865 1203.44 676.514 1203.21 686.165 1202.94C689.055 1202.86 691.974 1202.59 694.715 1201.95H694.724C695.945 1203.02 697.445 1203.84 699.235 1204.33C705.644 1206.09 712.014 1202.17 713.934 1195.98C714.825 1193.14 715.445 1190.54 715.224 1187.78C715.555 1185.7 715.885 1183.62 716.215 1181.54C726.915 1188.31 739.755 1190.15 752.425 1189.31C766.755 1188.36 781.085 1185.74 795.305 1183.79C808.655 1181.96 830.295 1182.55 830.935 1164.11C831.165 1157.36 828.314 1149.79 826.795 1143.29C824.974 1135.5 823.155 1127.72 821.335 1119.93" fill="black"/>
</g>
<path fill-rule="evenodd" clip-rule="evenodd" d="M573.419 82.0239C519.95 66.3309 336.066 82.4169 331.519 85.8159C324.078 91.9989 287.883 111.617 282.251 116.096C231.326 170.07 279.874 250.223 276.138 315.335C276.376 338.431 266.534 359.519 262.01 381.738C260.1 393.382 260.521 405.426 266.59 415.88C277.26 434.56 299.793 438.347 318.119 445.879C327.238 449.805 335.758 455.372 343.568 461.463C396.152 507.98 425.422 539.834 502.149 529.34C502.541 533.003 505.786 536.602 509.809 534.965C519.229 531.129 528.582 527.06 538.084 523.424C540.115 528.318 545.949 529.715 549.901 525.393L549.924 525.424C567.513 511.156 578.699 491.647 587.007 470.762C592.821 458.713 597.582 446.141 601.22 433.195C601.631 431.73 601.577 430.421 601.205 429.294C617.991 371.451 624.203 310.487 619.784 250.43C618.889 238.039 616.549 225.484 617.124 213.041C617.644 201.799 622.487 191.165 626.179 180.695C645.217 136.186 616.115 96.0379 573.419 82.0239Z" fill="white"/>
<path fill-rule="evenodd" clip-rule="evenodd" d="M580.145 9.75603L580.715 9.31416C586.88 4.47772 592.692 -1.86083 601.385 0.516034C608.515 2.46603 612.115 8.36603 613.645 15.496C615.815 13.226 617.925 10.876 619.985 8.44603C625.585 1.84603 638.095 5.26603 639.765 13.676C643.145 30.616 643.315 47.856 640.025 64.826C639.525 67.396 638.935 69.956 638.245 72.486C641.995 67.816 645.485 62.946 648.615 57.816C652.005 52.246 659.665 55.006 660.195 60.956C660.335 62.496 660.415 64.056 660.435 65.626C662.825 66.466 664.475 68.926 663.845 71.946C660.365 88.566 655.955 104.956 650.655 121.066C659.175 116.546 668.725 113.866 677.715 117.056C691.995 122.136 695.395 137.716 692.605 151.126C689.095 167.986 678.055 182.096 663.815 191.346C662.125 193.886 660.455 196.446 658.865 199.056C658.835 206.426 657.495 213.776 654.795 220.606C651.755 228.276 646.395 234.906 639.795 239.946C637.475 244.997 631.331 248.687 625.938 247.664L625.655 247.606L625.645 247.616C627.025 252.556 628.215 257.546 629.245 262.546C637.22 301.284 633.182 341.608 625.908 380.127L625.675 381.356C619.145 415.636 611.545 451.136 596.775 482.966C583.415 511.746 560.765 537.056 528.395 543.336C490.315 550.726 448.165 539.016 415.415 519.486C403.545 512.406 414.425 493.746 426.245 500.946C443.305 511.326 461.835 518.576 481.435 522.396C499.755 525.956 520.245 527.166 537.815 519.786C562.285 509.506 576.825 484.396 586.025 460.756C591.445 446.806 595.505 432.406 599.285 417.946C604.155 399.356 608.695 380.646 612.105 361.726C618.455 326.436 620.515 289.786 613.795 254.396C611.655 243.106 608.625 231.746 604.675 220.826C604.055 220.056 603.465 219.196 602.935 218.256C598.805 211.016 595.955 202.786 592.885 194.956C590.195 190.286 587.255 185.796 584.135 181.406C579.47 177.821 575.027 173.988 570.957 169.806C582.778 162.152 593.209 152.57 600.714 140.364C601.952 138.351 601.166 136.427 599.699 135.342C593.706 142.839 585.948 149.188 577.788 154.813C573.608 158.393 569.106 161.609 564.388 164.515C561.017 165.182 557.609 165.64 554.305 166.016C544.895 167.086 535.435 166.686 526.075 165.436C505.835 162.736 420.237 139.162 384.155 148.326C376.639 150.235 373.095 156.976 369.115 163.306C365.662 168.812 361.271 173.37 356.004 177.122L355.415 177.536C345.115 184.666 324.406 207.222 315.701 227.354C304.461 253.346 293.665 331.236 298.635 331.906C311.635 333.666 318.835 340.506 329.425 347.846C330.125 348.326 329.715 349.626 328.815 349.296C321.825 346.776 314.265 345.286 306.935 344.066C300.305 342.956 293.325 342.756 286.925 345.126C277.105 348.766 272.315 356.996 270.345 366.276C269.575 369.906 269.235 373.696 269.195 377.446L269.189 378.534C269.194 390.357 271.399 403.464 279.985 412.186C283.635 415.896 288.585 418.396 293.765 419.086C299.435 419.846 302.935 417.286 308.145 415.956C314.145 414.426 318.825 418.376 318.265 423.526C319.535 424.636 320.765 425.806 321.985 426.996L321.986 427.001L321.995 427.006C322.795 427.366 323.555 427.846 324.245 428.426C325.375 429.386 326.325 430.436 327.085 431.566C328.775 431.896 330.395 432.836 331.725 434.556C334.465 438.086 336.995 441.656 339.345 445.296C343.555 449.766 347.745 454.246 351.875 458.796C356.846 464.265 361.685 469.858 366.556 475.419L368.995 478.196C371.625 481.186 374.245 484.176 376.865 487.176L377.646 488.057C380.282 491.008 382.302 493.187 382.585 497.436C382.785 500.586 379.395 502.726 376.585 502.006C372.252 500.889 370.241 497.488 367.645 494.114L363.725 489.085V489.085L360.035 484.346C358.205 481.986 356.355 479.636 354.515 477.286C353.965 481.616 349.385 485.106 345.205 485.296L344.23 485.334C334.414 485.66 322.486 484.275 315.015 477.356C311.655 480.746 307.475 483.416 302.325 485.016C290.625 488.656 278.665 482.206 273.935 472.396C264.765 476.326 254.405 477.116 244.495 474.226C238.779 472.551 236.802 465.427 240.785 461.067L240.965 460.876L241.011 460.824C240.189 459.755 239.737 458.447 239.664 457.022C239.575 455.292 240.836 453.458 240.576 451.843C239.584 445.684 229.54 450.247 226.348 451.581C225.738 451.835 225.166 451.956 224.632 451.975C219.697 453.412 214.33 446.928 216.915 441.576C222.705 429.616 228.355 417.566 234.215 405.626C233.475 405.876 232.715 406.106 231.965 406.296C221.435 408.996 208.665 403.816 211.095 391.126C211.655 388.146 214.355 386.106 217.035 385.186C222.255 383.386 226.175 384.686 230.195 383.006C234.725 381.126 239.455 377.676 243.435 374.426C247.685 370.966 251.355 367.076 254.605 362.856C255.905 356.726 258.155 350.866 261.755 345.826C261.975 345.526 262.195 345.226 262.425 344.936C239.338 339.432 242.361 316.726 232.177 296.605L231.317 294.937C224.4 281.477 218.366 266.303 221.855 250.976C222.475 248.266 223.375 245.676 224.535 243.256C222.685 243.486 220.825 243.696 218.975 243.906C214.725 244.386 210.405 238.906 212.095 234.876C212.985 232.766 213.965 230.726 215.025 228.746C217.965 223.286 221.575 218.326 225.825 213.846C218.685 213.656 211.535 213.656 204.475 212.836C197.805 212.066 190.795 208.416 191 200.726C191.207 193.394 197.64 187.844 203.605 184.267C209.476 176.458 216.923 169.968 225.346 165.145C223.679 164.77 221.991 164.493 220.275 164.322L219.415 164.246C214.605 163.866 210.285 162.546 205.925 160.536C202.025 158.736 202.085 153.276 204.635 150.526C212.879 141.614 225.231 144.516 234.842 149.623C234.172 148.774 233.439 147.956 232.641 147.173L232.154 146.708C227.432 142.311 234.519 135.255 239.225 139.637C240.712 141.022 242.044 142.527 243.232 144.122L243.345 143.886V143.886C249.562 131.274 258.656 119.986 269.416 110.94L271.944 108.838C291.346 92.6313 297.333 84.9498 323.135 87.336C322.035 82.6491 322.142 77.3766 322.39 73.0413L322.425 72.456C323.415 56.156 329.425 36.646 345.325 29.326C349.455 27.436 354.135 30.526 353.035 35.256C352.265 38.606 351.325 41.866 350.155 45.036C353.625 41.386 357.345 37.976 361.285 34.836C377.345 22.036 398.805 11.026 419.915 14.626C431.515 16.616 440.615 23.896 450.325 29.976C460.085 36.096 470.985 39.726 482.415 41.036C498.385 42.876 514.415 41.026 530.205 38.106C541.055 33.376 551.585 27.836 561.865 21.866C568.185 18.196 574.335 14.186 580.145 9.75603ZM296.605 363.786C299.985 362.916 303.775 362.926 307.165 363.776C315.915 365.976 324.055 373.296 324.565 382.526C324.795 386.696 321.435 390.686 317.535 391.756C313.115 392.976 309.315 390.816 306.735 387.356C303.965 383.656 303.275 379.646 299.885 376.286L299.104 375.525C296.222 372.769 291.864 369.207 287.865 369.846C287.275 369.936 286.835 369.136 287.435 368.816C290.695 367.036 292.835 364.746 296.605 363.786ZM342.055 320.316C343.598 319.056 345.637 320.534 344.911 322.346L344.855 322.476C343.025 326.336 345.175 330.866 347.395 334.096C349.305 336.886 345.695 339.536 343.155 338.336C336.015 334.946 336.385 324.916 342.055 320.316ZM368.155 204.346C368.025 203.406 369.275 203.016 369.595 203.946C374.925 219.416 376.455 233.116 375.585 249.476L375.503 250.927C374.561 266.686 371.801 283.364 362.265 296.306C360.055 299.296 355.535 297.536 356.265 293.776C359.195 278.726 364.825 264.436 367.015 249.206C369.305 233.286 370.335 220.276 368.155 204.346ZM318.375 260.576C319.155 256.446 325.505 252.196 328.715 256.346C329.795 257.756 328.525 259.486 327.225 260.006C326.005 260.486 324.915 259.826 323.715 260.066C322.744 260.262 322.035 260.867 321.563 261.695L321.465 261.876C320.525 263.676 318.045 262.336 318.375 260.576ZM315.775 227.676C318.055 223.456 323.305 220.766 327.795 223.396C329.275 224.266 328.695 226.796 326.895 226.716L325.829 226.673C322.627 226.556 319.426 226.621 316.735 228.646C316.135 229.096 315.475 228.246 315.775 227.676ZM323.792 112.428C311.003 106.678 298.284 111.869 287.841 119.965C286.977 120.635 286.558 121.417 286.466 122.203C293.438 119.488 300.861 117.708 307.957 116.239C313.759 115.037 319.616 114.226 325.48 113.906C325.152 113.317 324.613 112.797 323.792 112.428Z" fill="black"/>
<path d="M323.597 116.426C323.597 113.87 322.437 114.014 320.06 114.363C318.913 114.532 311.592 115.837 313.577 115.837C314.659 115.837 317.685 114.034 314.985 115.28C313.937 115.764 308.14 118.85 312.267 117.016C313.652 116.4 319.884 113.995 318.292 112.006C316.986 110.372 314.256 111.486 312.594 111.842C309.778 112.445 306.392 114.286 304.768 116.721C303.355 118.841 303.997 121.221 306.896 120.782C309.981 120.314 318.882 117.834 318.882 113.479C318.882 111.284 301.185 115.439 299.627 116.099C296.636 117.364 304.146 115.446 304.146 112.89C304.146 112.014 301.866 114.58 301.657 114.789C299.255 117.191 296.628 119.651 294.486 122.288C292.371 124.89 296.607 117.494 296.942 116.557C298.372 112.551 289.219 120.108 288.231 120.88C286.677 122.094 285.3 123.484 283.909 124.875C282.433 126.35 287.215 122.28 288.558 120.683C289.591 119.456 290.877 117.43 289.279 120.094C287.706 122.715 286.153 125.446 285.153 128.346C284.708 129.635 291.702 121.109 291.702 121.469C291.702 123.314 289.956 126.243 289.41 128.084C288.648 130.651 287.505 133.053 286.921 135.681C286.337 138.309 286.376 136.309 286.528 134.83C287.14 128.867 288.996 123.035 289.672 117.048C289.958 114.514 290.493 110.603 289.279 108.174C288.603 106.823 284.829 114.687 284.629 115.051C280.299 122.905 275.908 130.757 271.923 138.792C270.422 141.82 268.546 145.026 267.994 148.419C267.881 149.11 267.496 151.078 268.616 149.893C273.263 144.973 279.71 141.146 285.087 137.056C293.256 130.843 301.56 124.419 310.433 119.242C311.402 118.677 314.894 115.951 316.164 116.459C316.609 116.637 313.562 126.106 313.347 126.938C311.829 132.834 310.13 139.939 310.662 146.062C310.934 149.193 317.264 142.706 317.801 142.198C324.883 135.484 332.02 128.685 338.595 121.469C342.681 116.985 346.715 111.188 351.3 107.257C353.71 105.192 348.437 112.926 346.847 115.673C343.687 121.131 340.322 127.139 338.497 133.225C337.803 135.536 339.596 133.233 340.101 132.668C343.825 128.509 347.429 124.232 351.104 120.028C358.156 111.963 365.126 103.94 371.079 95.0102C372.895 92.2863 372.747 92.3257 371.865 95.6651C371.265 97.9384 367.647 106.317 369.016 108.371C369.181 108.619 369.364 107.872 369.442 107.585C370.362 104.186 371.258 100.744 371.996 97.3024C373.44 90.573 375.646 81.7115 374.747 74.773C373.88 68.0855 367.87 100.542 367.87 93.7986C367.87 88.2984 368.827 82.9145 369.769 77.5236C369.994 76.238 371.524 69.025 369.9 74.3145C367.725 81.4007 365.379 88.5008 363.482 95.6651C362.674 98.7163 363.906 95.1691 364.857 94.0278" stroke="black" stroke-width="10" stroke-linecap="round"/>
<path d="M554.489 160.243C554.668 161.677 558.571 163.897 559.798 164.248C563.609 165.336 563.404 163.865 560.158 163.483C558.762 163.319 554.567 162.176 553.274 161.458C551.622 160.54 550.578 161.834 552.465 162.673C554.136 163.416 555.642 163.357 557.369 163.933C562.49 165.64 572.643 164.107 576.355 168.747C577.73 170.465 580.331 170.55 581.844 171.761C582.647 172.403 589.634 174.374 588.323 172.571C586.088 169.498 585.135 167.085 581.664 165.102C579.901 164.095 577.195 162.859 575.725 161.683C573.454 159.866 582.99 154.789 584.859 153.36C588.307 150.723 593.619 146.679 595.792 142.876C597.402 140.058 603.193 131.974 596.242 136.398C588.855 141.098 577.453 139.187 569.067 139.187" stroke="black" stroke-width="10" stroke-linecap="round"/>
<path d="M295.289 330.089C296.384 327.17 313.068 332.961 315.878 333.117C319.9 333.341 325.243 336.367 327.249 339.778C327.745 340.621 328.376 341.646 329.066 342.335C329.441 342.71 329.192 340.896 329.201 340.519C329.256 337.976 330.017 335.507 330.277 332.983C331.025 325.73 334.006 319.2 335.122 312.057C338.282 291.833 342.73 271.74 346.459 251.602C348.755 239.202 352.469 227.137 354.937 214.797C356.16 208.681 357.552 201.755 359.782 195.957C360.185 194.908 366.027 174.655 362.507 174.46C356.519 174.127 349.809 178.337 346.627 183.543C340.176 194.1 330.933 202.888 324.356 213.485C312.178 233.106 305.625 253.845 300.403 276.228C298.074 286.209 298.317 296.213 298.317 306.439C298.317 309.982 298.317 313.526 298.317 317.07C298.317 320.6 299.675 321.475 302.556 322.688C304.966 323.703 309.163 322.726 311.774 322.823C313.633 322.891 318.78 323.327 320.252 324.505C327.624 330.403 329.054 303.22 330.109 299.845C331.44 295.585 332.276 291.123 333.44 286.758C335.799 277.91 336.621 268.935 338.62 260.08C341.199 248.659 341.438 236.705 344.811 225.462C346.98 218.232 347.452 210.82 349.655 203.661C350.745 200.119 351.717 196.543 352.683 192.896C353.086 191.374 353.937 189.99 354.029 188.388C354.125 186.709 356.389 183.252 355.711 181.726C352.502 174.507 341.03 195.015 340.033 196.664C336.798 202.016 336.062 206.83 334.18 212.476C331.186 221.456 329.86 231.004 326.913 240.062C322.565 253.429 317.65 266.735 313.826 280.265C311.044 290.109 308.457 300.199 306.492 310.24C305.921 313.159 305.852 316.384 304.978 319.223C304.372 321.194 304.373 315.128 304.373 313.066C304.373 303.743 304.437 294.189 305.315 284.908C306.736 269.878 311.198 255.65 314.936 241.139C317.534 231.054 318.806 220.715 322.068 210.928C323.696 206.045 323.487 215.838 323.481 216.714C323.383 233.335 318.061 249.698 314.331 265.765C313.392 269.809 312.386 273.823 311.505 277.876C311.199 279.283 311.246 278.776 311.505 277.742C313.65 269.162 315.992 260.819 318.906 252.443C321.268 245.652 322.289 238.333 324.962 231.652C327.082 226.351 323.43 243.022 321.732 248.473C317.936 260.658 314.008 272.897 311.505 285.412C310.542 290.228 309.217 295.205 309.217 300.148C309.217 307.08 305.603 316.767 315.575 316.767C317.339 316.767 316.436 317.421 317.998 315.859C319.048 314.808 319.777 314.487 320.454 313.134C322.461 309.118 323.145 305.214 323.145 300.72C323.145 299.508 323.145 298.297 323.145 297.086C323.145 294.212 322.234 298.384 321.9 299.273C320.475 303.073 319.256 306.991 317.661 310.711C317.595 310.867 315.53 315.775 315.306 314.547C313.731 305.885 314.615 298.316 318.94 290.963C321.093 287.302 322.724 283.746 324.356 279.828C324.654 279.113 324.962 276.846 324.962 278.785C324.962 283.01 324.401 287.165 323.751 291.333C323.311 294.154 322.698 302.661 322.539 299.811C322.329 296.015 323.192 292.578 323.616 288.844C324.406 281.894 325.435 274.565 327.518 267.851C328.716 263.994 328.548 259.945 329.672 256.076C330.919 251.778 331.712 246.651 332.262 242.249C332.879 237.31 334.714 232.324 335.862 227.446C336.897 223.049 337.083 218.032 338.587 213.821C340.733 207.813 340.803 200.959 344.34 195.654" stroke="black" stroke-width="10" stroke-linecap="round"/>
<path d="M299.528 330.695C300.437 330.809 303.246 332.777 304.372 333.252C306.125 333.99 308.499 335.438 310.428 335.539C313.41 335.696 317.85 338.992 319.982 341.124C321.308 342.45 321.84 342.564 322.674 341.73C323.607 340.797 326.398 343.522 326.644 343.277C327.745 342.176 326.324 335.952 326.038 334.665C325.578 332.595 325.24 330.041 324.356 328.273" stroke="black" stroke-width="10" stroke-linecap="round"/>
<path d="M369.341 205.242C369.519 210.039 371.439 214.617 371.439 219.504C371.439 221.823 371.439 224.141 371.439 226.46C371.439 231.484 370.108 236.498 369.419 241.461C368.799 245.92 367.893 250.424 366.543 254.712C365.642 257.573 365.244 260.592 364.289 263.456C363.329 266.337 362.256 269.166 361.297 272.045C360.174 275.412 358.894 278.695 357.993 282.149C357.353 284.605 356.651 287.189 355.778 289.571C355.26 290.986 355.082 292.716 354.301 294.001C353.587 295.178 353.841 296.685 353.33 297.926C352.924 298.911 355.475 297.507 356.361 296.916C358.45 295.524 360.88 294.331 362.423 292.33C365.473 288.377 366.949 283.974 368.214 279.195C369.088 275.892 370.333 272.629 371.284 269.324C372.794 264.079 373.228 259.003 373.81 253.624C374.502 247.223 374.937 240.763 374.937 234.33C374.937 232.532 375.287 237.914 375.287 239.712C375.287 243.491 374.639 247.448 374.063 251.176C371.651 266.772 365.861 281.769 359.392 296.1C357.506 300.279 355.006 304.539 353.621 308.924C353.43 309.53 352.902 310.454 352.902 311.042C352.902 313.145 351.775 315.103 351.154 317.124C351.036 317.506 348.466 321.62 348.006 320.816C347.345 319.659 347.533 318.297 346.413 319.417C345.68 320.149 345.212 320.385 344.878 321.554C344.513 322.829 344.159 323.659 344.159 325.032C344.159 327.933 344.259 330.642 344.878 333.426C345.125 334.539 346.108 335.036 345.888 336.244C345.355 339.175 343.611 336.743 342.934 335.525C341.99 333.825 340.159 330.016 342.235 328.355C343.571 327.286 344.934 326.293 346.374 325.246C347.827 324.189 349.172 323.012 350.707 322.021C354.541 319.543 358.616 317.451 362.657 315.336C376.013 308.346 389.297 301.232 402.567 294.079" stroke="white" stroke-width="10" stroke-linecap="round"/>
<path d="M337.637 303.555C338.877 303.4 341.464 299.294 341.996 298.17C343.012 296.026 344.321 293.892 345.444 291.759C349.287 284.457 350.537 275.852 353.764 268.225C357.85 258.565 359.179 247.339 361.855 237.169C363.109 232.406 364.552 226.742 366.585 222.296C368.725 217.615 370.327 211.887 374.05 208.164C377.804 204.41 380.523 200.29 385.076 197.138C391.284 192.84 397.867 190.637 404.593 187.365C407.694 185.856 411.66 184.886 415.078 184.601C422.129 184.014 429.09 182.228 436.219 182.008C441.591 181.843 446.879 180.983 452.289 180.983C455.888 180.983 460.133 180.514 463.571 181.78C472.538 185.084 482.788 185.139 491.522 188.96C496.741 191.244 502.394 194.626 508.304 194.83C512.701 194.981 517.031 195.855 521.495 195.855C526.307 195.855 531.131 195.958 535.941 195.855C541.673 195.734 548.014 193.682 553.321 191.753C557.932 190.076 563.178 188.809 567.168 185.883C572.131 182.244 577.691 178.735 582.781 175.341" stroke="black" stroke-width="10" stroke-linecap="round"/>
<path d="M572.468 171.845C571.984 174.264 568.243 175.724 566.408 176.808C563.116 178.754 559.65 179.381 556.176 180.828C551.731 182.68 565.353 177.9 569.971 176.534C574.952 175.062 579.986 173.769 584.923 172.149C585.924 171.821 588.777 170.438 587.816 170.87C583.349 172.88 578.603 173.994 573.899 175.377C568.185 177.058 562.263 179.128 556.359 180.036C555.384 180.186 553.871 180.271 553.009 179.793C550.76 178.543 546.187 179.519 543.722 179.519C540.519 179.519 537.331 179.715 534.221 180.493C530.648 181.386 525.441 179.802 521.979 179.092C516.056 177.879 509.868 176.902 504.195 174.859C499.766 173.265 494.982 172.786 490.37 171.967C479.988 170.122 469.289 168.857 459.127 166.059C455.45 165.046 452.057 163.476 448.286 162.527C442.363 161.035 436.34 160.025 430.441 158.446C424.53 156.863 418.589 154.002 412.688 152.691C408.179 151.689 403.422 151.56 398.832 150.894C392.46 149.969 373.152 150.623 379.526 151.534C391.016 153.175 402.736 154.167 414.302 155.279C423.233 156.138 432.418 156.898 441.404 157.045C454.207 157.255 466.902 160.035 479.469 162.252C490.76 164.245 501.375 168.541 512.448 171.266C523.574 174.005 534.217 175.946 545.67 176.656C554.314 177.192 562.986 177.326 571.646 177.326C572.473 177.326 573.564 177.366 573.564 176.23C573.564 174.061 569.655 173.365 568.205 172.941C561.807 171.071 555.197 170.574 548.655 170.2C539.015 169.65 529.283 166.548 519.665 165.237C507.852 163.626 496.581 160.443 484.95 158.02C459.948 152.811 434.413 147.727 408.851 147.727C402.052 147.727 395.635 149.546 389.819 153.208C386.27 155.443 381.951 156.956 378.704 159.481C376.836 160.934 374.623 161.177 373.131 163.166C371.782 164.965 369.527 166.877 368.685 168.982C367.731 171.369 369.283 166.635 369.416 166.181C370.33 163.062 372.031 160.385 374.045 157.867C374.298 157.551 375.426 156.528 375.019 156.071C374.086 155.021 368.927 161.049 368.381 161.613C364.852 165.254 360.342 171.095 360.342 176.473C360.342 179.008 360.483 181.183 360.859 183.63C361.645 188.738 358.264 195.017 357.053 199.799C355.454 206.109 353.439 212.364 351.267 218.497C348.359 226.706 344.994 236.477 344.994 245.294C344.994 250.698 344.446 256.157 344.446 261.464C344.446 263.22 344.446 264.976 344.446 266.732C344.446 269.012 344.602 268.898 346.212 267.524C349.261 264.921 351.571 261.542 351.571 257.475C351.571 254.845 351.821 251.793 352.15 249.162C352.731 244.515 354.309 238.084 356.231 233.814C361.724 221.606 364.434 207.801 367.589 194.866C368.909 189.455 369.875 183.883 371 178.422C371.585 175.581 371.672 171.706 374.593 170.322C377.102 169.134 379.592 168.858 382.297 169.378C391.967 171.238 401.653 173.042 411.348 174.859C423.923 177.217 436.602 178.496 449.2 180.615C461.989 182.766 475.155 181.819 487.995 184.025C496.866 185.55 505.357 187.173 514.092 188.837C526.485 191.197 538.364 192.674 551.03 192.674C553.725 192.674 559.041 192.054 560.835 189.811C562.331 187.941 552.99 186.589 552.37 186.522C540.656 185.273 528.728 187.147 517.107 184.726C513.546 183.984 509.975 183.281 506.449 182.381C503.944 181.742 501.347 181.886 498.897 181.041C492.693 178.902 485.824 177.391 479.347 176.23C468.127 174.219 457.29 169.904 446.154 167.46C435.753 165.177 425.763 161.664 415.124 160.334C407.787 159.417 400.784 158.142 393.351 158.142C387.652 158.142 383.612 165.233 380.896 169.378C378.169 173.54 377.648 177.783 376.116 182.381C374.502 187.222 372.433 191.936 370.208 196.511C369.453 198.063 367.528 201.57 367.528 203.271C367.528 203.848 368.259 202.378 368.624 201.931C369.833 200.454 370.942 198.895 372.157 197.424C373.406 195.912 375.368 194.474 376.907 193.222C381.383 189.579 385.834 187.339 391.463 186.401C396.296 185.595 401.296 185.251 406.171 184.756C409.485 184.42 413.223 183.356 416.494 183.356C421.046 183.356 426.541 181.662 431.05 180.737C436.312 179.657 442.677 180.615 448.042 180.615C449.713 180.615 459.9 179.962 456.173 177.539C454.577 176.502 453.876 175.378 452.092 175.103C447.118 174.338 442.173 173.449 437.141 173.002C428.776 172.258 420.795 168.139 412.414 166.942C408.107 166.327 403.356 165.897 399.015 165.815C396.206 165.762 392.86 165.253 391.037 167.886C388.591 171.419 388.779 176.299 386.895 180.067C386.456 180.947 385.845 181.77 385.251 182.533C384.988 182.871 382.992 184.568 383.15 184.726C384.812 186.388 394.229 182.868 396.396 182.381C399.192 181.753 401.72 180.02 404.192 178.849C405.464 178.246 406.394 177.958 407.755 177.6C409.049 177.26 412.024 177.26 412.932 176.504C413.527 176.008 414.595 176.23 415.337 176.23C418.142 176.23 409.749 176.801 406.994 177.326C404.362 177.827 401.635 178.422 398.954 178.422C397.344 178.422 395.688 178.537 394.082 178.422C390.372 178.157 401.51 178 405.227 177.874C429.665 177.046 453.976 176.23 478.433 176.23C483.826 176.23 487.756 177.215 492.745 178.97C497.311 180.577 500.786 183.803 505.048 185.974C515.558 191.328 526.506 191.029 537.966 191.029C542.393 191.029 546.781 192.126 551.091 192.126C551.84 192.126 555.346 192.915 554.501 193.252C550.879 194.701 547.292 195.828 543.539 195.962C541.744 196.027 538.179 196.511 538.179 196.511C538.179 196.511 543.309 195.962 545.884 195.962C547.732 195.962 550.796 196.088 552.309 194.988C552.935 194.532 555.538 194.026 556.329 193.8C558.489 193.183 560.337 191.585 562.419 191.029C567.675 189.628 572.182 186.96 577.097 184.726C578.673 184.009 580.914 183.176 582.212 182.137C583.888 180.797 586.439 179.209 582.639 181.163C581.46 181.769 577.626 183.211 576.853 184.178C576.176 185.024 573.315 186.913 572.194 187.162C569.449 187.772 566.906 190.697 564.246 191.029C561.101 191.422 557.913 193.222 554.38 193.222C552.691 193.222 550.895 194.318 549.172 194.318C548.221 194.318 547.489 194.866 546.493 194.866C545.059 194.866 549.356 194.599 550.756 194.288C553.628 193.649 556.992 191.746 559.861 191.577C561.203 191.499 562.75 190.869 564.002 190.512C564.536 190.359 560.429 192.316 559.069 192.704C557.805 193.065 556.908 194.318 555.476 194.318C554.756 194.318 557.018 194.358 557.333 194.288C558.363 194.059 559.269 193.354 560.409 193.191C563.582 192.738 566.926 190.908 569.727 189.507C574.479 187.131 580.113 186.782 584.801 184.178C589.48 181.578 594.778 180.358 599.326 177.326" stroke="black" stroke-width="10" stroke-linecap="round"/>
<path fill-rule="evenodd" clip-rule="evenodd" d="M522.872 446.917C516.085 449.585 508.066 450.216 501.061 447.942C494.362 445.768 488.28 440.929 484.6 434.844C481.322 429.424 479.953 422.992 481.89 416.58C481.983 416.273 482.283 416.077 482.573 416C484.158 417.443 485.138 418.876 486.116 420.302C487.765 422.707 489.419 425.086 491.688 427.142C494.989 430.133 499.438 432.561 503.853 433.362C508.175 434.148 512.599 433.454 516.47 431.385C518.824 430.127 520.727 428.446 522.611 426.757C524.663 424.918 526.683 423.051 529.509 422.013C531.774 421.181 534.153 421.883 535.981 423.275C537.945 424.772 539.358 427.114 539.279 429.563C539.158 433.357 537.497 436.522 535.088 439.133C531.83 442.663 527.223 445.206 522.872 446.917ZM514.814 352.367C522.365 356.957 533.871 367.66 525.748 379.04C516.186 389.073 502.418 377.569 495.634 372.366C489.343 368.334 482.275 378.705 488.112 383.413C537.136 419.708 557.03 353.567 518.633 346.97C514.406 346.244 512.836 350.947 514.814 352.367ZM435.388 288.768C445.68 288.276 454.75 292.898 464.558 294.998C473.622 296.94 482.552 295.774 491.367 293.304C505.673 289.295 511.587 311.195 497.476 315.463C487.2 318.571 476.38 318.787 465.835 317.185C456.468 315.761 448.616 311.201 439.685 308.546C432.02 306.269 423.004 307.215 414.91 308.288L411.768 308.71C407.098 309.339 402.403 309.97 397.779 310.883C393.767 311.676 389.762 313.127 385.667 313.295C385.202 313.315 384.808 312.711 385.101 312.308C389.858 305.778 399.026 300.625 406.319 297.188L406.813 296.956C415.815 292.759 425.365 289.246 435.388 288.768ZM431.617 336.924L431.616 336.699C431.63 330.322 435.344 315.762 444.524 315.762C450.259 315.762 453.741 325.671 454.344 335.886L454.364 336.302C454.631 342.653 452.888 356.534 444.524 356.534C436.071 356.534 431.704 343.387 431.617 336.924V336.924ZM566.772 336.924L566.774 336.699C566.76 330.322 563.046 315.762 553.866 315.762C548.274 315.762 544.824 325.182 544.097 335.12L544.046 335.886C543.684 342.022 545.314 356.534 553.866 356.534C562.318 356.534 566.685 343.387 566.772 336.924V336.924ZM566.632 281.002L567.288 281.016C578.016 281.388 589.051 287.743 591.915 298.418C592.063 298.972 591.38 299.345 590.975 298.965C582.154 290.706 570.291 298.598 561.458 302.734L558.213 304.233C546.826 309.531 533.875 315.759 521.231 311.811C515.226 309.936 511.412 303.766 513.125 297.534C514.649 291.989 521.342 287.329 527.139 289.33L527.402 289.426C532.112 291.228 537.904 289.402 542.768 287.603L546.764 286.102C553.189 283.664 559.645 280.936 566.632 281.002V281.002Z" fill="black"/>
<path fill-rule="evenodd" clip-rule="evenodd" d="M589.023 365.315C578.555 376.133 561.079 379.237 547.151 373.435C511.389 358.492 528.893 311.884 556.474 299.367C559.919 298.509 564.521 296.471 568.718 296.009C569.097 295.822 569.923 296.361 570.924 295.852C601.336 299.248 608.262 346.461 589.023 365.315M473.674 368.084C461.933 383.658 440.104 388.463 422.27 381.223C387.037 367.347 399.533 326.017 423.639 309.814C474.56 290.678 495.588 339.368 473.674 368.084M397.296 333.576C397.264 333.56 397.231 333.552 397.197 333.537C397.384 333.455 397.57 333.373 397.755 333.289C397.695 333.447 397.629 333.603 397.571 333.761C397.479 333.698 397.399 333.625 397.296 333.576M613.263 316.741C610.388 316.747 606.236 317.219 603.856 319.214C597.987 299.421 576.326 281.103 557.488 294.46C542.653 299.231 531.645 309.813 525.388 323.881C514.107 317.17 496.369 320.036 486.587 328.91C480.181 307.739 464.414 300.326 445.647 299.231C425.163 295.876 404.747 315.771 398.377 331.73C393.08 331.128 385.165 329.442 380.183 332.711C347.842 324.229 291.301 319.553 284.726 324.265C280.041 326.063 277.469 337.123 284.014 337.72C289.717 336.91 283.348 329.616 289.097 328.82C319.726 326.921 349.461 333.09 379.766 335.679C382.472 339.319 391.214 340.536 395.878 339.074C388.533 366.147 404.389 384.566 428.148 390.083C464.938 398.535 496.945 365.622 487.325 331.388C498.47 325.843 511.289 326.081 523.429 329.002C503.142 403.67 623.388 400.32 604.608 321.772C617.106 327.99 619.82 317.995 613.263 316.741" fill="black"/>
<defs>
<filter id="filter0_d_7_19307" x="-4" y="456" width="838.949" height="773" filterUnits="userSpaceOnUse" color-interpolation-filters="sRGB">
<feFlood flood-opacity="0" result="BackgroundImageFix"/>
<feColorMatrix in="SourceAlpha" type="matrix" values="0 0 0 0 0 0 0 0 0 0 0 0 0 0 0 0 0 0 127 0" result="hardAlpha"/>
<feOffset dy="4"/>
<feGaussianBlur stdDeviation="2"/>
<feComposite in2="hardAlpha" operator="out"/>
<feColorMatrix type="matrix" values="0 0 0 0 0 0 0 0 0 0 0 0 0 0 0 0 0 0 0.25 0"/>
<feBlend mode="normal" in2="BackgroundImageFix" result="effect1_dropShadow_7_19307"/>
<feBlend mode="normal" in="SourceGraphic" in2="effect1_dropShadow_7_19307" result="shape"/>
</filter>
</defs>
</svg>
