<svg width="1645" height="2998" viewBox="0 0 1645 2998" fill="none" xmlns="http://www.w3.org/2000/svg">
<path fill-rule="evenodd" clip-rule="evenodd" d="M1212.24 2871.59C1219.27 2838.83 1187.09 2827.75 1166.8 2820.46C1152.26 2811.04 1098.41 2778.39 1056.74 2738.08C1022.64 2705.1 999.432 2662.83 989.77 2658.81C989.77 2658.81 979.824 2653.04 978.792 2648.75C972.74 2623.64 977.787 2600.23 978.792 2585.01C998.19 2579.91 1013.73 2573.56 1025.36 2564.68C1028.75 2565.81 1033.83 2567.25 1035.35 2562.3C1045.85 2492.2 1050.39 2422.93 1058.93 2352.78C1091.29 2085.6 1094.94 1773.47 1039.28 1529.44C1038.69 1517.34 1039.75 1506.42 1040.82 1496.02C1048.35 1495.21 1052.9 1487.92 1059.05 1483.57C1068.59 1475.99 1079.88 1470.16 1079.42 1456.91C1081.68 1455.2 1081.42 1454.23 1080.3 1452.04C1087.58 1420.75 1055.12 1387.78 1045.94 1361.99C1062.63 1198.79 1039.93 1044.58 1052.59 881.345C1068.59 874.651 1057.83 832.813 1056.74 815.556C1047.88 704.382 990.088 594.464 886.018 558.145C880.069 556.939 871.127 550.139 866.204 554.705C856.69 550.936 844.032 558.367 836.669 549.812L836.743 549.756C830.543 541.159 827.764 530.23 825.726 519.896C826.067 522.808 826.636 525.696 827.337 528.519C809.396 477.955 804.876 464.435 747.119 462.054C721.102 461.706 686.806 462.487 671.636 487.301C665.42 498.836 667.319 512.081 663.461 524.223C656.379 546.504 625.809 535.737 609.76 547.307C481.312 588.505 375.953 672.597 341.322 807.57C334.242 823.838 326.212 840.029 320.293 856.818C319.377 859.31 316.857 867.743 322.909 871.624L325.836 873.501C287.282 1053.7 284.724 1205.55 414.251 1325.68C423.971 1377.3 398.966 1447.79 408.578 1497.91C403.101 1505.69 410.046 1511.94 417.048 1512.44C417.723 1512.82 420.451 1514.01 421.195 1514.35C410.052 1671.66 456.836 1883.67 477.458 1967.35C480.265 2017.59 463.118 2058.86 427.844 2086.24C388.871 2110.24 311.821 2218.65 326.105 2332.37C309.412 2335.65 292.84 2337.45 276.825 2343.72C206.751 2331.35 207.446 2466.44 202.981 2513.94C195.419 2593.47 190.719 2708.74 266.272 2759.65C286.176 2774.09 326.534 2790.99 347.215 2767.88C353.992 2759.74 355.689 2751.88 353.023 2743.56C387.173 2695.31 377.97 2632.2 381.107 2575.61C391.01 2575.02 401.371 2579.66 410.95 2577.97C420.782 2569.3 384.914 2571.67 381.194 2571.16C381.575 2562.43 382.277 2553.24 383.183 2544.44C388.809 2545.57 396.016 2548.27 401.426 2548.48C404.628 2549.26 406.891 2544.85 404.958 2542.56C400.736 2538.54 389.971 2539.16 383.913 2538.59C384.936 2531.22 386.187 2523.48 387.577 2516.36C394.988 2516.09 402.641 2520.81 409.658 2519.85C404.347 2516.3 394.378 2517.38 387.904 2515.04C392.114 2492.1 400.692 2470.32 408.667 2448.86C428.235 2456.94 445.116 2457.25 464.219 2454.83C472.033 2456.04 475.843 2454.44 477.108 2444.66L476.609 2444.05C491.75 2353.44 540.608 2267.07 631.361 2169.12C649.287 2149.06 669.544 2125.44 683.041 2099.03C710.162 2044.07 714.794 1983.42 735.691 1926.34C755.201 1868.97 781.878 1814.09 806.925 1759.7C810.598 1787.57 815.532 1816.17 820.661 1843.5C843.235 1940.35 841.047 2043.69 824.434 2141.08C799.854 2277.48 811.702 2414.53 806.235 2551.9C806.31 2559.82 807.292 2567.02 806.13 2575.27C805.976 2575.9 806.276 2576.65 807.028 2576.63L808.447 2576.67C820.261 2585.32 836.577 2586.89 850.459 2591.58C856.289 2596.19 854.647 2603.5 855.181 2609.2C856.706 2633.78 858.656 2658.44 856.236 2683.77C845.524 2704.29 832.221 2700.05 829.5 2728.98C827.118 2762.02 822.904 2797.14 838.99 2826.56L832.904 2827.61C823.872 2846.56 829.386 2858.86 850.614 2866.88C955.412 2907.97 1102.88 2945.28 1212.24 2914.26C1214.22 2916.23 1217.11 2914.19 1219.37 2911.09C1221.55 2908.11 1223.14 2904.16 1222.78 2901.87C1220.91 2891.81 1223.48 2873.44 1212.24 2871.59Z" fill="white"/>
<path fill-rule="evenodd" clip-rule="evenodd" d="M1025 2915C1006.17 2911.61 898 2887 836 2855C823.337 2848.46 826.454 2833.02 830.58 2822.99C832.47 2818.4 836.943 2814.94 836 2814C816.177 2794.18 831 2742 831 2732C831 2717.14 855.093 2697.01 851 2689C846.275 2679.75 852.085 2711.38 864 2729C874.385 2744.35 890.686 2745.54 892.302 2744.87L892.595 2744.74L892.803 2744.63C897.287 2742.18 964.991 2644.64 993 2659C1006.18 2665.76 1013.26 2695.63 1028 2708C1061.05 2735.73 1077 2780 1200 2837C1213.17 2843.1 1213.28 2856.15 1210.6 2866.36C1209.61 2870.12 1223 2870 1221 2872C1215.92 2877.08 1230.01 2906.28 1219 2911C1175.67 2929.58 1063.15 2921.88 1025 2915ZM322.021 2334C322.021 2334 329.129 2342.9 329 2347C327.939 2380.8 319.9 2405.69 319.649 2422.31L319.634 2423.43L319.662 2423.85C320.148 2430.59 330.445 2456.48 353 2462C365.739 2465.12 403 2451 403 2451C403 2451 381.713 2509.8 378 2563C375.084 2604.78 377.437 2652.16 372 2689C369.032 2709.11 358.283 2731.49 346 2747C342.99 2750.8 356.076 2758 353 2761C347.24 2766.62 333 2786 289 2771C276.192 2766.63 238.928 2742.37 218 2696C202.713 2662.13 201.274 2612.78 199 2569C196.487 2520.62 205.826 2445.12 218 2404C231.537 2358.28 248.369 2349.34 251.857 2346.81C252.672 2346.22 278.008 2341.21 280.447 2340.94L280.873 2340.9L281.21 2340.86L281.395 2340.79C291.342 2336.94 302.715 2335.09 317.67 2334.23L318.59 2334.18L322.021 2334Z" fill="white"/>
<path fill-rule="evenodd" clip-rule="evenodd" d="M1216.73 2904.49C1122.56 2946.77 951.559 2893.42 859.029 2862.55C834.08 2853.54 825.769 2851.78 832.759 2823.02C845.839 2848.26 873.969 2854.36 900.919 2859.42C992.209 2880.23 1085.28 2918.65 1182.91 2899.9C1197.24 2897.65 1211.42 2889.89 1215.59 2875.57C1218.16 2881.64 1216.57 2889.86 1217.6 2896.53C1217.79 2899.19 1217.85 2902.07 1216.73 2904.49M835.859 2747.2C837.559 2730.24 840.279 2712.33 849.929 2697.35C848.879 2721.58 863.429 2762.76 895.309 2749.04C904.339 2744.26 909.4 2734.62 915.209 2726.88C934.519 2701.42 959.279 2679.31 987.25 2663.25C1002.81 2665.92 1009.5 2694.38 1019.53 2706.29C1008.35 2711.27 988.089 2722.62 986.04 2734.37C1000 2729.67 1012.85 2720.92 1027.49 2717.85C1032.18 2724.32 1037.15 2730.6 1042.37 2736.66C1035.55 2739.67 1008.05 2753.57 1008.23 2760.51C1023.1 2758.09 1037.51 2750.81 1052.46 2747.82C1059.11 2754.42 1065.16 2761.51 1071.78 2768.13C1061.78 2772.25 1051.22 2776.85 1045.76 2786.45C1045.5 2786.88 1046.14 2787.37 1046.49 2786.95C1053.98 2777.92 1066.87 2776.26 1078.04 2774.23C1095.18 2790.37 1114.37 2804.6 1135.85 2815.25C1157.34 2827.01 1190 2829.69 1198.55 2855.18C1205.39 2880.67 1184.06 2883.39 1164.38 2885.19C1144.47 2888.02 1124.42 2888.45 1104.64 2886.8C1042.81 2884.22 984.359 2866.02 925.929 2850.11C854.49 2836.96 831.309 2826.32 835.859 2747.2M972.23 2655.08C944.859 2675.33 918.139 2697.88 899.129 2726.11C886.549 2749.09 869.809 2735.1 865.65 2716.7C862.279 2675.62 865.179 2640.14 861.23 2598.81C899.08 2603.97 937.959 2600.79 974.929 2591.66C970.48 2610.11 968.439 2617.11 968.299 2636.04C968.54 2642.28 968.449 2649.89 972.23 2655.08M835.61 1452.72C831.97 1454.05 830.417 1448.25 834.015 1446.94C836.486 1446.03 838.984 1445.23 841.494 1444.47C841.806 1443.8 842.366 1443.22 843.23 1442.9C872.691 1432.17 905.603 1433.21 936.376 1435.78C952.916 1437.16 969.42 1439.01 985.763 1441.92C1001.41 1444.71 1016.93 1448.13 1032.59 1450.87C1035.78 1451.27 1038.98 1451.65 1042.17 1452.01C1045.97 1452.44 1046 1458.44 1042.17 1458.01C1041.47 1457.93 1040.76 1457.84 1040.06 1457.76C1039.59 1457.93 1039.07 1458 1038.49 1457.91C1036.06 1457.52 1033.63 1457.11 1031.2 1456.69C1020.51 1455.32 1009.86 1453.75 999.201 1452.19C971.168 1448.08 943.046 1443.97 914.699 1442.91C888.057 1441.9 860.854 1443.51 835.61 1452.72M1037.43 883.018C1030.92 972.778 1032.6 1052.96 1034 1142.86C1034.81 1203.33 1035.19 1263.82 1033.09 1324.27C979.859 1186.69 996.15 1037.4 988.589 892.788C1004.32 887.548 1021.22 885.258 1037.43 883.018M765.73 1546.68C770.709 1556.19 779.07 1563.84 788.98 1568.62C787.759 1571.02 787.339 1573.72 787.209 1576.25C769.359 1579.9 774.379 1588.37 762.32 1592.41C754.429 1594.59 746.839 1595.52 740.019 1600.3C716.809 1621.92 711.049 1620.33 686.139 1601.31C686.48 1599.59 652.58 1566.48 642.08 1547.97C633.33 1532.53 624.169 1516.98 610.759 1505.04C545.089 1437.8 475.129 1374.34 411.559 1305.24C284.16 1178.29 308.469 1034.34 337.73 875.768C384.959 881.408 432.449 892.738 474.98 913.538C459.98 983.528 459.019 1046.97 452.559 1117.99C450.609 1126.77 452.809 1143.68 465.25 1139.78C579.599 1230.57 592.889 1417.14 742.949 1471.09C804.109 1495.95 778.299 1516.13 798.509 1563.07C787.389 1561.03 777.469 1551.71 772.689 1542.79C770.32 1538.36 763.419 1542.26 765.73 1546.68M483.453 1490.27C479.773 1490.7 476.083 1491.02 472.39 1491.32C471.962 1491.66 471.431 1491.92 470.781 1492C465.027 1492.71 459.16 1493.65 453.346 1494.93C444.72 1497.99 436.003 1500.78 427.326 1503.69C426.566 1504.06 425.81 1504.44 425.063 1504.84C424.347 1505.21 423.654 1505.27 423.028 1505.13C422.775 1505.22 422.52 1505.3 422.267 1505.39C422.202 1505.41 422.136 1505.44 422.072 1505.46C421.842 1505.45 421.611 1505.44 421.376 1505.43C421.035 1505.42 420.448 1505.39 419.753 1505.35C419.738 1505.08 419.743 1504.82 419.735 1504.56C417.286 1504.63 415.091 1501.57 417.396 1499.55C425.845 1492.14 437.196 1489.43 448.045 1487.79C459.789 1486.02 471.668 1485.65 483.453 1484.27C487.287 1483.82 487.242 1489.83 483.453 1490.27M375.559 2510.07C365.04 2509.26 320.049 2507.71 314.65 2514.77C320.73 2517.34 329.089 2515.92 335.629 2516.21C348.33 2516.73 361 2517.85 373.57 2519.63C372.629 2524.53 371.779 2529.42 371.08 2534.33C358.4 2535.54 333.709 2536.09 325.66 2544.96C340.019 2547.25 354.969 2545.19 369.379 2548.05C368.679 2554.77 368.169 2561.5 367.79 2568.23C362.049 2568.84 328.29 2574.43 328.32 2579.74C340.959 2581.42 354.349 2579.21 367.23 2580.46C364.439 2620.79 373.9 2742.58 318.779 2750.03C270.589 2747.49 249.449 2669.39 242.9 2631.92C228.379 2544.62 230.87 2451.54 259.65 2367.39C269.929 2343.99 297.91 2339.93 321.57 2338.72C322.469 2342.68 323.359 2346.57 324.359 2350.49C314.099 2373.75 310.83 2399.94 310.549 2425.11C312.719 2461.29 357.359 2488.19 389.779 2464.29C383.719 2479.09 379.04 2494.49 375.559 2510.07M311.79 2770.34C216.339 2749.82 200.679 2639.28 207.24 2558C212.589 2501.42 206.16 2382.13 258.389 2348.89C190.889 2410.51 196.75 2830.01 346.339 2756.79C342.609 2768.61 323.429 2772.02 311.79 2770.34M330.49 2375.94C330.66 2374.48 330.849 2373.03 331.049 2371.57C341.639 2400.34 359.779 2427.68 386.79 2444.34C376.449 2457.24 356.309 2461.08 342.719 2450.52C319.019 2432.75 328.9 2400.6 330.49 2375.94M655.849 537.998C655.66 538.328 655.459 538.658 655.259 538.978C653.939 539.068 652.609 539.188 651.259 539.338C652.79 538.878 654.32 538.448 655.849 537.998M1226 2886.98C1225.74 2879.82 1225.64 2870.58 1217.26 2868.04C1221.06 2837.2 1195.46 2819.64 1168.58 2811.1C1145.66 2797.08 1119.67 2787.28 1098.61 2770.38C1108.39 2768.54 1118.17 2766.32 1126.86 2762.07C1133.42 2758.86 1130.26 2748.17 1123.15 2749.16C1110.56 2750.82 1099.25 2757.22 1087.42 2761.67C1080.7 2756.15 1074.19 2750.39 1068.04 2744.29C1075.7 2742.81 1085.44 2743.35 1089.9 2735.75C1091.29 2733.37 1090.67 2730.9 1088.99 2729.07C1081.23 2721.21 1065.85 2729.06 1056.21 2731.34C1051.58 2726.01 1047.11 2720.56 1042.72 2715.06C1050 2714.39 1068.94 2715.72 1065.23 2703.7C1058.12 2694.3 1042.83 2699.94 1032.55 2701.87C1019.51 2685.84 1015.31 2661.24 994.929 2652.42C994.199 2648.53 989.12 2648.83 985.73 2649.98C980.74 2626.16 981.12 2614.05 982.58 2589.63C997.709 2585.44 1012.72 2579.94 1025.3 2570.92C1031.08 2572.62 1038.09 2570.66 1039.29 2563.87C1049.75 2494.33 1054.4 2423.93 1062.91 2354.14C1093.94 2097.13 1100.7 1783.43 1043.26 1529.52C1042.81 1519.9 1043.49 1510.27 1044.46 1500.72C1051.31 1498.89 1055.39 1492.2 1061.06 1488.33C1071.6 1479.74 1082.32 1474.93 1083.29 1459.94C1085.42 1457.91 1085.67 1454.84 1084.5 1452.18C1087.23 1436.79 1083.21 1421.51 1075.02 1408.21C1066.04 1393.06 1057.56 1377.77 1050.07 1361.87C1066.45 1201.61 1044.23 1046.29 1056.38 885.228C1071.96 876.978 1062.18 831.138 1060.73 815.858C1051.63 715.508 1004.78 604.708 905.169 562.968C898.179 557.068 888.419 555.068 879.879 551.818C874.109 548.978 864.719 546.518 860.769 553.128C856.58 551.178 843.089 549.688 838.469 546.308C837.609 545.678 837.059 544.988 836.929 544.218C836.589 544.228 836.189 544.158 835.759 544.068C831.5 538.048 827.439 496.118 822.189 499.108C816.459 513.508 820.429 529.778 825.91 544.318C829.689 557.178 834.87 590.258 854.949 581.798C858.41 580.078 856.269 575.608 853.169 575.248C843.65 572.528 841.529 558.538 837.849 550.338C842.209 553.958 862.07 559.388 864.24 560.538C907.32 659.418 646.849 654.228 626.37 586.058C611.769 562.508 624.37 549.748 650.4 545.968C631.269 567.228 655.49 571.948 664.699 551.098C673.509 536.168 677.519 518.028 674.509 500.848C676.059 494.818 677.37 486.758 668.349 488.378C668.04 487.578 667.549 488.208 667.74 488.778C664.449 494.018 666.74 501.548 665.57 507.598C664.58 517.498 661.769 527.198 657 535.958C648.15 537.648 639.339 539.458 630.57 541.438C625.309 530.748 591.189 552.068 582.029 554.578C460.339 590.528 367.799 686.268 335.5 807.028C328.29 823.108 320.509 839.268 314.609 855.848C311.969 863.028 311.969 871.938 319.219 876.588C283.889 1038.66 275.269 1207.52 408.74 1329.08C411.769 1342.24 409.75 1356.2 409.66 1369.6C410.534 1393.43 394.837 1462.4 402.325 1497.94C401.512 1499.49 400.937 1501.16 400.712 1502.94C399.664 1511.2 406.385 1516.52 413.8 1517.88C414.025 1517.92 414.257 1517.96 414.486 1518C414.654 1518.08 414.817 1518.17 414.99 1518.25C406.139 1653.75 439.33 1838.12 471.5 1968.84C473.879 2013.77 460.33 2054.64 423.859 2082.99C354.519 2134.83 325.309 2221.36 317.199 2303.82C316.049 2312.27 317.179 2320.87 319.08 2329.17C304.049 2331.97 289.98 2333.79 275.389 2339.3C194.919 2323.88 200.66 2496.77 194.5 2548.07C189.679 2623.91 192.689 2714.82 262.379 2764.48C285.809 2781.16 327.169 2797.18 350 2771.92C356.459 2764.19 359.98 2755.15 357.439 2745.27C390.169 2697.34 382.439 2636.08 384.889 2581.54C393.459 2581.84 402.799 2585.66 411.24 2583.56C417.74 2581.84 418.57 2573.5 413.07 2570.18C405.129 2565.68 394.339 2567.39 385.459 2567.09C385.73 2561.87 386.12 2556.65 386.62 2551.43C395.049 2553.49 407.129 2558.44 409.639 2546.66C410.65 2535.93 397.099 2535.11 388.66 2534.65C389.25 2530.6 389.91 2526.57 390.66 2522.55C397.12 2523.2 403.939 2527.32 410.29 2525.35C413.889 2523.93 415.139 2520.29 412.509 2517.34C407.62 2512.55 399.259 2513.51 392.79 2512.02C396.719 2492.77 403.82 2474.36 410.66 2455.95C423.04 2460.25 436.449 2463.09 449.66 2462.01C456.509 2460.57 463.99 2460.16 470.91 2461.09C478.609 2459.05 480.389 2450.82 481.4 2444.1C481.25 2443.86 481.099 2443.63 480.929 2443.42C498.719 2339.82 562.54 2250.32 634.099 2173.21C653.809 2151.15 673.139 2128.21 686.529 2102.01C713.73 2047.25 718.609 1985.64 739.419 1928.75C756.949 1877.09 780.379 1827.55 803.349 1777.94C812.559 1843.28 829.759 1907.55 831.73 1973.81C834.73 2057.64 816.259 2140.25 808.379 2223.41C794.209 2332.86 807.08 2442.99 800.24 2552.52C800.29 2560.27 801.29 2567.57 800.189 2575.32C799.58 2579.61 802.66 2582.3 805.9 2582.39C817.799 2590.2 832.75 2592.97 846.429 2596.31C850.219 2599.21 848.58 2606.35 849.25 2610.72C850.719 2635.27 852.66 2653.79 850.269 2678.55C836.889 2698.33 827.25 2695.17 823.529 2725.24C821.48 2756.64 816.969 2790.58 830.689 2819.08C824.549 2820.48 822.219 2839.22 823.139 2844.17C824.699 2858.16 837.029 2862.58 848.949 2867.41C936.059 2900.05 1121.15 2953.78 1210.66 2916.83C1217.07 2920.46 1224.22 2913.35 1226.29 2907.62C1229.03 2900.65 1226.51 2893.9 1226 2886.98" fill="black"/>
<path fill-rule="evenodd" clip-rule="evenodd" d="M865.419 82.0239C811.95 66.3309 628.066 82.4169 623.519 85.8159C616.078 91.9989 579.884 111.617 574.252 116.096C523.327 170.07 571.874 250.223 568.138 315.335C568.376 338.431 558.534 359.519 554.01 381.738C552.1 393.382 552.521 405.426 558.59 415.88C569.26 434.56 591.793 438.347 610.119 445.879C619.238 449.805 627.758 455.372 635.568 461.463C688.152 507.98 717.422 539.834 794.149 529.34C794.541 533.003 797.786 536.602 801.809 534.965C811.229 531.129 820.582 527.06 830.084 523.424C832.115 528.318 837.949 529.715 841.901 525.393L841.924 525.424C859.513 511.156 870.699 491.647 879.007 470.762C884.821 458.713 889.582 446.141 893.22 433.195C893.631 431.73 893.577 430.421 893.205 429.294C909.991 371.451 916.203 310.487 911.784 250.43C910.889 238.039 908.549 225.484 909.124 213.041C909.644 201.799 914.487 191.165 918.179 180.695C937.217 136.186 908.115 96.0379 865.419 82.0239Z" fill="white"/>
<path fill-rule="evenodd" clip-rule="evenodd" d="M872.144 9.75628L872.715 9.3144C878.879 4.47796 884.692 -1.86059 893.384 0.516278C900.514 2.46628 904.114 8.36628 905.644 15.4963C907.814 13.2263 909.924 10.8763 911.984 8.44628C917.584 1.84628 930.094 5.26628 931.764 13.6763C935.144 30.6163 935.314 47.8563 932.024 64.8263C931.524 67.3963 930.934 69.9563 930.244 72.4863C933.994 67.8163 937.484 62.9463 940.614 57.8163C944.004 52.2463 951.664 55.0063 952.194 60.9563C952.334 62.4963 952.414 64.0563 952.434 65.6263C954.824 66.4663 956.474 68.9263 955.844 71.9463C952.364 88.5663 947.954 104.956 942.654 121.066C951.174 116.546 960.724 113.866 969.714 117.056C983.994 122.136 987.394 137.716 984.604 151.126C981.094 167.986 970.054 182.096 955.814 191.346C954.124 193.886 952.454 196.446 950.864 199.056C950.834 206.426 949.494 213.776 946.794 220.606C943.754 228.276 938.394 234.906 931.794 239.946C929.475 244.998 923.331 248.687 917.938 247.664L917.654 247.606L917.644 247.616C919.024 252.556 920.214 257.546 921.244 262.546C929.22 301.284 925.182 341.608 917.908 380.128L917.674 381.356C911.144 415.636 903.544 451.136 888.774 482.966C875.414 511.746 852.764 537.056 820.394 543.336C782.314 550.726 740.164 539.016 707.414 519.486C695.544 512.406 706.424 493.746 718.244 500.946C735.304 511.326 753.834 518.576 773.434 522.396C791.754 525.956 812.244 527.166 829.814 519.786C854.284 509.506 868.824 484.396 878.024 460.756C883.444 446.806 887.504 432.406 891.284 417.946C896.154 399.356 900.694 380.646 904.104 361.726C910.454 326.436 912.514 289.786 905.794 254.396C903.654 243.106 900.624 231.746 896.674 220.826C896.054 220.056 895.464 219.196 894.934 218.256C890.804 211.016 887.954 202.786 884.884 194.956C882.194 190.286 879.254 185.796 876.134 181.406C871.469 177.821 867.026 173.988 862.956 169.806C874.777 162.152 885.208 152.57 892.713 140.364C893.951 138.351 893.165 136.427 891.698 135.342C885.705 142.839 877.947 149.188 869.787 154.813C865.607 158.393 861.105 161.609 856.387 164.515C853.016 165.182 849.608 165.64 846.304 166.016C836.894 167.086 827.434 166.686 818.074 165.436C797.834 162.736 712.236 139.162 676.154 148.326C668.638 150.235 665.094 156.976 661.114 163.306C657.662 168.812 653.271 173.37 648.003 177.123L647.414 177.536C637.114 184.666 616.405 207.222 607.7 227.354C596.46 253.346 585.664 331.236 590.634 331.906C603.634 333.666 610.834 340.506 621.424 347.846C622.124 348.326 621.714 349.626 620.814 349.296C613.824 346.776 606.264 345.286 598.934 344.066C592.304 342.956 585.324 342.756 578.924 345.126C569.104 348.766 564.314 356.996 562.344 366.276C561.574 369.906 561.234 373.696 561.194 377.446L561.189 378.534C561.194 390.357 563.399 403.465 571.984 412.186C575.634 415.896 580.584 418.396 585.764 419.086C591.434 419.846 594.934 417.286 600.144 415.956C606.144 414.426 610.824 418.376 610.264 423.526C611.534 424.636 612.764 425.806 613.984 426.996L613.986 427.001L613.994 427.006C614.794 427.366 615.554 427.846 616.244 428.426C617.374 429.386 618.324 430.436 619.084 431.566C620.774 431.896 622.394 432.836 623.724 434.556C626.464 438.086 628.994 441.656 631.344 445.296C635.554 449.766 639.744 454.246 643.874 458.796C648.846 464.265 653.685 469.858 658.556 475.419L660.994 478.196C663.624 481.186 666.244 484.176 668.864 487.176L669.646 488.057C672.282 491.009 674.302 493.187 674.584 497.436C674.784 500.586 671.394 502.726 668.584 502.006C664.252 500.889 662.241 497.488 659.645 494.114L655.724 489.085V489.085L652.034 484.346C650.204 481.986 648.354 479.636 646.514 477.286C645.964 481.616 641.384 485.106 637.204 485.296L636.23 485.334C626.414 485.66 614.485 484.276 607.014 477.356C603.654 480.746 599.474 483.416 594.324 485.016C582.624 488.656 570.664 482.206 565.934 472.396C556.764 476.326 546.404 477.116 536.494 474.226C530.778 472.551 528.802 465.427 532.785 461.067L532.964 460.876L533.01 460.824C532.188 459.755 531.736 458.447 531.663 457.022C531.574 455.292 532.835 453.458 532.575 451.843C531.583 445.684 521.539 450.247 518.347 451.581C517.737 451.835 517.165 451.956 516.631 451.975C511.696 453.412 506.329 446.928 508.914 441.576C514.704 429.616 520.354 417.566 526.214 405.626C525.474 405.876 524.714 406.106 523.964 406.296C513.434 408.996 500.664 403.816 503.094 391.126C503.654 388.146 506.354 386.106 509.034 385.186C514.254 383.386 518.174 384.686 522.194 383.006C526.724 381.126 531.454 377.676 535.434 374.426C539.684 370.966 543.354 367.076 546.604 362.856C547.904 356.726 550.154 350.866 553.754 345.826C553.974 345.526 554.194 345.226 554.424 344.936C531.338 339.432 534.361 316.727 524.177 296.605L523.317 294.937C516.4 281.478 510.366 266.303 513.854 250.976C514.474 248.266 515.374 245.676 516.534 243.256C514.684 243.486 512.824 243.696 510.974 243.906C506.724 244.386 502.404 238.906 504.094 234.876C504.984 232.766 505.964 230.726 507.024 228.746C509.964 223.286 513.574 218.326 517.824 213.846C510.684 213.656 503.534 213.656 496.474 212.836C489.804 212.066 482.794 208.416 483 200.726C483.206 193.394 489.639 187.844 495.604 184.267C501.475 176.458 508.922 169.968 517.345 165.145C515.679 164.771 513.991 164.493 512.275 164.323L511.414 164.246C506.604 163.866 502.284 162.546 497.924 160.536C494.024 158.736 494.084 153.276 496.634 150.526C504.878 141.614 517.23 144.516 526.841 149.623C526.172 148.774 525.439 147.956 524.64 147.174L524.153 146.708C519.431 142.311 526.518 135.255 531.224 139.637C532.711 141.022 534.043 142.527 535.231 144.122L535.344 143.886V143.886C541.562 131.275 550.656 119.986 561.415 110.941L563.944 108.838C583.346 92.6315 589.332 84.9501 615.134 87.3363C614.034 82.6493 614.142 77.3768 614.39 73.0415L614.424 72.4563C615.414 56.1563 621.424 36.6463 637.324 29.3263C641.454 27.4363 646.134 30.5263 645.034 35.2563C644.264 38.6063 643.324 41.8663 642.154 45.0363C645.624 41.3863 649.344 37.9763 653.284 34.8363C669.344 22.0363 690.804 11.0263 711.914 14.6263C723.514 16.6163 732.614 23.8963 742.324 29.9763C752.084 36.0963 762.984 39.7263 774.414 41.0363C790.384 42.8763 806.414 41.0263 822.204 38.1063C833.054 33.3763 843.584 27.8363 853.864 21.8663C860.184 18.1963 866.334 14.1863 872.144 9.75628ZM588.605 363.786C591.985 362.916 595.775 362.926 599.165 363.776C607.915 365.976 616.055 373.296 616.565 382.526C616.795 386.696 613.435 390.686 609.535 391.756C605.115 392.976 601.315 390.816 598.735 387.356C595.965 383.656 595.275 379.646 591.885 376.286L591.103 375.525C588.222 372.769 583.864 369.207 579.865 369.846C579.275 369.936 578.835 369.136 579.435 368.816C582.695 367.036 584.835 364.746 588.605 363.786ZM634.054 320.316C635.598 319.056 637.637 320.534 636.911 322.346L636.854 322.476C635.024 326.336 637.174 330.866 639.394 334.096C641.304 336.886 637.694 339.536 635.154 338.336C628.014 334.946 628.384 324.916 634.054 320.316ZM660.154 204.346C660.024 203.406 661.274 203.016 661.594 203.946C666.924 219.416 668.454 233.116 667.584 249.476L667.503 250.928C666.561 266.686 663.801 283.364 654.264 296.306C652.054 299.296 647.534 297.536 648.264 293.776C651.194 278.726 656.824 264.436 659.014 249.206C661.304 233.286 662.334 220.276 660.154 204.346ZM610.375 260.576C611.155 256.446 617.505 252.196 620.715 256.346C621.795 257.756 620.525 259.486 619.225 260.006C618.005 260.486 616.915 259.826 615.715 260.066C614.744 260.262 614.035 260.868 613.562 261.695L613.465 261.876C612.525 263.676 610.045 262.336 610.375 260.576ZM607.775 227.676C610.055 223.456 615.305 220.766 619.795 223.396C621.275 224.266 620.695 226.796 618.895 226.716L617.828 226.673C614.627 226.556 611.426 226.621 608.735 228.646C608.135 229.096 607.475 228.246 607.775 227.676ZM615.791 112.428C603.002 106.678 590.283 111.869 579.84 119.965C578.976 120.635 578.557 121.417 578.465 122.203C585.437 119.488 592.86 117.708 599.956 116.239C605.758 115.037 611.615 114.226 617.479 113.906C617.151 113.317 616.612 112.797 615.791 112.428Z" fill="black"/>
<path d="M615.597 116.427C615.597 113.871 614.437 114.014 612.06 114.363C610.913 114.532 603.592 115.837 605.577 115.837C606.659 115.837 609.685 114.034 606.985 115.28C605.937 115.764 600.14 118.85 604.267 117.016C605.652 116.4 611.884 113.995 610.292 112.006C608.986 110.373 606.256 111.486 604.594 111.842C601.778 112.446 598.392 114.286 596.768 116.721C595.355 118.841 595.997 121.221 598.896 120.782C601.981 120.314 610.882 117.834 610.882 113.479C610.882 111.285 593.185 115.44 591.627 116.099C588.636 117.364 596.146 115.446 596.146 112.89C596.146 112.014 593.866 114.581 593.657 114.789C591.255 117.191 588.628 119.651 586.486 122.288C584.371 124.891 588.607 117.494 588.942 116.558C590.372 112.551 581.219 120.108 580.231 120.88C578.677 122.094 577.3 123.484 575.909 124.875C574.433 126.351 579.215 122.281 580.558 120.684C581.591 119.456 582.877 117.43 581.279 120.094C579.706 122.716 578.153 125.447 577.153 128.346C576.708 129.635 583.702 121.109 583.702 121.469C583.702 123.315 581.956 126.243 581.41 128.084C580.648 130.651 579.505 133.053 578.921 135.681C578.337 138.31 578.376 136.309 578.528 134.83C579.14 128.868 580.996 123.035 581.672 117.049C581.958 114.514 582.493 110.603 581.279 108.174C580.603 106.823 576.829 114.688 576.629 115.051C572.299 122.906 567.908 130.757 563.923 138.792C562.422 141.82 560.546 145.026 559.994 148.42C559.881 149.11 559.496 151.079 560.616 149.893C565.263 144.973 571.71 141.147 577.087 137.057C585.256 130.844 593.56 124.419 602.433 119.243C603.402 118.678 606.894 115.951 608.164 116.459C608.609 116.638 605.562 126.106 605.347 126.938C603.829 132.835 602.13 139.939 602.662 146.062C602.934 149.193 609.264 142.707 609.801 142.198C616.883 135.484 624.02 128.685 630.595 121.469C634.681 116.986 638.715 111.188 643.3 107.258C645.71 105.192 640.437 112.927 638.847 115.673C635.687 121.132 632.322 127.139 630.497 133.225C629.803 135.537 631.596 133.233 632.101 132.669C635.825 128.509 639.429 124.232 643.104 120.029C650.156 111.964 657.126 103.941 663.079 95.0104C664.895 92.2865 664.747 92.3259 663.865 95.6653C663.265 97.9386 659.647 106.317 661.016 108.371C661.181 108.619 661.364 107.873 661.442 107.585C662.362 104.186 663.258 100.744 663.996 97.3027C665.44 90.5733 667.646 81.7118 666.747 74.7732C665.88 68.0857 659.87 100.542 659.87 93.7988C659.87 88.2986 660.827 82.9147 661.769 77.5239C661.994 76.2382 663.524 69.0252 661.9 74.3147C659.725 81.4009 657.379 88.501 655.482 95.6653C654.674 98.7166 655.906 95.1694 656.857 94.028" stroke="black" stroke-width="10" stroke-linecap="round"/>
<path d="M846.489 160.243C846.668 161.677 850.571 163.897 851.798 164.247C855.609 165.336 855.404 163.864 852.158 163.482C850.762 163.318 846.567 162.176 845.274 161.458C843.622 160.54 842.578 161.834 844.465 162.673C846.136 163.415 847.642 163.357 849.369 163.932C854.49 165.639 864.643 164.106 868.355 168.747C869.73 170.464 872.331 170.55 873.844 171.761C874.647 172.403 881.634 174.374 880.323 172.571C878.088 169.498 877.135 167.085 873.664 165.102C871.901 164.095 869.195 162.859 867.725 161.683C865.454 159.866 874.99 154.788 876.859 153.359C880.307 150.722 885.619 146.679 887.792 142.876C889.402 140.058 895.193 131.974 888.242 136.397C880.855 141.098 869.453 139.187 861.067 139.187" stroke="black" stroke-width="10" stroke-linecap="round"/>
<path d="M587.289 330.09C588.384 327.17 605.068 332.961 607.878 333.117C611.9 333.341 617.243 336.367 619.249 339.779C619.745 340.621 620.376 341.646 621.066 342.335C621.441 342.71 621.192 340.896 621.201 340.519C621.256 337.976 622.017 335.507 622.277 332.983C623.025 325.73 626.006 319.201 627.122 312.057C630.282 291.834 634.73 271.741 638.459 251.602C640.755 239.202 644.469 227.137 646.937 214.797C648.16 208.681 649.552 201.755 651.782 195.957C652.185 194.909 658.027 174.655 654.507 174.46C648.519 174.127 641.809 178.337 638.627 183.543C632.176 194.1 622.933 202.889 616.356 213.485C604.178 233.106 597.625 253.846 592.403 276.228C590.074 286.209 590.317 296.214 590.317 306.439C590.317 309.983 590.317 313.526 590.317 317.07C590.317 320.601 591.675 321.475 594.556 322.688C596.966 323.703 601.163 322.726 603.774 322.823C605.633 322.892 610.78 323.328 612.252 324.505C619.624 330.403 621.054 303.221 622.109 299.845C623.44 295.585 624.276 291.123 625.44 286.758C627.799 277.91 628.621 268.935 630.62 260.08C633.199 248.66 633.438 236.705 636.811 225.462C638.98 218.232 639.452 210.821 641.655 203.661C642.745 200.119 643.717 196.544 644.683 192.896C645.086 191.374 645.937 189.99 646.029 188.388C646.125 186.71 648.389 183.253 647.711 181.727C644.502 174.507 633.03 195.015 632.033 196.664C628.798 202.017 628.062 206.83 626.18 212.476C623.186 221.457 621.86 231.004 618.913 240.063C614.565 253.429 609.65 266.735 605.826 280.265C603.044 290.11 600.457 300.199 598.492 310.241C597.921 313.159 597.852 316.384 596.978 319.223C596.372 321.194 596.373 315.129 596.373 313.067C596.373 303.743 596.437 294.189 597.315 284.908C598.736 269.879 603.198 255.65 606.936 241.139C609.534 231.055 610.806 220.716 614.068 210.928C615.696 206.045 615.487 215.839 615.481 216.715C615.383 233.335 610.061 249.698 606.331 265.765C605.392 269.809 604.386 273.823 603.505 277.877C603.199 279.283 603.246 278.776 603.505 277.742C605.65 269.162 607.992 260.819 610.906 252.443C613.268 245.652 614.289 238.333 616.962 231.652C619.082 226.351 615.43 243.022 613.732 248.473C609.936 260.658 606.008 272.898 603.505 285.413C602.542 290.228 601.217 295.205 601.217 300.148C601.217 307.08 597.603 316.767 607.575 316.767C609.339 316.767 608.436 317.421 609.998 315.859C611.048 314.808 611.777 314.487 612.454 313.134C614.461 309.118 615.145 305.214 615.145 300.72C615.145 299.509 615.145 298.298 615.145 297.086C615.145 294.212 614.234 298.384 613.9 299.273C612.475 303.073 611.256 306.991 609.661 310.712C609.595 310.867 607.53 315.775 607.306 314.547C605.731 305.885 606.615 298.316 610.94 290.964C613.093 287.302 614.724 283.746 616.356 279.828C616.654 279.113 616.962 276.847 616.962 278.785C616.962 283.01 616.401 287.165 615.751 291.334C615.311 294.154 614.698 302.662 614.539 299.811C614.329 296.016 615.192 292.578 615.616 288.844C616.406 281.894 617.435 274.565 619.518 267.851C620.716 263.994 620.548 259.946 621.672 256.076C622.919 251.779 623.712 246.651 624.262 242.249C624.879 237.31 626.714 232.324 627.862 227.447C628.897 223.049 629.083 218.032 630.587 213.821C632.733 207.813 632.803 200.959 636.34 195.655" stroke="black" stroke-width="10" stroke-linecap="round"/>
<path d="M591.528 330.695C592.437 330.808 595.246 332.777 596.372 333.252C598.125 333.99 600.499 335.438 602.428 335.539C605.41 335.696 609.85 338.991 611.982 341.124C613.308 342.449 613.84 342.563 614.674 341.729C615.607 340.797 618.398 343.522 618.644 343.277C619.745 342.175 618.324 335.951 618.038 334.665C617.578 332.594 617.24 330.041 616.356 328.272" stroke="black" stroke-width="10" stroke-linecap="round"/>
<path d="M661.341 205.242C661.519 210.039 663.439 214.617 663.439 219.504C663.439 221.823 663.439 224.141 663.439 226.46C663.439 231.484 662.108 236.498 661.419 241.461C660.799 245.92 659.893 250.424 658.543 254.712C657.642 257.573 657.244 260.592 656.289 263.456C655.329 266.337 654.256 269.166 653.297 272.045C652.174 275.412 650.894 278.695 649.993 282.149C649.353 284.605 648.651 287.189 647.778 289.571C647.26 290.986 647.082 292.716 646.301 294.001C645.587 295.178 645.841 296.685 645.33 297.926C644.924 298.911 647.475 297.507 648.361 296.916C650.45 295.524 652.88 294.331 654.423 292.33C657.473 288.377 658.949 283.974 660.214 279.195C661.088 275.892 662.333 272.629 663.284 269.324C664.794 264.079 665.228 259.003 665.81 253.624C666.502 247.223 666.937 240.763 666.937 234.33C666.937 232.532 667.287 237.914 667.287 239.712C667.287 243.491 666.639 247.448 666.063 251.176C663.651 266.772 657.861 281.769 651.392 296.1C649.506 300.279 647.006 304.539 645.621 308.924C645.43 309.53 644.902 310.454 644.902 311.042C644.902 313.145 643.775 315.103 643.154 317.124C643.036 317.506 640.466 321.62 640.006 320.816C639.345 319.659 639.533 318.297 638.413 319.417C637.68 320.149 637.212 320.385 636.878 321.554C636.513 322.829 636.159 323.659 636.159 325.032C636.159 327.933 636.259 330.642 636.878 333.426C637.125 334.539 638.108 335.036 637.888 336.244C637.355 339.175 635.611 336.743 634.934 335.525C633.99 333.825 632.159 330.016 634.235 328.355C635.571 327.286 636.934 326.293 638.374 325.246C639.827 324.189 641.172 323.012 642.707 322.021C646.541 319.543 650.616 317.451 654.657 315.336C668.013 308.346 681.297 301.232 694.567 294.079" stroke="white" stroke-width="10" stroke-linecap="round"/>
<path d="M629.637 303.555C630.877 303.4 633.464 299.294 633.996 298.17C635.012 296.026 636.321 293.892 637.444 291.759C641.287 284.457 642.537 275.852 645.764 268.225C649.85 258.565 651.179 247.339 653.855 237.169C655.109 232.406 656.552 226.742 658.585 222.296C660.725 217.615 662.327 211.887 666.05 208.164C669.804 204.41 672.523 200.29 677.076 197.138C683.284 192.84 689.867 190.637 696.593 187.365C699.694 185.856 703.66 184.886 707.078 184.601C714.129 184.014 721.09 182.228 728.219 182.008C733.591 181.843 738.879 180.983 744.289 180.983C747.888 180.983 752.133 180.514 755.571 181.78C764.538 185.084 774.788 185.139 783.522 188.96C788.741 191.244 794.394 194.626 800.304 194.83C804.701 194.981 809.031 195.855 813.495 195.855C818.307 195.855 823.131 195.958 827.941 195.855C833.673 195.734 840.014 193.682 845.321 191.753C849.932 190.076 855.178 188.809 859.168 185.883C864.131 182.244 869.691 178.735 874.781 175.341" stroke="black" stroke-width="10" stroke-linecap="round"/>
<path d="M864.468 171.845C863.984 174.264 860.243 175.724 858.408 176.808C855.116 178.754 851.65 179.381 848.176 180.828C843.731 182.68 857.353 177.9 861.971 176.534C866.952 175.062 871.986 173.769 876.923 172.149C877.924 171.821 880.777 170.438 879.816 170.87C875.349 172.88 870.603 173.994 865.899 175.377C860.185 177.058 854.263 179.128 848.359 180.036C847.384 180.186 845.871 180.271 845.009 179.793C842.76 178.543 838.187 179.519 835.722 179.519C832.519 179.519 829.331 179.715 826.221 180.493C822.648 181.386 817.441 179.802 813.979 179.092C808.056 177.879 801.868 176.902 796.195 174.859C791.766 173.265 786.982 172.786 782.37 171.967C771.988 170.122 761.289 168.857 751.127 166.059C747.45 165.046 744.057 163.476 740.286 162.527C734.363 161.035 728.34 160.025 722.441 158.446C716.53 156.863 710.589 154.002 704.688 152.691C700.179 151.689 695.422 151.56 690.832 150.894C684.46 149.969 665.152 150.623 671.526 151.534C683.016 153.175 694.736 154.167 706.302 155.279C715.233 156.138 724.418 156.898 733.404 157.045C746.207 157.255 758.902 160.035 771.469 162.252C782.76 164.245 793.375 168.541 804.448 171.266C815.574 174.005 826.217 175.946 837.67 176.656C846.314 177.192 854.986 177.326 863.646 177.326C864.473 177.326 865.564 177.366 865.564 176.23C865.564 174.061 861.655 173.365 860.205 172.941C853.807 171.071 847.197 170.574 840.655 170.2C831.015 169.65 821.283 166.548 811.665 165.237C799.852 163.626 788.581 160.443 776.95 158.02C751.948 152.811 726.413 147.727 700.851 147.727C694.052 147.727 687.635 149.546 681.819 153.208C678.27 155.443 673.951 156.956 670.704 159.481C668.836 160.934 666.623 161.177 665.131 163.166C663.782 164.965 661.527 166.877 660.685 168.982C659.731 171.369 661.283 166.635 661.416 166.181C662.33 163.062 664.031 160.385 666.045 157.867C666.298 157.551 667.426 156.528 667.019 156.071C666.086 155.021 660.927 161.049 660.381 161.613C656.852 165.254 652.342 171.095 652.342 176.473C652.342 179.008 652.483 181.183 652.859 183.63C653.645 188.738 650.264 195.017 649.053 199.799C647.454 206.109 645.439 212.364 643.267 218.497C640.359 226.706 636.994 236.477 636.994 245.294C636.994 250.698 636.446 256.157 636.446 261.464C636.446 263.22 636.446 264.976 636.446 266.732C636.446 269.012 636.602 268.898 638.212 267.524C641.261 264.921 643.571 261.542 643.571 257.475C643.571 254.845 643.821 251.793 644.15 249.162C644.731 244.515 646.309 238.084 648.231 233.814C653.724 221.606 656.434 207.801 659.589 194.866C660.909 189.455 661.875 183.883 663 178.422C663.585 175.581 663.672 171.706 666.593 170.322C669.102 169.134 671.592 168.858 674.297 169.378C683.967 171.238 693.653 173.042 703.348 174.859C715.923 177.217 728.602 178.496 741.2 180.615C753.989 182.766 767.155 181.819 779.995 184.025C788.866 185.55 797.357 187.173 806.092 188.837C818.485 191.197 830.364 192.674 843.03 192.674C845.725 192.674 851.041 192.054 852.835 189.811C854.331 187.941 844.99 186.589 844.37 186.522C832.656 185.273 820.728 187.147 809.107 184.726C805.546 183.984 801.975 183.281 798.449 182.381C795.944 181.742 793.347 181.886 790.897 181.041C784.693 178.902 777.824 177.391 771.347 176.23C760.127 174.219 749.29 169.904 738.154 167.46C727.753 165.177 717.763 161.664 707.124 160.334C699.787 159.417 692.784 158.142 685.351 158.142C679.652 158.142 675.612 165.233 672.896 169.378C670.169 173.54 669.648 177.783 668.116 182.381C666.502 187.222 664.433 191.936 662.208 196.511C661.453 198.063 659.528 201.57 659.528 203.271C659.528 203.848 660.259 202.378 660.624 201.931C661.833 200.454 662.942 198.895 664.157 197.424C665.406 195.912 667.368 194.474 668.907 193.222C673.383 189.579 677.834 187.339 683.463 186.401C688.296 185.595 693.296 185.251 698.171 184.756C701.485 184.42 705.223 183.356 708.494 183.356C713.046 183.356 718.541 181.662 723.05 180.737C728.312 179.657 734.677 180.615 740.042 180.615C741.713 180.615 751.9 179.962 748.173 177.539C746.577 176.502 745.876 175.378 744.092 175.103C739.118 174.338 734.173 173.449 729.141 173.002C720.776 172.258 712.795 168.139 704.414 166.942C700.107 166.327 695.356 165.897 691.015 165.815C688.206 165.762 684.86 165.253 683.037 167.886C680.591 171.419 680.779 176.299 678.895 180.067C678.456 180.947 677.845 181.77 677.251 182.533C676.988 182.871 674.992 184.568 675.15 184.726C676.812 186.388 686.229 182.868 688.396 182.381C691.192 181.753 693.72 180.02 696.192 178.849C697.464 178.246 698.394 177.958 699.755 177.6C701.049 177.26 704.024 177.26 704.932 176.504C705.527 176.008 706.595 176.23 707.337 176.23C710.142 176.23 701.749 176.801 698.994 177.326C696.362 177.827 693.635 178.422 690.954 178.422C689.344 178.422 687.688 178.537 686.082 178.422C682.372 178.157 693.51 178 697.227 177.874C721.665 177.046 745.976 176.23 770.433 176.23C775.826 176.23 779.756 177.215 784.745 178.97C789.311 180.577 792.786 183.803 797.048 185.974C807.558 191.328 818.506 191.029 829.966 191.029C834.393 191.029 838.781 192.126 843.091 192.126C843.84 192.126 847.346 192.915 846.501 193.252C842.879 194.701 839.292 195.828 835.539 195.962C833.744 196.027 830.179 196.511 830.179 196.511C830.179 196.511 835.309 195.962 837.884 195.962C839.732 195.962 842.796 196.088 844.309 194.988C844.935 194.532 847.538 194.026 848.329 193.8C850.489 193.183 852.337 191.585 854.419 191.029C859.675 189.628 864.182 186.96 869.097 184.726C870.673 184.009 872.914 183.176 874.212 182.137C875.888 180.797 878.439 179.209 874.639 181.163C873.46 181.769 869.626 183.211 868.853 184.178C868.176 185.024 865.315 186.913 864.194 187.162C861.449 187.772 858.906 190.697 856.246 191.029C853.101 191.422 849.913 193.222 846.38 193.222C844.691 193.222 842.895 194.318 841.172 194.318C840.221 194.318 839.489 194.866 838.493 194.866C837.059 194.866 841.356 194.599 842.756 194.288C845.628 193.649 848.992 191.746 851.861 191.577C853.203 191.499 854.75 190.869 856.002 190.512C856.536 190.359 852.429 192.316 851.069 192.704C849.805 193.065 848.908 194.318 847.476 194.318C846.756 194.318 849.018 194.358 849.333 194.288C850.363 194.059 851.269 193.354 852.409 193.191C855.582 192.738 858.926 190.908 861.727 189.507C866.479 187.131 872.113 186.782 876.801 184.178C881.48 181.578 886.778 180.358 891.326 177.326" stroke="black" stroke-width="10" stroke-linecap="round"/>
<path fill-rule="evenodd" clip-rule="evenodd" d="M737.832 414.758C745.834 398.758 819.223 405.949 819.223 405.949L825.422 456.808C825.422 456.808 790.012 468.19 768.933 465.805C747.854 463.42 729.83 430.758 737.832 414.758Z" fill="white"/>
<path fill-rule="evenodd" clip-rule="evenodd" d="M743.003 441.47C740.469 436.047 792.934 421.256 809.178 431.363C825.422 441.47 820.343 455.256 820.343 455.256C820.343 455.256 752.021 470.84 743.003 441.47Z" fill="#E6E6E6"/>
<path fill-rule="evenodd" clip-rule="evenodd" d="M733.281 405.29C745.527 391.06 766.152 390.069 783.237 393.627C794.201 395.911 804.876 399.715 816.012 401.125C821.213 401.784 826.47 401.981 831.709 401.884C836.855 401.789 842.009 400.752 847.137 400.945C847.925 400.974 848.223 402.009 847.54 402.43C840.505 406.751 831.028 408.137 822.718 408.982C822.744 409.597 822.781 410.197 822.866 410.706C823.093 412.063 823.3 413.411 823.467 414.777C823.844 417.858 824.266 420.929 824.687 424.004C825.517 430.056 825.778 436.299 827.237 442.245L827.492 443.234C827.83 444.484 827.907 445.611 827.794 446.627L828.132 446.474L829.199 445.957L829.899 445.626C832.453 444.442 834.89 443.58 837.893 443.868C840.179 444.086 842.098 445.645 842.112 448.086C842.169 459.041 827.405 462.564 818.96 464.661L816.483 465.271C805.734 467.893 794.758 470.191 783.703 470.741C765.961 471.622 746.024 466.728 734.418 452.337C723.589 438.91 721.604 418.858 733.281 405.29ZM813.852 451.318C811.99 434.824 791.722 433.917 785.891 444.377C783.303 429.798 745.028 443.117 748.021 446.015C759.365 457.001 776.58 457.99 791.379 455.958C798.916 454.923 806.459 453.238 813.852 451.318ZM791.358 408.088L786.262 407.355L784.255 407.078C771.622 405.387 757.416 404.513 747.03 412.612C743.238 415.568 741.104 419.424 740.307 423.566C750.134 422.109 759.998 420.998 769.891 420.073L772.59 419.825C778.78 419.267 784.967 418.679 791.151 418.062L795.546 417.617L799.939 417.161C801.485 416.999 811.904 416.466 813.863 416.824C814.072 415.064 814.345 411.255 814.787 409.542C807.385 409.793 800.015 409.243 792.656 408.265L791.358 408.088ZM814.814 334.367C822.366 338.957 833.872 349.66 825.748 361.04C816.186 371.073 802.418 359.569 795.634 354.366C789.343 350.334 782.275 360.705 788.112 365.413C837.136 401.708 857.031 335.567 818.634 328.97C814.406 328.244 812.836 332.947 814.814 334.367ZM828.328 353.704L828.691 353.507L828.814 353.432C829.026 353.295 828.891 353.31 828.408 353.477L828.046 353.607V353.863C828.139 353.806 828.238 353.763 828.328 353.704ZM731.617 312.924L731.616 312.699C731.63 306.322 735.344 291.762 744.524 291.762C750.259 291.762 753.741 301.671 754.344 311.886L754.365 312.302C754.631 318.653 752.888 332.534 744.524 332.534C736.072 332.534 731.704 319.387 731.617 312.924V312.924ZM866.773 310.924L866.774 310.699C866.76 304.322 863.046 289.762 853.866 289.762C848.274 289.762 844.824 299.182 844.097 309.12L844.046 309.886C843.684 316.022 845.314 330.534 853.866 330.534C862.318 330.534 866.686 317.387 866.773 310.924V310.924ZM736.855 248.285C744.347 247.146 754.268 249.31 757.761 256.928C759.317 260.322 757.474 264.075 753.551 264.263C744.07 264.717 735.567 262.607 727.245 268.772C723.664 271.426 720.652 275.1 718.126 278.764L717.17 280.159L716.378 281.308C714.662 283.831 713.037 286.571 713.291 289.615C713.366 290.516 712.445 291.371 711.57 291.335C706.116 291.111 705.529 284.273 706.246 280.166C707.58 272.544 711.269 265.389 716.382 259.626C721.752 253.574 728.841 249.504 736.855 248.285ZM840.044 257.535C845.21 254.214 851.818 252.938 857.87 253.427C869.803 254.388 889.822 264.532 887.187 279.107C886.374 283.602 880.122 285.974 876.438 283.48C872.477 280.799 871.513 276.632 868.565 273.128C866.213 270.329 863.232 268.304 860.04 266.579C856.894 264.878 853.254 263.847 849.684 263.471L849.089 263.414C846.94 263.231 836.088 263.28 837.681 267.331C837.993 268.124 836.813 268.752 836.271 268.152C832.944 264.472 836.712 259.677 840.044 257.535Z" fill="black"/>
</svg>
